{
.appVersion = "3401";
.formatVersion = 3;
axes = (
{
name = Weight;
tag = wght;
}
);
classes = (
{
automatic = 1;
code = "A Aacute Acircumflex Adieresis Agrave Aogonek Aring Atilde AE B C Cacute Ccedilla D Eth E Eacute Ecircumflex Edieresis Egrave Eogonek F G H I IJ Iacute Icircumflex Idieresis Idotaccent Igrave J Jacute K L Ldot Lslash M N Nacute Ntilde O Oacute Ocircumflex Odieresis Ograve Oslash Otilde OE P Thorn Q R S Sacute Scaron Germandbls T U Uacute Ucircumflex Udieresis Ugrave V W X Y Yacute Ydieresis Z Zacute Zcaron Zdotaccent Iacute_J.loclNLD";
name = Uppercase;
}
);
customParameters = (
{
name = fsType;
value = (
);
},
{
name = "Use Typo Metrics";
value = 1;
},
{
name = "Use Extension Kerning";
value = 1;
},
{
name = "Export Folder";
value = "Mozilla/Mozilla Text";
},
{
name = "Variable Font Origin";
value = "E307D395-0405-4E21-BEF1-246ADCA736E4";
}
);
date = "2025-02-11 15:00:44 +0000";
familyName = "Mozilla Text";
featurePrefixes = (
{
automatic = 1;
code = "languagesystem DFLT dflt;

languagesystem latn dflt;
languagesystem latn AZE;
languagesystem latn CRT;
languagesystem latn KAZ;
languagesystem latn TAT;
languagesystem latn TRK;
languagesystem latn NLD;
languagesystem latn CAT;
";
name = Languagesystems;
}
);
features = (
{
automatic = 1;
code = "feature locl;
feature subs;
feature sinf;
feature sups;
feature frac;
feature ordn;
feature case;
feature zero;
feature ss01;
";
tag = aalt;
},
{
automatic = 1;
code = "lookup ccmp_Other_1 {
	@CombiningTopAccents = [acutecomb caroncomb circumflexcomb dieresiscomb dotaccentcomb gravecomb ringcomb tildecomb];
	@CombiningNonTopAccents = [cedillacomb ogonekcomb];
	sub [i j]' @CombiningTopAccents by [idotless jdotless];
	sub [i j]' @CombiningNonTopAccents @CombiningTopAccents by [idotless jdotless];
	@Markscomb = [dieresiscomb dotaccentcomb gravecomb acutecomb circumflexcomb caroncomb ringcomb tildecomb];

glyphs = (
{
color = 4;
glyphname = A;
kernLeft = A;
kernRight = A;
lastChange = "2024-09-11 12:47:21 +0000";
layers = (
{
anchors = (
{
name = ogonek;
pos = (634,0);
},
{
name = top;
pos = (333,690);
}
);
layerId = "E307D395-0405-4E21-BEF1-246ADCA736E4";
shapes = (
{
closed = 1;
nodes = (
(96,0,l),
(326,624,l),
(337,624,l),
(567,0,l),
(634,0,l),
(373,690,l),
(292,690,l),
(31,0,l)
);
},
{
closed = 1;
nodes = (
(537,185,l),
(522,241,l),
(141,241,l),
(126,185,l)
);
}
);
width = 666;
},
{
anchors = (
{
name = ogonek;
pos = (654,0);
},
{
name = top;
pos = (333,690);
}
);
layerId = "4BA93484-EEB5-4B02-B3A2-B396B531A6AD";
shapes = (
{
closed = 1;
nodes = (
(150,0,l),
(320,545,l),
(339,545,l),
(510,0,l),
(654,0,l),
(420,690,l),
(245,690,l),
(12,0,l)
);
},
{
closed = 1;
nodes = (
(516,151,l),
(513,259,l),
(141,259,l),
(138,151,l)
);
}
);
width = 666;
}
);
unicode = 65;
},
{
color = 4;
glyphname = Aogonek;
kernLeft = A;
kernRight = A;
lastChange = "2024-09-11 12:47:21 +0000";
layers = (
{
anchors = (
{
name = ogonek;
pos = (634,0);
},
{
name = top;
pos = (333,690);
}
);
layerId = "E307D395-0405-4E21-BEF1-246ADCA736E4";
shapes = (
{
closed = 1;
nodes = (
(648,-160,l),
(648,-117,l),
(554,-117,ls),
(533,-117,o),
(523,-109,o),
(523,-92,cs),
(523,-70,o),
(549,-38,o),
(634,0,c),
(567,15,l),
(567,-3,l),
(497,-29,o),
(476,-69,o),
(476,-104,cs),
(476,-140,o),
(501,-160,o),
(547,-160,cs)
);
},
{
closed = 1;
nodes = (
(96,0,l),
(326,624,l),
(337,624,l),
(567,0,l),
(634,0,l),
(373,690,l),
(292,690,l),
(31,0,l)
);
},
{
closed = 1;
nodes = (
(537,185,l),
(522,241,l),
(141,241,l),
(126,185,l)
);
}
);
width = 666;
},
{
anchors = (
{
name = ogonek;
pos = (654,0);
},
{
name = top;
pos = (333,690);
}
);
layerId = "4BA93484-EEB5-4B02-B3A2-B396B531A6AD";
shapes = (
{
closed = 1;
nodes = (
(668,-160,l),
(668,-83,l),
(586,-83,ls),
(568,-83,o),
(560,-77,o),
(560,-64,cs),
(560,-45,o),
(583,-21,o),
(654,0,c),
(548,17,l),
(548,-18,l),
(488,-29,o),
(461,-59,o),
(461,-98,cs),
(461,-138,o),
(490,-160,o),
(542,-160,cs)
);
},
{
closed = 1;
nodes = (
(150,0,l),
(320,545,l),
(339,545,l),
(510,0,l),
(654,0,l),
(420,690,l),
(245,690,l),
(12,0,l)
);
},
{
closed = 1;
nodes = (
(516,151,l),
(513,259,l),
(141,259,l),
(138,151,l)
);
}
);
width = 666;
}
);
unicode = 260;
},
{
color = 4;
glyphname = AE;
kernRight = E;
lastChange = "2024-09-11 12:47:21 +0000";
layers = (
{
anchors = (
{
name = ogonek;
pos = (906,0);
},
{
name = top;
pos = (685,690);
}
);
layerId = "E307D395-0405-4E21-BEF1-246ADCA736E4";
shapes = (
{
closed = 1;
nodes = (
(80,0,l),
(442,624,l),
(477,624,l),
(488,690,l),
(414,690,l),
(8,0,l)
);
},
{
closed = 1;
nodes = (
(479,185,l),
(479,239,l),
(163,239,l),
(147,185,l)
);
},
{
closed = 1;
nodes = (
(906,0,l),
(906,57,l),
(517,57,l),
(517,324,l),
(826,324,l),
(826,380,l),
(517,380,l),
(517,633,l),
(902,633,l),
(902,690,l),
(453,690,l),
(453,0,l)
);
}
);
userData = {
assembly = "NPUSHB[ ]	/* 47 values pushed */
4 3 11 6 27 4 27 5 42 4 43 5 59 6 74 4 74 5 77 6 77 18 11 18 19 3 4 20 5 5 6 117 5 124 6 2 10 16 14 6 12 12 2 85 14 20 1 
PUSHW[ ]	/* 1 value pushed */
-10 
PUSHB[ ]	/* 5 values pushed */
11 11 2 85 1 
PUSHW[ ]	/* 1 value pushed */
-12 
PUSHB[ ]	/* 5 values pushed */
15 15 6 85 1 
PUSHW[ ]	/* 1 value pushed */
-22 
NPUSHB[ ]	/* 11 values pushed */
13 13 6 85 1 10 12 12 6 85 1 
PUSHW[ ]	/* 1 value pushed */
-20 
NPUSHB[ ]	/* 13 values pushed */
9 9 6 85 1 21 115 6 1 8 11 4 0 
PUSHW[ ]	/* 1 value pushed */
-28 
NPUSHB[ ]	/* 11 values pushed */
9 9 2 85 0 20 12 12 2 85 0 
PUSHW[ ]	/* 1 value pushed */
-42 
PUSHB[ ]	/* 5 values pushed */
13 13 2 85 0 
PUSHW[ ]	/* 1 value pushed */
-25 
NPUSHB[ ]	/* 27 values pushed */
15 15 2 85 0 28 16 16 2 85 64 0 1 0 0 15 5 1 5 100 20 3 52 19 13 53 10 
PUSHW[ ]	/* 1 value pushed */
-64 
NPUSHB[ ]	/* 19 values pushed */
15 15 2 85 10 10 19 5 8 53 18 52 6 3 14 53 1 5 8 
SVTCA[0]	/* SetFreedomAndProjectionVectorToAxis */
MIAP[1]	/* MoveIndirectAbsPt */
ALIGNRP[ ]	/* AlignRelativePt */
MIRP[01101]	/* MoveIndirectRelPt */
MIAP[1]	/* MoveIndirectAbsPt */
MIRP[01101]	/* MoveIndirectRelPt */
MIRP[01101]	/* MoveIndirectRelPt */
SRP2[ ]	/* SetRefPoint2 */
IP[ ]	/* InterpolatePts */
IP[ ]	/* InterpolatePts */
MDAP[1]	/* MoveDirectAbsPt */
CALL[ ]	/* CallFunction */
MIRP[01101]	/* MoveIndirectRelPt */
MDAP[1]	/* MoveDirectAbsPt */
MIRP[01101]	/* MoveIndirectRelPt */
IUP[0]	/* InterpolateUntPts */
SVTCA[1]	/* SetFreedomAndProjectionVectorToAxis */
SRP0[ ]	/* SetRefPoint0 */
MIRP[10110]	/* MoveIndirectRelPt */
DELTAP1[ ]	/* DeltaExceptionP1 */
SHP[0]	/* ShiftPointByLastPoint */
MDAP[1]	/* MoveDirectAbsPt */
DELTAP1[ ]	/* DeltaExceptionP1 */
CALL[ ]	/* CallFunction */
CALL[ ]	/* CallFunction */
CALL[ ]	/* CallFunction */
CALL[ ]	/* CallFunction */
CALL[ ]	/* CallFunction */
SLOOP[ ]	/* SetLoopVariable */
IP[ ]	/* InterpolatePts */
MIRP[00110]	/* MoveIndirectRelPt */
MDAP[1]	/* MoveDirectAbsPt */
CALL[ ]	/* CallFunction */
CALL[ ]	/* CallFunction */
CALL[ ]	/* CallFunction */
CALL[ ]	/* CallFunction */
CALL[ ]	/* CallFunction */
MIRP[01101]	/* MoveIndirectRelPt */
CALL[ ]	/* CallFunction */
IP[ ]	/* InterpolatePts */
IP[ ]	/* InterpolatePts */
IUP[1]	/* InterpolateUntPts */
IUP[0]	/* InterpolateUntPts */
DELTAP1[ ]	/* DeltaExceptionP1 */
SDPVTL[1]	/* SetDualPVectorToLine */
SRP0[ ]	/* SetRefPoint0 */
MIRP[11101]	/* MoveIndirectRelPt */
MDRP[00000]	/* MoveDirectRelPt */
MDRP[00000]	/* MoveDirectRelPt */
MDRP[00000]	/* MoveDirectRelPt */
SVTCA[1]	/* SetFreedomAndProjectionVectorToAxis */
DELTAP1[ ]	/* DeltaExceptionP1 */";
};
width = 956;
},
{
anchors = (
{
name = ogonek;
pos = (921,0);
},
{
name = top;
pos = (684,690);
}
);
layerId = "4BA93484-EEB5-4B02-B3A2-B396B531A6AD";
shapes = (
{
closed = 1;
nodes = (
(137,0,l),
(402,545,l),
(450,545,l),
(533,690,l),
(341,690,l),
(-12,0,l)
);
},
{
closed = 1;
nodes = (
(498,144,l),
(498,254,l),
(144,254,l),
(141,144,l)
);
},
{
closed = 1;
nodes = (
(921,0,l),
(921,113,l),
(564,113,l),
(564,298,l),
(835,298,l),
(835,406,l),
(564,406,l),
(564,577,l),
(917,577,l),
(917,690,l),
(421,690,l),
(421,0,l)
);
}
);
userData = {
assembly = "NPUSHB[ ]	/* 47 values pushed */
4 3 11 6 27 4 27 5 42 4 43 5 59 6 74 4 74 5 77 6 77 18 11 18 19 3 4 20 5 5 6 117 5 124 6 2 10 16 14 6 12 12 2 85 14 20 1 
PUSHW[ ]	/* 1 value pushed */
-10 
PUSHB[ ]	/* 5 values pushed */
11 11 2 85 1 
PUSHW[ ]	/* 1 value pushed */
-12 
PUSHB[ ]	/* 5 values pushed */
15 15 6 85 1 
PUSHW[ ]	/* 1 value pushed */
-22 
NPUSHB[ ]	/* 11 values pushed */
13 13 6 85 1 10 12 12 6 85 1 
PUSHW[ ]	/* 1 value pushed */
-20 
NPUSHB[ ]	/* 13 values pushed */
9 9 6 85 1 21 115 6 1 8 11 4 0 
PUSHW[ ]	/* 1 value pushed */
-28 
NPUSHB[ ]	/* 11 values pushed */
9 9 2 85 0 20 12 12 2 85 0 
PUSHW[ ]	/* 1 value pushed */
-42 
PUSHB[ ]	/* 5 values pushed */
13 13 2 85 0 
PUSHW[ ]	/* 1 value pushed */
-25 
NPUSHB[ ]	/* 27 values pushed */
15 15 2 85 0 28 16 16 2 85 64 0 1 0 0 15 5 1 5 100 20 3 52 19 13 53 10 
PUSHW[ ]	/* 1 value pushed */
-64 
NPUSHB[ ]	/* 19 values pushed */
15 15 2 85 10 10 19 5 8 53 18 52 6 3 14 53 1 5 8 
SVTCA[0]	/* SetFreedomAndProjectionVectorToAxis */
MIAP[1]	/* MoveIndirectAbsPt */
ALIGNRP[ ]	/* AlignRelativePt */
MIRP[01101]	/* MoveIndirectRelPt */
MIAP[1]	/* MoveIndirectAbsPt */
MIRP[01101]	/* MoveIndirectRelPt */
MIRP[01101]	/* MoveIndirectRelPt */
SRP2[ ]	/* SetRefPoint2 */
IP[ ]	/* InterpolatePts */
IP[ ]	/* InterpolatePts */
MDAP[1]	/* MoveDirectAbsPt */
CALL[ ]	/* CallFunction */
MIRP[01101]	/* MoveIndirectRelPt */
MDAP[1]	/* MoveDirectAbsPt */
MIRP[01101]	/* MoveIndirectRelPt */
IUP[0]	/* InterpolateUntPts */
SVTCA[1]	/* SetFreedomAndProjectionVectorToAxis */
SRP0[ ]	/* SetRefPoint0 */
MIRP[10110]	/* MoveIndirectRelPt */
DELTAP1[ ]	/* DeltaExceptionP1 */
SHP[0]	/* ShiftPointByLastPoint */
MDAP[1]	/* MoveDirectAbsPt */
DELTAP1[ ]	/* DeltaExceptionP1 */
CALL[ ]	/* CallFunction */
CALL[ ]	/* CallFunction */
CALL[ ]	/* CallFunction */
CALL[ ]	/* CallFunction */
CALL[ ]	/* CallFunction */
SLOOP[ ]	/* SetLoopVariable */
IP[ ]	/* InterpolatePts */
MIRP[00110]	/* MoveIndirectRelPt */
MDAP[1]	/* MoveDirectAbsPt */
CALL[ ]	/* CallFunction */
CALL[ ]	/* CallFunction */
CALL[ ]	/* CallFunction */
CALL[ ]	/* CallFunction */
CALL[ ]	/* CallFunction */
MIRP[01101]	/* MoveIndirectRelPt */
CALL[ ]	/* CallFunction */
IP[ ]	/* InterpolatePts */
IP[ ]	/* InterpolatePts */
IUP[1]	/* InterpolateUntPts */
IUP[0]	/* InterpolateUntPts */
DELTAP1[ ]	/* DeltaExceptionP1 */
SDPVTL[1]	/* SetDualPVectorToLine */
SRP0[ ]	/* SetRefPoint0 */
MIRP[11101]	/* MoveIndirectRelPt */
MDRP[00000]	/* MoveDirectRelPt */
MDRP[00000]	/* MoveDirectRelPt */
MDRP[00000]	/* MoveDirectRelPt */
SVTCA[1]	/* SetFreedomAndProjectionVectorToAxis */
DELTAP1[ ]	/* DeltaExceptionP1 */";
};
width = 956;
}
);
note = AE;
unicode = 198;
},
{
color = 4;
glyphname = B;
kernLeft = H;
lastChange = "2024-09-11 12:47:21 +0000";
layers = (
{
layerId = "E307D395-0405-4E21-BEF1-246ADCA736E4";
shapes = (
{
closed = 1;
nodes = (
(401,0,ls),
(516,0,o),
(585,70,o),
(585,190,cs),
(585,281,o),
(545,334,o),
(468,346,c),
(468,358,l),
(541,370,o),
(578,420,o),
(578,507,cs),
(578,623,o),
(511,690,o),
(398,690,c),
(106,690,l),
(106,0,l)
);
},
{
closed = 1;
nodes = (
(170,57,l),
(170,324,l),
(395,324,ls),
(476,324,o),
(518,283,o),
(518,201,cs),
(518,180,ls),
(518,99,o),
(476,57,o),
(395,57,cs)
);
},
{
closed = 1;
nodes = (
(170,380,l),
(170,633,l),
(393,633,ls),
(471,633,o),
(511,593,o),
(511,515,cs),
(511,498,ls),
(511,420,o),
(471,380,o),
(393,380,cs)
);
}
);
width = 650;
},
{
layerId = "4BA93484-EEB5-4B02-B3A2-B396B531A6AD";
shapes = (
{
closed = 1;
nodes = (
(388,0,ls),
(526,0,o),
(607,69,o),
(607,191,cs),
(607,281,o),
(562,333,o),
(476,342,c),
(476,362,l),
(557,371,o),
(600,420,o),
(600,506,cs),
(600,623,o),
(520,690,o),
(386,690,c),
(74,690,l),
(74,0,l)
);
},
{
closed = 1;
nodes = (
(216,107,l),
(216,301,l),
(378,301,ls),
(435,301,o),
(461,274,o),
(461,217,cs),
(461,190,ls),
(461,133,o),
(435,107,o),
(378,107,cs)
);
},
{
closed = 1;
nodes = (
(216,403,l),
(216,583,l),
(376,583,ls),
(429,583,o),
(454,559,o),
(454,505,cs),
(454,482,ls),
(454,428,o),
(429,403,o),
(376,403,cs)
);
}
);
width = 650;
}
);
unicode = 66;
},
{
color = 4;
glyphname = C;
kernLeft = O;
kernRight = C;
lastChange = "2024-09-11 12:47:21 +0000";
layers = (
{
anchors = (
{
name = bottom;
pos = (355,0);
},
{
name = top;
pos = (355,690);
}
);
layerId = "E307D395-0405-4E21-BEF1-246ADCA736E4";
shapes = (
{
closed = 1;
nodes = (
(538,-10,o),
(642,105,o),
(642,320,c),
(668,245,l),
(570,245,l),
(570,235,ls),
(570,132,o),
(504,47,o),
(355,47,cs),
(202,47,o),
(131,131,o),
(131,311,cs),
(131,379,ls),
(131,559,o),
(202,643,o),
(355,643,cs),
(504,643,o),
(570,560,o),
(570,461,cs),
(570,453,l),
(668,453,l),
(642,370,l),
(642,585,o),
(538,700,o),
(355,700,cs),
(170,700,o),
(63,578,o),
(63,345,cs),
(63,112,o),
(170,-10,o),
(355,-10,cs)
);
}
);
width = 698;
},
{
anchors = (
{
name = bottom;
pos = (355,0);
},
{
name = top;
pos = (355,690);
}
);
layerId = "4BA93484-EEB5-4B02-B3A2-B396B531A6AD";
shapes = (
{
closed = 1;
nodes = (
(550,-10,o),
(662,106,o),
(662,320,c),
(686,255,l),
(512,255,l),
(512,231,ls),
(512,164,o),
(468,100,o),
(355,100,cs),
(243,100,o),
(192,162,o),
(192,298,cs),
(192,392,ls),
(192,528,o),
(243,590,o),
(355,590,cs),
(468,590,o),
(512,527,o),
(512,465,cs),
(512,443,l),
(688,443,l),
(662,370,l),
(662,584,o),
(550,700,o),
(355,700,cs),
(157,700,o),
(42,578,o),
(42,345,cs),
(42,112,o),
(157,-10,o),
(355,-10,cs)
);
}
);
width = 698;
}
);
unicode = 67;
},
{
color = 4;
glyphname = D;
kernLeft = H;
kernRight = D;
lastChange = "2024-09-11 12:47:21 +0000";
layers = (
{
layerId = "E307D395-0405-4E21-BEF1-246ADCA736E4";
shapes = (
{
closed = 1;
nodes = (
(354,0,ls),
(546,0,o),
(644,108,o),
(644,345,cs),
(644,582,o),
(546,690,o),
(354,690,cs),
(105,690,l),
(105,0,l)
);
},
{
closed = 1;
nodes = (
(169,633,l),
(348,633,ls),
(503,633,o),
(576,559,o),
(576,378,cs),
(576,312,ls),
(576,131,o),
(503,57,o),
(348,57,cs),
(169,57,l)
);
}
);
width = 708;
},
{
layerId = "4BA93484-EEB5-4B02-B3A2-B396B531A6AD";
shapes = (
{
closed = 1;
nodes = (
(358,0,ls),
(561,0,o),
(664,108,o),
(664,345,cs),
(664,581,o),
(561,690,o),
(358,690,cs),
(75,690,l),
(75,0,l)
);
},
{
closed = 1;
nodes = (
(217,577,l),
(348,577,ls),
(462,577,o),
(515,525,o),
(515,389,cs),
(515,301,ls),
(515,165,o),
(462,113,o),
(348,113,cs),
(217,113,l)
);
}
);
width = 708;
}
);
unicode = 68;
},
{
color = 4;
glyphname = Eth;
kernLeft = H;
kernRight = D;
lastChange = "2024-09-11 12:47:21 +0000";
layers = (
{
layerId = "E307D395-0405-4E21-BEF1-246ADCA736E4";
shapes = (
{
closed = 1;
nodes = (
(403,326,l),
(403,378,l),
(39,378,l),
(39,326,l)
);
},
{
closed = 1;
nodes = (
(384,0,ls),
(576,0,o),
(674,108,o),
(674,345,cs),
(674,582,o),
(576,690,o),
(384,690,cs),
(135,690,l),
(135,0,l)
);
},
{
closed = 1;
nodes = (
(199,633,l),
(378,633,ls),
(533,633,o),
(606,559,o),
(606,378,cs),
(606,312,ls),
(606,131,o),
(533,57,o),
(378,57,cs),
(199,57,l)
);
}
);
userData = {
assembly = "NPUSHB[ ]	/* 39 values pushed */
56 22 72 22 102 2 104 17 4 27 30 8 60 11 11 7 26 52 12 3 31 52 7 8 118 0 1 29 29 7 19 21 0 2 11 11 2 85 0 
PUSHW[ ]	/* 1 value pushed */
-34 
PUSHB[ ]	/* 5 values pushed */
15 15 2 85 0 
PUSHW[ ]	/* 1 value pushed */
-16 
PUSHB[ ]	/* 5 values pushed */
9 9 2 85 0 
PUSHW[ ]	/* 1 value pushed */
-26 
PUSHB[ ]	/* 5 values pushed */
12 12 2 85 0 
PUSHW[ ]	/* 1 value pushed */
-4 
NPUSHB[ ]	/* 39 values pushed */
13 13 2 85 0 116 39 15 39 64 39 96 39 3 9 27 30 4 12 12 2 85 30 8 9 9 2 85 30 20 11 9 7 10 16 16 2 85 7 
PUSHW[ ]	/* 1 value pushed */
-38 
PUSHB[ ]	/* 5 values pushed */
15 15 2 85 7 
PUSHW[ ]	/* 1 value pushed */
-22 
PUSHB[ ]	/* 5 values pushed */
13 13 2 85 7 
PUSHW[ ]	/* 1 value pushed */
-18 
PUSHB[ ]	/* 5 values pushed */
12 12 2 85 7 
PUSHW[ ]	/* 1 value pushed */
-4 
NPUSHB[ ]	/* 11 values pushed */
11 11 2 85 7 8 9 9 2 85 7 
PUSHW[ ]	/* 1 value pushed */
-24 
PUSHB[ ]	/* 5 values pushed */
15 15 6 85 7 
PUSHW[ ]	/* 1 value pushed */
-10 
PUSHB[ ]	/* 5 values pushed */
13 13 6 85 7 
PUSHW[ ]	/* 1 value pushed */
-15 
PUSHB[ ]	/* 5 values pushed */
12 12 6 85 7 
PUSHW[ ]	/* 1 value pushed */
-3 
PUSHB[ ]	/* 7 values pushed */
9 9 6 85 7 108 38 
SRP0[ ]	/* SetRefPoint0 */
MIRP[10110]	/* MoveIndirectRelPt */
CALL[ ]	/* CallFunction */
CALL[ ]	/* CallFunction */
CALL[ ]	/* CallFunction */
CALL[ ]	/* CallFunction */
CALL[ ]	/* CallFunction */
CALL[ ]	/* CallFunction */
CALL[ ]	/* CallFunction */
CALL[ ]	/* CallFunction */
CALL[ ]	/* CallFunction */
CALL[ ]	/* CallFunction */
SHP[0]	/* ShiftPointByLastPoint */
SHP[0]	/* ShiftPointByLastPoint */
MIRP[11101]	/* MoveIndirectRelPt */
CALL[ ]	/* CallFunction */
CALL[ ]	/* CallFunction */
SHP[0]	/* ShiftPointByLastPoint */
MDAP[1]	/* MoveDirectAbsPt */
DELTAP1[ ]	/* DeltaExceptionP1 */
SRP0[ ]	/* SetRefPoint0 */
MIRP[10110]	/* MoveIndirectRelPt */
CALL[ ]	/* CallFunction */
CALL[ ]	/* CallFunction */
CALL[ ]	/* CallFunction */
CALL[ ]	/* CallFunction */
CALL[ ]	/* CallFunction */
MIRP[01101]	/* MoveIndirectRelPt */
SRP2[ ]	/* SetRefPoint2 */
IP[ ]	/* InterpolatePts */
MDAP[1]	/* MoveDirectAbsPt */
DELTAP1[ ]	/* DeltaExceptionP1 */
SVTCA[0]	/* SetFreedomAndProjectionVectorToAxis */
MIAP[1]	/* MoveIndirectAbsPt */
MIRP[01101]	/* MoveIndirectRelPt */
MIAP[1]	/* MoveIndirectAbsPt */
MIRP[01101]	/* MoveIndirectRelPt */
SRP2[ ]	/* SetRefPoint2 */
IP[ ]	/* InterpolatePts */
MDAP[1]	/* MoveDirectAbsPt */
MIRP[11101]	/* MoveIndirectRelPt */
IP[ ]	/* InterpolatePts */
IP[ ]	/* InterpolatePts */
IUP[1]	/* InterpolateUntPts */
IUP[0]	/* InterpolateUntPts */
DELTAP1[ ]	/* DeltaExceptionP1 */";
};
width = 741;
},
{
layerId = "4BA93484-EEB5-4B02-B3A2-B396B531A6AD";
shapes = (
{
closed = 1;
nodes = (
(389,304,l),
(389,400,l),
(29,400,l),
(29,304,l)
);
},
{
closed = 1;
nodes = (
(394,0,ls),
(597,0,o),
(700,108,o),
(700,345,cs),
(700,581,o),
(597,690,o),
(394,690,cs),
(110,690,l),
(110,0,l)
);
},
{
closed = 1;
nodes = (
(252,577,l),
(384,577,ls),
(498,577,o),
(550,525,o),
(550,389,cs),
(550,301,ls),
(550,165,o),
(498,113,o),
(384,113,cs),
(252,113,l)
);
}
);
userData = {
assembly = "NPUSHB[ ]	/* 39 values pushed */
56 22 72 22 102 2 104 17 4 27 30 8 60 11 11 7 26 52 12 3 31 52 7 8 118 0 1 29 29 7 19 21 0 2 11 11 2 85 0 
PUSHW[ ]	/* 1 value pushed */
-34 
PUSHB[ ]	/* 5 values pushed */
15 15 2 85 0 
PUSHW[ ]	/* 1 value pushed */
-16 
PUSHB[ ]	/* 5 values pushed */
9 9 2 85 0 
PUSHW[ ]	/* 1 value pushed */
-26 
PUSHB[ ]	/* 5 values pushed */
12 12 2 85 0 
PUSHW[ ]	/* 1 value pushed */
-4 
NPUSHB[ ]	/* 39 values pushed */
13 13 2 85 0 116 39 15 39 64 39 96 39 3 9 27 30 4 12 12 2 85 30 8 9 9 2 85 30 20 11 9 7 10 16 16 2 85 7 
PUSHW[ ]	/* 1 value pushed */
-38 
PUSHB[ ]	/* 5 values pushed */
15 15 2 85 7 
PUSHW[ ]	/* 1 value pushed */
-22 
PUSHB[ ]	/* 5 values pushed */
13 13 2 85 7 
PUSHW[ ]	/* 1 value pushed */
-18 
PUSHB[ ]	/* 5 values pushed */
12 12 2 85 7 
PUSHW[ ]	/* 1 value pushed */
-4 
NPUSHB[ ]	/* 11 values pushed */
11 11 2 85 7 8 9 9 2 85 7 
PUSHW[ ]	/* 1 value pushed */
-24 
PUSHB[ ]	/* 5 values pushed */
15 15 6 85 7 
PUSHW[ ]	/* 1 value pushed */
-10 
PUSHB[ ]	/* 5 values pushed */
13 13 6 85 7 
PUSHW[ ]	/* 1 value pushed */
-15 
PUSHB[ ]	/* 5 values pushed */
12 12 6 85 7 
PUSHW[ ]	/* 1 value pushed */
-3 
PUSHB[ ]	/* 7 values pushed */
9 9 6 85 7 108 38 
SRP0[ ]	/* SetRefPoint0 */
MIRP[10110]	/* MoveIndirectRelPt */
CALL[ ]	/* CallFunction */
CALL[ ]	/* CallFunction */
CALL[ ]	/* CallFunction */
CALL[ ]	/* CallFunction */
CALL[ ]	/* CallFunction */
CALL[ ]	/* CallFunction */
CALL[ ]	/* CallFunction */
CALL[ ]	/* CallFunction */
CALL[ ]	/* CallFunction */
CALL[ ]	/* CallFunction */
SHP[0]	/* ShiftPointByLastPoint */
SHP[0]	/* ShiftPointByLastPoint */
MIRP[11101]	/* MoveIndirectRelPt */
CALL[ ]	/* CallFunction */
CALL[ ]	/* CallFunction */
SHP[0]	/* ShiftPointByLastPoint */
MDAP[1]	/* MoveDirectAbsPt */
DELTAP1[ ]	/* DeltaExceptionP1 */
SRP0[ ]	/* SetRefPoint0 */
MIRP[10110]	/* MoveIndirectRelPt */
CALL[ ]	/* CallFunction */
CALL[ ]	/* CallFunction */
CALL[ ]	/* CallFunction */
CALL[ ]	/* CallFunction */
CALL[ ]	/* CallFunction */
MIRP[01101]	/* MoveIndirectRelPt */
SRP2[ ]	/* SetRefPoint2 */
IP[ ]	/* InterpolatePts */
MDAP[1]	/* MoveDirectAbsPt */
DELTAP1[ ]	/* DeltaExceptionP1 */
SVTCA[0]	/* SetFreedomAndProjectionVectorToAxis */
MIAP[1]	/* MoveIndirectAbsPt */
MIRP[01101]	/* MoveIndirectRelPt */
MIAP[1]	/* MoveIndirectAbsPt */
MIRP[01101]	/* MoveIndirectRelPt */
SRP2[ ]	/* SetRefPoint2 */
IP[ ]	/* InterpolatePts */
MDAP[1]	/* MoveDirectAbsPt */
MIRP[11101]	/* MoveIndirectRelPt */
IP[ ]	/* InterpolatePts */
IP[ ]	/* InterpolatePts */
IUP[1]	/* InterpolateUntPts */
IUP[0]	/* InterpolateUntPts */
DELTAP1[ ]	/* DeltaExceptionP1 */";
};
width = 741;
}
);
note = Eth;
unicode = 208;
},
{
color = 4;
glyphname = E;
kernLeft = H;
kernRight = E;
lastChange = "2024-09-11 12:47:21 +0000";
layers = (
{
anchors = (
{
name = ogonek;
pos = (559,0);
},
{
name = top;
pos = (338,690);
}
);
layerId = "E307D395-0405-4E21-BEF1-246ADCA736E4";
shapes = (
{
closed = 1;
nodes = (
(559,0,l),
(559,57,l),
(170,57,l),
(170,324,l),
(479,324,l),
(479,380,l),
(170,380,l),
(170,633,l),
(555,633,l),
(555,690,l),
(106,690,l),
(106,0,l)
);
}
);
width = 609;
},
{
anchors = (
{
name = ogonek;
pos = (574,0);
},
{
name = top;
pos = (337,690);
}
);
layerId = "4BA93484-EEB5-4B02-B3A2-B396B531A6AD";
shapes = (
{
closed = 1;
nodes = (
(574,0,l),
(574,113,l),
(217,113,l),
(217,298,l),
(488,298,l),
(488,406,l),
(217,406,l),
(217,577,l),
(570,577,l),
(570,690,l),
(74,690,l),
(74,0,l)
);
}
);
width = 609;
}
);
unicode = 69;
},
{
color = 4;
glyphname = F;
kernLeft = H;
lastChange = "2024-09-11 12:47:21 +0000";
layers = (
{
layerId = "E307D395-0405-4E21-BEF1-246ADCA736E4";
shapes = (
{
closed = 1;
nodes = (
(170,0,l),
(170,324,l),
(479,324,l),
(479,380,l),
(170,380,l),
(170,633,l),
(555,633,l),
(555,690,l),
(106,690,l),
(106,0,l)
);
}
);
width = 592;
},
{
layerId = "4BA93484-EEB5-4B02-B3A2-B396B531A6AD";
shapes = (
{
closed = 1;
nodes = (
(217,0,l),
(217,298,l),
(488,298,l),
(488,406,l),
(217,406,l),
(217,577,l),
(570,577,l),
(570,690,l),
(74,690,l),
(74,0,l)
);
}
);
width = 592;
}
);
unicode = 70;
userData = {
KernOnName = F;
};
},
{
color = 4;
glyphname = G;
kernLeft = O;
lastChange = "2024-09-11 12:47:21 +0000";
layers = (
{
layerId = "E307D395-0405-4E21-BEF1-246ADCA736E4";
shapes = (
{
closed = 1;
nodes = (
(476,-10,o),
(539,50,o),
(575,121,c),
(586,121,l),
(586,0,l),
(642,0,l),
(642,351,l),
(359,351,l),
(359,296,l),
(621,296,l),
(580,337,l),
(580,276,ls),
(580,131,o),
(508,47,o),
(355,47,cs),
(202,47,o),
(131,130,o),
(131,312,cs),
(131,379,ls),
(131,559,o),
(202,643,o),
(354,643,cs),
(506,643,o),
(565,558,o),
(565,479,cs),
(565,477,l),
(682,477,l),
(642,370,l),
(642,585,o),
(537,700,o),
(356,700,cs),
(170,700,o),
(62,578,o),
(62,345,cs),
(62,113,o),
(167,-10,o),
(348,-10,cs)
);
}
);
width = 723;
},
{
layerId = "4BA93484-EEB5-4B02-B3A2-B396B531A6AD";
shapes = (
{
closed = 1;
nodes = (
(424,-10,o),
(491,39,o),
(516,116,c),
(535,116,l),
(535,0,l),
(662,0,l),
(662,360,l),
(361,360,l),
(361,254,l),
(564,254,l),
(524,321,l),
(524,271,ls),
(524,162,o),
(472,98,o),
(358,98,cs),
(244,98,o),
(192,160,o),
(192,299,cs),
(192,392,ls),
(192,528,o),
(243,590,o),
(356,590,cs),
(469,590,o),
(508,524,o),
(508,484,cs),
(508,467,l),
(704,467,l),
(662,370,l),
(662,584,o),
(551,700,o),
(356,700,cs),
(157,700,o),
(42,578,o),
(42,345,cs),
(42,113,o),
(157,-10,o),
(320,-10,cs)
);
}
);
width = 723;
}
);
unicode = 71;
},
{
color = 4;
glyphname = H;
kernLeft = H;
kernRight = H;
lastChange = "2024-09-11 12:47:21 +0000";
layers = (
{
layerId = "E307D395-0405-4E21-BEF1-246ADCA736E4";
shapes = (
{
closed = 1;
nodes = (
(593,0,l),
(593,690,l),
(529,690,l),
(529,0,l)
);
},
{
closed = 1;
nodes = (
(169,0,l),
(169,690,l),
(105,690,l),
(105,0,l)
);
},
{
closed = 1;
nodes = (
(561,324,l),
(561,380,l),
(136,380,l),
(136,324,l)
);
}
);
width = 698;
},
{
layerId = "4BA93484-EEB5-4B02-B3A2-B396B531A6AD";
shapes = (
{
closed = 1;
nodes = (
(624,0,l),
(624,690,l),
(481,690,l),
(481,0,l)
);
},
{
closed = 1;
nodes = (
(217.007,0,l),
(217.007,690,l),
(75,690,l),
(75,0,l)
);
},
{
closed = 1;
nodes = (
(530,296,l),
(530,408,l),
(165,408,l),
(165,296,l)
);
}
);
width = 698;
}
);
unicode = 72;
userData = {
KernOnName = H;
};
},
{
color = 4;
glyphname = I;
kernLeft = I;
kernRight = I;
lastChange = "2024-09-11 12:47:21 +0000";
layers = (
{
anchors = (
{
name = top;
pos = (185,690);
}
);
layerId = "E307D395-0405-4E21-BEF1-246ADCA736E4";
shapes = (
{
closed = 1;
nodes = (
(324,0,l),
(324,57,l),
(217,57,l),
(217,633,l),
(324,633,l),
(324,690,l),
(47,690,l),
(47,633,l),
(153,633,l),
(153,57,l),
(47,57,l),
(47,0,l)
);
}
);
width = 372;
},
{
anchors = (
{
name = top;
pos = (186,690);
}
);
layerId = "4BA93484-EEB5-4B02-B3A2-B396B531A6AD";
shapes = (
{
closed = 1;
nodes = (
(328,0,l),
(328,113,l),
(257,113,l),
(257,577,l),
(328,577,l),
(328,690,l),
(44,690,l),
(44,577,l),
(115,577,l),
(115,113,l),
(44,113,l),
(44,0,l)
);
}
);
width = 372;
}
);
unicode = 73;
userData = {
KernOnName = I;
};
},
{
color = 4;
glyphname = IJ;
kernLeft = U;
kernRight = J;
lastChange = "2024-09-11 12:47:21 +0000";
layers = (
{
layerId = "E307D395-0405-4E21-BEF1-246ADCA736E4";
shapes = (
{
closed = 1;
nodes = (
(520,-10,o),
(597,84,o),
(597,281,cs),
(597,690,l),
(533,690,l),
(533,259,ls),
(533,112,o),
(483,47,o),
(344,47,cs),
(213,47,o),
(156,118,o),
(156,230,cs),
(156,245,l),
(92,245,l),
(92,242,ls),
(92,91,o),
(175,-10,o),
(344,-10,cs)
);
},
{
closed = 1;
nodes = (
(153,373,l),
(153,690,l),
(93,690,l),
(93,373,l)
);
}
);
width = 690;
},
{
layerId = "4BA93484-EEB5-4B02-B3A2-B396B531A6AD";
shapes = (
{
closed = 1;
nodes = (
(528,-10,o),
(620,84,o),
(620,278,cs),
(620,690,l),
(477,690,l),
(477,253,ls),
(477,148,o),
(436,100,o),
(343,100,cs),
(252,100,o),
(211,154,o),
(211,227,cs),
(211,255,l),
(68,255,l),
(68,251,ls),
(68,91,o),
(160,-10,o),
(343,-10,cs)
);
},
{
closed = 1;
nodes = (
(206,363,l),
(206,690,l),
(70,690,l),
(70,363,l)
);
}
);
width = 690;
}
);
unicode = 306;
},
{
color = 4;
glyphname = J;
kernLeft = J;
kernRight = J;
lastChange = "2024-09-11 12:47:21 +0000";
layers = (
{
anchors = (
{
name = top;
pos = (486,690);
}
);
layerId = "E307D395-0405-4E21-BEF1-246ADCA736E4";
shapes = (
{
closed = 1;
nodes = (
(443,-10,o),
(518,77,o),
(518,275,cs),
(518,690,l),
(454,690,l),
(454,253,ls),
(454,105,o),
(405,47,o),
(281,47,cs),
(156,47,o),
(108,105,o),
(108,241,cs),
(108,256,l),
(44,256,l),
(44,255,ls),
(44,77,o),
(119,-10,o),
(281,-10,cs)
);
}
);
width = 614;
},
{
anchors = (
{
name = top;
pos = (477,690);
}
);
layerId = "4BA93484-EEB5-4B02-B3A2-B396B531A6AD";
shapes = (
{
closed = 1;
nodes = (
(460,-10,o),
(546,81,o),
(546,272,cs),
(546,690,l),
(403,690,l),
(403,246,ls),
(403,144,o),
(368,100,o),
(285,100,cs),
(202,100,o),
(167,144,o),
(167,236,cs),
(167,263,l),
(24,263,l),
(24,261,ls),
(24,81,o),
(110,-10,o),
(285,-10,cs)
);
}
);
width = 614;
}
);
unicode = 74;
userData = {
KernOnName = J;
};
},
{
color = 4;
glyphname = K;
kernLeft = H;
lastChange = "2024-09-11 12:47:21 +0000";
layers = (
{
layerId = "E307D395-0405-4E21-BEF1-246ADCA736E4";
shapes = (
{
closed = 1;
nodes = (
(173,0,l),
(173,341,l),
(534,0,l),
(622,0,l),
(210,389,l),
(217,327,l),
(607,690,l),
(522,690,l),
(173,363,l),
(173,690,l),
(109,690,l),
(109,0,l)
);
}
);
width = 639;
},
{
layerId = "4BA93484-EEB5-4B02-B3A2-B396B531A6AD";
shapes = (
{
closed = 1;
nodes = (
(215,0,l),
(215,336,l),
(472,0,l),
(644,0,l),
(316,420,l),
(315,297,l),
(632,690,l),
(469,690,l),
(215,368,l),
(215,690,l),
(73,690,l),
(73,0,l)
);
}
);
width = 639;
}
);
unicode = 75;
},
{
color = 4;
glyphname = L;
kernLeft = H;
kernRight = L;
lastChange = "2024-09-11 12:47:21 +0000";
layers = (
{
layerId = "E307D395-0405-4E21-BEF1-246ADCA736E4";
shapes = (
{
closed = 1;
nodes = (
(544,0,l),
(544,57,l),
(169,57,l),
(169,690,l),
(105,690,l),
(105,0,l)
);
}
);
width = 581;
},
{
layerId = "4BA93484-EEB5-4B02-B3A2-B396B531A6AD";
shapes = (
{
closed = 1;
nodes = (
(560,0,l),
(560,113,l),
(217,113,l),
(217,690,l),
(75,690,l),
(75,0,l)
);
}
);
width = 581;
}
);
unicode = 76;
userData = {
KernOnName = L;
};
},
{
color = 4;
glyphname = Lslash;
kernRight = L;
lastChange = "2024-09-11 12:47:21 +0000";
layers = (
{
layerId = "E307D395-0405-4E21-BEF1-246ADCA736E4";
shapes = (
{
closed = 1;
nodes = (
(410,385,l),
(410,438,l),
(40,250,l),
(40,197,l)
);
},
{
closed = 1;
nodes = (
(575,0,l),
(575,57,l),
(201,57,l),
(201,690,l),
(136,690,l),
(136,0,l)
);
}
);
userData = {
assembly = "NPUSHB[ ]	/* 46 values pushed */
59 11 75 10 90 10 122 10 4 2 11 5 8 4 9 3 9 9 1 6 3 12 53 1 8 10 3 10 0 0 15 15 15 1 8 11 20 5 3 2 10 16 16 2 85 2 
PUSHW[ ]	/* 1 value pushed */
-4 
PUSHB[ ]	/* 5 values pushed */
11 11 2 85 2 
PUSHW[ ]	/* 1 value pushed */
-38 
NPUSHB[ ]	/* 11 values pushed */
15 15 2 85 2 8 9 9 2 85 2 
PUSHW[ ]	/* 1 value pushed */
-18 
PUSHB[ ]	/* 5 values pushed */
12 12 2 85 2 
PUSHW[ ]	/* 1 value pushed */
-22 
PUSHB[ ]	/* 5 values pushed */
13 13 2 85 2 
PUSHW[ ]	/* 1 value pushed */
-24 
PUSHB[ ]	/* 5 values pushed */
15 15 6 85 2 
PUSHW[ ]	/* 1 value pushed */
-20 
PUSHB[ ]	/* 5 values pushed */
13 13 6 85 2 
PUSHW[ ]	/* 1 value pushed */
-22 
PUSHB[ ]	/* 5 values pushed */
12 12 6 85 2 
PUSHW[ ]	/* 1 value pushed */
-6 
PUSHB[ ]	/* 7 values pushed */
9 9 6 85 2 108 14 
SRP0[ ]	/* SetRefPoint0 */
MIRP[10110]	/* MoveIndirectRelPt */
CALL[ ]	/* CallFunction */
CALL[ ]	/* CallFunction */
CALL[ ]	/* CallFunction */
CALL[ ]	/* CallFunction */
CALL[ ]	/* CallFunction */
CALL[ ]	/* CallFunction */
CALL[ ]	/* CallFunction */
CALL[ ]	/* CallFunction */
CALL[ ]	/* CallFunction */
CALL[ ]	/* CallFunction */
SHP[0]	/* ShiftPointByLastPoint */
SHP[0]	/* ShiftPointByLastPoint */
MIRP[11101]	/* MoveIndirectRelPt */
SHP[0]	/* ShiftPointByLastPoint */
DELTAP1[ ]	/* DeltaExceptionP1 */
SRP1[ ]	/* SetRefPoint1 */
SHP[1]	/* ShiftPointByLastPoint */
MDAP[1]	/* MoveDirectAbsPt */
IP[ ]	/* InterpolatePts */
MDAP[1]	/* MoveDirectAbsPt */
MDAP[1]	/* MoveDirectAbsPt */
SVTCA[0]	/* SetFreedomAndProjectionVectorToAxis */
MIAP[1]	/* MoveIndirectAbsPt */
MIRP[01101]	/* MoveIndirectRelPt */
MIAP[1]	/* MoveIndirectAbsPt */
SRP2[ ]	/* SetRefPoint2 */
IP[ ]	/* InterpolatePts */
MDAP[1]	/* MoveDirectAbsPt */
MDAP[1]	/* MoveDirectAbsPt */
SRP2[ ]	/* SetRefPoint2 */
SLOOP[ ]	/* SetLoopVariable */
IP[ ]	/* InterpolatePts */
IUP[1]	/* InterpolateUntPts */
IUP[0]	/* InterpolateUntPts */
DELTAP1[ ]	/* DeltaExceptionP1 */";
};
width = 611;
},
{
layerId = "4BA93484-EEB5-4B02-B3A2-B396B531A6AD";
shapes = (
{
closed = 1;
nodes = (
(412,361,l),
(412,464,l),
(35,273,l),
(35,170,l)
);
},
{
closed = 1;
nodes = (
(590,0,l),
(590,113,l),
(246,113,l),
(246,690,l),
(104,690,l),
(104,0,l)
);
}
);
userData = {
assembly = "NPUSHB[ ]	/* 46 values pushed */
59 11 75 10 90 10 122 10 4 2 11 5 8 4 9 3 9 9 1 6 3 12 53 1 8 10 3 10 0 0 15 15 15 1 8 11 20 5 3 2 10 16 16 2 85 2 
PUSHW[ ]	/* 1 value pushed */
-4 
PUSHB[ ]	/* 5 values pushed */
11 11 2 85 2 
PUSHW[ ]	/* 1 value pushed */
-38 
NPUSHB[ ]	/* 11 values pushed */
15 15 2 85 2 8 9 9 2 85 2 
PUSHW[ ]	/* 1 value pushed */
-18 
PUSHB[ ]	/* 5 values pushed */
12 12 2 85 2 
PUSHW[ ]	/* 1 value pushed */
-22 
PUSHB[ ]	/* 5 values pushed */
13 13 2 85 2 
PUSHW[ ]	/* 1 value pushed */
-24 
PUSHB[ ]	/* 5 values pushed */
15 15 6 85 2 
PUSHW[ ]	/* 1 value pushed */
-20 
PUSHB[ ]	/* 5 values pushed */
13 13 6 85 2 
PUSHW[ ]	/* 1 value pushed */
-22 
PUSHB[ ]	/* 5 values pushed */
12 12 6 85 2 
PUSHW[ ]	/* 1 value pushed */
-6 
PUSHB[ ]	/* 7 values pushed */
9 9 6 85 2 108 14 
SRP0[ ]	/* SetRefPoint0 */
MIRP[10110]	/* MoveIndirectRelPt */
CALL[ ]	/* CallFunction */
CALL[ ]	/* CallFunction */
CALL[ ]	/* CallFunction */
CALL[ ]	/* CallFunction */
CALL[ ]	/* CallFunction */
CALL[ ]	/* CallFunction */
CALL[ ]	/* CallFunction */
CALL[ ]	/* CallFunction */
CALL[ ]	/* CallFunction */
CALL[ ]	/* CallFunction */
SHP[0]	/* ShiftPointByLastPoint */
SHP[0]	/* ShiftPointByLastPoint */
MIRP[11101]	/* MoveIndirectRelPt */
SHP[0]	/* ShiftPointByLastPoint */
DELTAP1[ ]	/* DeltaExceptionP1 */
SRP1[ ]	/* SetRefPoint1 */
SHP[1]	/* ShiftPointByLastPoint */
MDAP[1]	/* MoveDirectAbsPt */
IP[ ]	/* InterpolatePts */
MDAP[1]	/* MoveDirectAbsPt */
MDAP[1]	/* MoveDirectAbsPt */
SVTCA[0]	/* SetFreedomAndProjectionVectorToAxis */
MIAP[1]	/* MoveIndirectAbsPt */
MIRP[01101]	/* MoveIndirectRelPt */
MIAP[1]	/* MoveIndirectAbsPt */
SRP2[ ]	/* SetRefPoint2 */
IP[ ]	/* InterpolatePts */
MDAP[1]	/* MoveDirectAbsPt */
MDAP[1]	/* MoveDirectAbsPt */
SRP2[ ]	/* SetRefPoint2 */
SLOOP[ ]	/* SetLoopVariable */
IP[ ]	/* InterpolatePts */
IUP[1]	/* InterpolateUntPts */
IUP[0]	/* InterpolateUntPts */
DELTAP1[ ]	/* DeltaExceptionP1 */";
};
width = 611;
}
);
note = Lslash;
unicode = 321;
},
{
color = 4;
glyphname = M;
kernLeft = H;
kernRight = H;
lastChange = "2024-09-11 12:47:21 +0000";
layers = (
{
layerId = "E307D395-0405-4E21-BEF1-246ADCA736E4";
shapes = (
{
closed = 1;
nodes = (
(167,0,l),
(167,643,l),
(179,643,l),
(434,0,l),
(487,0,l),
(742,643,l),
(753,643,l),
(753,0,l),
(817,0,l),
(817,690,l),
(700,690,l),
(467,108,l),
(456,108,l),
(223,690,l),
(105,690,l),
(105,0,l)
);
}
);
width = 922;
},
{
layerId = "4BA93484-EEB5-4B02-B3A2-B396B531A6AD";
shapes = (
{
closed = 1;
nodes = (
(213,0,l),
(213,585,l),
(233,585,l),
(395,0,l),
(524,0,l),
(686,579,l),
(705,579,l),
(705,0,l),
(848,0,l),
(848,690,l),
(602,690,l),
(471,218,l),
(452,218,l),
(320,690,l),
(75,690,l),
(75,0,l)
);
}
);
width = 922;
}
);
unicode = 77;
},
{
color = 4;
glyphname = N;
kernLeft = H;
kernRight = H;
lastChange = "2024-09-11 12:47:21 +0000";
layers = (
{
anchors = (
{
name = top;
pos = (352,690);
}
);
layerId = "E307D395-0405-4E21-BEF1-246ADCA736E4";
shapes = (
{
closed = 1;
nodes = (
(167,0,l),
(167,502,ls),
(167,533,o),
(167,565,o),
(163,628,c),
(174,628,l),
(542,0,l),
(599,0,l),
(599,690,l),
(537,690,l),
(537,267,ls),
(537,236,o),
(537,204,o),
(541,141,c),
(530,141,l),
(202,690,l),
(105,690,l),
(105,0,l)
);
}
);
width = 704;
},
{
anchors = (
{
name = top;
pos = (352,690);
}
);
layerId = "4BA93484-EEB5-4B02-B3A2-B396B531A6AD";
shapes = (
{
closed = 1;
nodes = (
(213,0,l),
(213,372,ls),
(213,403,o),
(213,435,o),
(210,498,c),
(229,498,l),
(497,0,l),
(630,0,l),
(630,690,l),
(491,690,l),
(491,405,ls),
(491,374,o),
(491,342,o),
(494,279,c),
(475,279,l),
(247,690,l),
(75,690,l),
(75,0,l)
);
}
);
width = 704;
}
);
unicode = 78;
},
{
color = 4;
glyphname = O;
kernLeft = O;
kernRight = O;
lastChange = "2024-09-11 12:47:21 +0000";
layers = (
{
anchors = (
{
name = top;
pos = (361,690);
}
);
layerId = "E307D395-0405-4E21-BEF1-246ADCA736E4";
shapes = (
{
closed = 1;
nodes = (
(551,-10,o),
(660,112,o),
(660,345,cs),
(660,578,o),
(551,700,o),
(361,700,cs),
(171,700,o),
(62,578,o),
(62,345,cs),
(62,112,o),
(171,-10,o),
(361,-10,cs)
);
},
{
closed = 1;
nodes = (
(204,47,o),
(130,131,o),
(130,312,cs),
(130,378,ls),
(130,559,o),
(204,643,o),
(361,643,cs),
(517,643,o),
(592,559,o),
(592,378,cs),
(592,312,ls),
(592,131,o),
(517,47,o),
(361,47,cs)
);
}
);
width = 722;
},
{
anchors = (
{
name = top;
pos = (361,690);
}
);
layerId = "4BA93484-EEB5-4B02-B3A2-B396B531A6AD";
shapes = (
{
closed = 1;
nodes = (
(564,-10,o),
(680,112,o),
(680,345,cs),
(680,578,o),
(564,700,o),
(361,700,cs),
(158,700,o),
(42,578,o),
(42,345,cs),
(42,112,o),
(158,-10,o),
(361,-10,cs)
);
},
{
closed = 1;
nodes = (
(244,100,o),
(191,162,o),
(191,299,cs),
(191,391,ls),
(191,528,o),
(244,590,o),
(361,590,cs),
(477,590,o),
(530,528,o),
(530,391,cs),
(530,299,ls),
(530,162,o),
(477,100,o),
(361,100,cs)
);
}
);
width = 722;
}
);
unicode = 79;
userData = {
KernOnName = O;
};
},
{
color = 4;
glyphname = Oslash;
kernLeft = O;
kernRight = O;
lastChange = "2024-09-11 12:47:21 +0000";
layers = (
{
anchors = (
{
name = top;
pos = (365,690);
}
);
layerId = "E307D395-0405-4E21-BEF1-246ADCA736E4";
shapes = (
{
closed = 1;
nodes = (
(555,-10,o),
(664,112,o),
(664,345,cs),
(664,578,o),
(555,700,o),
(365,700,cs),
(175,700,o),
(66,578,o),
(66,345,cs),
(66,112,o),
(175,-10,o),
(365,-10,cs)
);
},
{
closed = 1;
nodes = (
(208,47,o),
(134,131,o),
(134,312,cs),
(134,378,ls),
(134,559,o),
(208,643,o),
(365,643,cs),
(521,643,o),
(596,559,o),
(596,378,cs),
(596,312,ls),
(596,131,o),
(521,47,o),
(365,47,cs)
);
},
{
closed = 1;
nodes = (
(114,-30,l),
(188,66,l),
(191,66,l),
(583,593,l),
(586,593,l),
(680,720,l),
(616,720,l),
(542,624,l),
(539,624,l),
(147,97,l),
(144,97,l),
(49,-30,l)
);
}
);
userData = {
assembly = "NPUSHB[ ]	/* 118 values pushed */
2 3 0 11 10 13 12 18 15 26 5 28 17 3 25 13 31 18 31 26 21 28 85 2 84 4 90 8 89 13 89 17 91 19 80 23 85 28 121 42 20 11 9 3 24 6 27 31 10 31 11 17 24 22 27 38 9 39 47 117 3 127 9 127 10 127 11 127 12 121 18 112 24 112 25 112 26 112 27 19 6 2 42 47 30 46 4 50 33 52 12 9 24 27 4 6 21 2 50 52 6 10 42 47 30 46 4 39 43 21 0 12 9 24 27 4 15 0 
PUSHW[ ]	/* 1 value pushed */
-4 
PUSHB[ ]	/* 5 values pushed */
11 11 2 85 0 
PUSHW[ ]	/* 1 value pushed */
-26 
PUSHB[ ]	/* 5 values pushed */
9 9 2 85 0 
PUSHW[ ]	/* 1 value pushed */
-30 
PUSHB[ ]	/* 5 values pushed */
12 12 2 85 0 
PUSHW[ ]	/* 1 value pushed */
-16 
NPUSHB[ ]	/* 40 values pushed */
13 13 2 85 0 115 57 15 57 1 15 57 31 57 63 57 3 39 21 15 18 11 11 2 85 15 22 9 9 2 85 15 6 12 12 2 85 15 104 56 
SRP0[ ]	/* SetRefPoint0 */
MIRP[10110]	/* MoveIndirectRelPt */
CALL[ ]	/* CallFunction */
CALL[ ]	/* CallFunction */
CALL[ ]	/* CallFunction */
MIRP[01101]	/* MoveIndirectRelPt */
DELTAP1[ ]	/* DeltaExceptionP1 */
DELTAP1[ ]	/* DeltaExceptionP1 */
SRP0[ ]	/* SetRefPoint0 */
MIRP[00100]	/* MoveIndirectRelPt */
CALL[ ]	/* CallFunction */
CALL[ ]	/* CallFunction */
CALL[ ]	/* CallFunction */
CALL[ ]	/* CallFunction */
SRP1[ ]	/* SetRefPoint1 */
SLOOP[ ]	/* SetLoopVariable */
IP[ ]	/* InterpolatePts */
SRP0[ ]	/* SetRefPoint0 */
MIRP[01101]	/* MoveIndirectRelPt */
SRP1[ ]	/* SetRefPoint1 */
SLOOP[ ]	/* SetLoopVariable */
IP[ ]	/* InterpolatePts */
SVTCA[0]	/* SetFreedomAndProjectionVectorToAxis */
MIAP[1]	/* MoveIndirectAbsPt */
MIRP[01101]	/* MoveIndirectRelPt */
MIAP[1]	/* MoveIndirectAbsPt */
SRP2[ ]	/* SetRefPoint2 */
SLOOP[ ]	/* SetLoopVariable */
IP[ ]	/* InterpolatePts */
MIRP[11101]	/* MoveIndirectRelPt */
SRP1[ ]	/* SetRefPoint1 */
SLOOP[ ]	/* SetLoopVariable */
IP[ ]	/* InterpolatePts */
RS[ ]	/* ReadStore */
EQ[ ]	/* Equal */
IF[ ]	/* If */
MPPEM[ ]	/* MeasurePixelPerEm */
PUSHB[ ]	/* 1 value pushed */
10 
LTEQ[ ]	/* LessThenOrEqual */
IF[ ]	/* If */
NPUSHB[ ]	/* 9 values pushed */
6 10 15 26 22 26 3 26 10 
MDAP[0]	/* MoveDirectAbsPt */
MDAP[0]	/* MoveDirectAbsPt */
DELTAP1[ ]	/* DeltaExceptionP1 */
EIF[ ]	/* EndIf */
EIF[ ]	/* EndIf */
IUP[1]	/* InterpolateUntPts */
IUP[0]	/* InterpolateUntPts */
DELTAP1[ ]	/* DeltaExceptionP1 */
SVTCA[1]	/* SetFreedomAndProjectionVectorToAxis */
DELTAP1[ ]	/* DeltaExceptionP1 */";
};
width = 729;
},
{
anchors = (
{
name = top;
pos = (365,690);
}
);
layerId = "4BA93484-EEB5-4B02-B3A2-B396B531A6AD";
shapes = (
{
closed = 1;
nodes = (
(568,-10,o),
(684,112,o),
(684,345,cs),
(684,578,o),
(568,700,o),
(365,700,cs),
(162,700,o),
(46,578,o),
(46,345,cs),
(46,112,o),
(162,-10,o),
(365,-10,cs)
);
},
{
closed = 1;
nodes = (
(248,99,o),
(195,162,o),
(195,299,cs),
(195,391,ls),
(195,528,o),
(248,591,o),
(365,591,cs),
(482,591,o),
(535,528,o),
(535,391,cs),
(535,299,ls),
(535,162,o),
(482,99,o),
(365,99,cs)
);
},
{
closed = 1;
nodes = (
(136,-30,l),
(213,70,l),
(219,70,l),
(579,573,l),
(586,573,l),
(697,720,l),
(593,720,l),
(518,621,l),
(511,621,l),
(151,118,l),
(144,118,l),
(33,-30,l)
);
}
);
userData = {
assembly = "NPUSHB[ ]	/* 118 values pushed */
2 3 0 11 10 13 12 18 15 26 5 28 17 3 25 13 31 18 31 26 21 28 85 2 84 4 90 8 89 13 89 17 91 19 80 23 85 28 121 42 20 11 9 3 24 6 27 31 10 31 11 17 24 22 27 38 9 39 47 117 3 127 9 127 10 127 11 127 12 121 18 112 24 112 25 112 26 112 27 19 6 2 42 47 30 46 4 50 33 52 12 9 24 27 4 6 21 2 50 52 6 10 42 47 30 46 4 39 43 21 0 12 9 24 27 4 15 0 
PUSHW[ ]	/* 1 value pushed */
-4 
PUSHB[ ]	/* 5 values pushed */
11 11 2 85 0 
PUSHW[ ]	/* 1 value pushed */
-26 
PUSHB[ ]	/* 5 values pushed */
9 9 2 85 0 
PUSHW[ ]	/* 1 value pushed */
-30 
PUSHB[ ]	/* 5 values pushed */
12 12 2 85 0 
PUSHW[ ]	/* 1 value pushed */
-16 
NPUSHB[ ]	/* 40 values pushed */
13 13 2 85 0 115 57 15 57 1 15 57 31 57 63 57 3 39 21 15 18 11 11 2 85 15 22 9 9 2 85 15 6 12 12 2 85 15 104 56 
SRP0[ ]	/* SetRefPoint0 */
MIRP[10110]	/* MoveIndirectRelPt */
CALL[ ]	/* CallFunction */
CALL[ ]	/* CallFunction */
CALL[ ]	/* CallFunction */
MIRP[01101]	/* MoveIndirectRelPt */
DELTAP1[ ]	/* DeltaExceptionP1 */
DELTAP1[ ]	/* DeltaExceptionP1 */
SRP0[ ]	/* SetRefPoint0 */
MIRP[00100]	/* MoveIndirectRelPt */
CALL[ ]	/* CallFunction */
CALL[ ]	/* CallFunction */
CALL[ ]	/* CallFunction */
CALL[ ]	/* CallFunction */
SRP1[ ]	/* SetRefPoint1 */
SLOOP[ ]	/* SetLoopVariable */
IP[ ]	/* InterpolatePts */
SRP0[ ]	/* SetRefPoint0 */
MIRP[01101]	/* MoveIndirectRelPt */
SRP1[ ]	/* SetRefPoint1 */
SLOOP[ ]	/* SetLoopVariable */
IP[ ]	/* InterpolatePts */
SVTCA[0]	/* SetFreedomAndProjectionVectorToAxis */
MIAP[1]	/* MoveIndirectAbsPt */
MIRP[01101]	/* MoveIndirectRelPt */
MIAP[1]	/* MoveIndirectAbsPt */
SRP2[ ]	/* SetRefPoint2 */
SLOOP[ ]	/* SetLoopVariable */
IP[ ]	/* InterpolatePts */
MIRP[11101]	/* MoveIndirectRelPt */
SRP1[ ]	/* SetRefPoint1 */
SLOOP[ ]	/* SetLoopVariable */
IP[ ]	/* InterpolatePts */
RS[ ]	/* ReadStore */
EQ[ ]	/* Equal */
IF[ ]	/* If */
MPPEM[ ]	/* MeasurePixelPerEm */
PUSHB[ ]	/* 1 value pushed */
10 
LTEQ[ ]	/* LessThenOrEqual */
IF[ ]	/* If */
NPUSHB[ ]	/* 9 values pushed */
6 10 15 26 22 26 3 26 10 
MDAP[0]	/* MoveDirectAbsPt */
MDAP[0]	/* MoveDirectAbsPt */
DELTAP1[ ]	/* DeltaExceptionP1 */
EIF[ ]	/* EndIf */
EIF[ ]	/* EndIf */
IUP[1]	/* InterpolateUntPts */
IUP[0]	/* InterpolateUntPts */
DELTAP1[ ]	/* DeltaExceptionP1 */
SVTCA[1]	/* SetFreedomAndProjectionVectorToAxis */
DELTAP1[ ]	/* DeltaExceptionP1 */";
};
width = 729;
}
);
note = Oslash;
unicode = 216;
},
{
color = 4;
glyphname = OE;
kernLeft = O;
kernRight = E;
lastChange = "2024-09-11 12:47:21 +0000";
layers = (
{
anchors = (
{
name = ogonek;
pos = (971,0);
},
{
name = top;
pos = (750,690);
}
);
layerId = "E307D395-0405-4E21-BEF1-246ADCA736E4";
shapes = (
{
closed = 1;
nodes = (
(572,0,l),
(572,57,l),
(360,57,ls),
(206,57,o),
(132,131,o),
(132,312,cs),
(132,378,ls),
(132,559,o),
(206,633,o),
(360,633,cs),
(572,633,l),
(572,690,l),
(354,690,ls),
(162,690,o),
(64,582,o),
(64,345,cs),
(64,108,o),
(162,0,o),
(354,0,cs)
);
},
{
closed = 1;
nodes = (
(971,0,l),
(971,57,l),
(582,57,l),
(582,324,l),
(891,324,l),
(891,380,l),
(582,380,l),
(582,633,l),
(967,633,l),
(967,690,l),
(518,690,l),
(518,0,l)
);
}
);
userData = {
assembly = "NPUSHB[ ]	/* 26 values pushed */
0 28 0 34 48 28 48 34 64 28 64 34 114 4 114 10 114 28 116 29 114 35 11 20 53 17 
PUSHW[ ]	/* 1 value pushed */
-64 
NPUSHB[ ]	/* 35 values pushed */
15 15 2 85 17 17 1 24 52 16 53 13 3 23 52 21 53 1 8 17 20 4 12 12 2 85 20 20 23 4 16 16 2 85 23 
PUSHW[ ]	/* 1 value pushed */
-18 
PUSHB[ ]	/* 5 values pushed */
15 15 2 85 23 
PUSHW[ ]	/* 1 value pushed */
-10 
NPUSHB[ ]	/* 11 values pushed */
13 13 2 85 23 18 12 12 2 85 23 
PUSHW[ ]	/* 1 value pushed */
-6 
PUSHB[ ]	/* 5 values pushed */
11 11 2 85 23 
PUSHW[ ]	/* 1 value pushed */
-10 
PUSHB[ ]	/* 5 values pushed */
15 15 6 85 23 
PUSHW[ ]	/* 1 value pushed */
-17 
NPUSHB[ ]	/* 11 values pushed */
13 13 6 85 23 17 12 12 6 85 23 
PUSHW[ ]	/* 1 value pushed */
-5 
NPUSHB[ ]	/* 36 values pushed */
9 9 6 85 23 23 14 18 3 7 0 115 39 31 21 7 18 11 11 2 85 7 22 9 9 2 85 7 6 12 12 2 85 7 104 38 
SRP0[ ]	/* SetRefPoint0 */
MIRP[10110]	/* MoveIndirectRelPt */
CALL[ ]	/* CallFunction */
CALL[ ]	/* CallFunction */
CALL[ ]	/* CallFunction */
MIRP[01101]	/* MoveIndirectRelPt */
SRP0[ ]	/* SetRefPoint0 */
MIRP[00110]	/* MoveIndirectRelPt */
SRP1[ ]	/* SetRefPoint1 */
SLOOP[ ]	/* SetLoopVariable */
IP[ ]	/* InterpolatePts */
MDAP[1]	/* MoveDirectAbsPt */
CALL[ ]	/* CallFunction */
CALL[ ]	/* CallFunction */
CALL[ ]	/* CallFunction */
CALL[ ]	/* CallFunction */
CALL[ ]	/* CallFunction */
CALL[ ]	/* CallFunction */
CALL[ ]	/* CallFunction */
CALL[ ]	/* CallFunction */
CALL[ ]	/* CallFunction */
MIRP[11101]	/* MoveIndirectRelPt */
CALL[ ]	/* CallFunction */
SHP[0]	/* ShiftPointByLastPoint */
SVTCA[0]	/* SetFreedomAndProjectionVectorToAxis */
MIAP[1]	/* MoveIndirectAbsPt */
MIRP[01101]	/* MoveIndirectRelPt */
MIRP[01101]	/* MoveIndirectRelPt */
MIAP[1]	/* MoveIndirectAbsPt */
MIRP[01101]	/* MoveIndirectRelPt */
MIRP[01101]	/* MoveIndirectRelPt */
SRP2[ ]	/* SetRefPoint2 */
IP[ ]	/* InterpolatePts */
MDAP[1]	/* MoveDirectAbsPt */
CALL[ ]	/* CallFunction */
MIRP[01101]	/* MoveIndirectRelPt */
IUP[1]	/* InterpolateUntPts */
IUP[0]	/* InterpolateUntPts */
SVTCA[1]	/* SetFreedomAndProjectionVectorToAxis */
DELTAP1[ ]	/* DeltaExceptionP1 */";
};
width = 1021;
},
{
anchors = (
{
name = ogonek;
pos = (986,0);
},
{
name = top;
pos = (749,690);
}
);
layerId = "4BA93484-EEB5-4B02-B3A2-B396B531A6AD";
shapes = (
{
closed = 1;
nodes = (
(572,0,l),
(572,113,l),
(359,113,ls),
(245,113,o),
(193,165,o),
(193,301,cs),
(193,389,ls),
(193,525,o),
(245,577,o),
(359,577,cs),
(572,577,l),
(572,690,l),
(349,690,ls),
(146,690,o),
(43,582,o),
(43,345,cs),
(43,109,o),
(146,0,o),
(349,0,cs)
);
},
{
closed = 1;
nodes = (
(986,0,l),
(986,113,l),
(629,113,l),
(629,298,l),
(900,298,l),
(900,406,l),
(629,406,l),
(629,577,l),
(982,577,l),
(982,690,l),
(486,690,l),
(486,0,l)
);
}
);
userData = {
assembly = "NPUSHB[ ]	/* 26 values pushed */
0 28 0 34 48 28 48 34 64 28 64 34 114 4 114 10 114 28 116 29 114 35 11 20 53 17 
PUSHW[ ]	/* 1 value pushed */
-64 
NPUSHB[ ]	/* 35 values pushed */
15 15 2 85 17 17 1 24 52 16 53 13 3 23 52 21 53 1 8 17 20 4 12 12 2 85 20 20 23 4 16 16 2 85 23 
PUSHW[ ]	/* 1 value pushed */
-18 
PUSHB[ ]	/* 5 values pushed */
15 15 2 85 23 
PUSHW[ ]	/* 1 value pushed */
-10 
NPUSHB[ ]	/* 11 values pushed */
13 13 2 85 23 18 12 12 2 85 23 
PUSHW[ ]	/* 1 value pushed */
-6 
PUSHB[ ]	/* 5 values pushed */
11 11 2 85 23 
PUSHW[ ]	/* 1 value pushed */
-10 
PUSHB[ ]	/* 5 values pushed */
15 15 6 85 23 
PUSHW[ ]	/* 1 value pushed */
-17 
NPUSHB[ ]	/* 11 values pushed */
13 13 6 85 23 17 12 12 6 85 23 
PUSHW[ ]	/* 1 value pushed */
-5 
NPUSHB[ ]	/* 36 values pushed */
9 9 6 85 23 23 14 18 3 7 0 115 39 31 21 7 18 11 11 2 85 7 22 9 9 2 85 7 6 12 12 2 85 7 104 38 
SRP0[ ]	/* SetRefPoint0 */
MIRP[10110]	/* MoveIndirectRelPt */
CALL[ ]	/* CallFunction */
CALL[ ]	/* CallFunction */
CALL[ ]	/* CallFunction */
MIRP[01101]	/* MoveIndirectRelPt */
SRP0[ ]	/* SetRefPoint0 */
MIRP[00110]	/* MoveIndirectRelPt */
SRP1[ ]	/* SetRefPoint1 */
SLOOP[ ]	/* SetLoopVariable */
IP[ ]	/* InterpolatePts */
MDAP[1]	/* MoveDirectAbsPt */
CALL[ ]	/* CallFunction */
CALL[ ]	/* CallFunction */
CALL[ ]	/* CallFunction */
CALL[ ]	/* CallFunction */
CALL[ ]	/* CallFunction */
CALL[ ]	/* CallFunction */
CALL[ ]	/* CallFunction */
CALL[ ]	/* CallFunction */
CALL[ ]	/* CallFunction */
MIRP[11101]	/* MoveIndirectRelPt */
CALL[ ]	/* CallFunction */
SHP[0]	/* ShiftPointByLastPoint */
SVTCA[0]	/* SetFreedomAndProjectionVectorToAxis */
MIAP[1]	/* MoveIndirectAbsPt */
MIRP[01101]	/* MoveIndirectRelPt */
MIRP[01101]	/* MoveIndirectRelPt */
MIAP[1]	/* MoveIndirectAbsPt */
MIRP[01101]	/* MoveIndirectRelPt */
MIRP[01101]	/* MoveIndirectRelPt */
SRP2[ ]	/* SetRefPoint2 */
IP[ ]	/* InterpolatePts */
MDAP[1]	/* MoveDirectAbsPt */
CALL[ ]	/* CallFunction */
MIRP[01101]	/* MoveIndirectRelPt */
IUP[1]	/* InterpolateUntPts */
IUP[0]	/* InterpolateUntPts */
SVTCA[1]	/* SetFreedomAndProjectionVectorToAxis */
DELTAP1[ ]	/* DeltaExceptionP1 */";
};
width = 1021;
}
);
note = OE;
unicode = 338;
},
{
color = 4;
glyphname = P;
kernLeft = H;
lastChange = "2024-09-11 12:47:21 +0000";
layers = (
{
layerId = "E307D395-0405-4E21-BEF1-246ADCA736E4";
shapes = (
{
closed = 1;
nodes = (
(170,0,l),
(170,291,l),
(392,291,ls),
(511,291,o),
(582,366,o),
(582,489,cs),
(582,615,o),
(511,690,o),
(392,690,cs),
(106,690,l),
(106,0,l)
);
},
{
closed = 1;
nodes = (
(170,346,l),
(170,633,l),
(386,633,ls),
(471,633,o),
(516,588,o),
(516,501,cs),
(516,478,ls),
(516,391,o),
(471,346,o),
(386,346,cs)
);
}
);
width = 630;
},
{
layerId = "4BA93484-EEB5-4B02-B3A2-B396B531A6AD";
shapes = (
{
closed = 1;
nodes = (
(216,0,l),
(216,260,l),
(383,260,ls),
(528,260,o),
(604,340,o),
(604,473,cs),
(604,612,o),
(527,690,o),
(381,690,cs),
(74,690,l),
(74,0,l)
);
},
{
closed = 1;
nodes = (
(216,366,l),
(216,581,l),
(371,581,ls),
(430,581,o),
(458,551,o),
(458,489,cs),
(458,458,ls),
(458,395,o),
(430,366,o),
(371,366,cs)
);
}
);
width = 630;
}
);
unicode = 80;
},
{
color = 4;
glyphname = Thorn;
kernLeft = H;
lastChange = "2024-09-11 12:47:21 +0000";
layers = (
{
layerId = "E307D395-0405-4E21-BEF1-246ADCA736E4";
shapes = (
{
closed = 1;
nodes = (
(171,0,l),
(171,690,l),
(107,690,l),
(107,0,l)
);
},
{
closed = 1;
nodes = (
(393,153,ls),
(512,153,o),
(583,229,o),
(583,352,cs),
(583,477,o),
(512,551,o),
(393,551,cs),
(139,551,l),
(139,496,l),
(387,496,ls),
(472,496,o),
(516,450,o),
(516,364,cs),
(516,340,ls),
(516,254,o),
(472,208,o),
(387,208,cs),
(139,208,l),
(139,153,l)
);
}
);
userData = {
assembly = "NPUSHB[ ]	/* 38 values pushed */
57 31 73 31 85 17 128 16 128 17 5 27 52 0 7 1 7 26 52 32 12 1 12 12 7 9 10 3 9 8 15 35 31 35 2 19 21 0 
PUSHW[ ]	/* 1 value pushed */
-18 
PUSHB[ ]	/* 5 values pushed */
11 11 2 85 0 
PUSHW[ ]	/* 1 value pushed */
-8 
NPUSHB[ ]	/* 11 values pushed */
9 9 2 85 0 12 12 12 2 85 0 
PUSHW[ ]	/* 1 value pushed */
-16 
NPUSHB[ ]	/* 33 values pushed */
13 13 2 85 32 0 48 0 64 0 112 0 4 0 111 35 15 35 63 35 2 12 27 7 20 0 9 14 16 16 2 85 9 
PUSHW[ ]	/* 1 value pushed */
-4 
PUSHB[ ]	/* 5 values pushed */
11 11 2 85 9 
PUSHW[ ]	/* 1 value pushed */
-38 
NPUSHB[ ]	/* 11 values pushed */
15 15 2 85 9 8 9 9 2 85 9 
PUSHW[ ]	/* 1 value pushed */
-18 
PUSHB[ ]	/* 5 values pushed */
12 12 2 85 9 
PUSHW[ ]	/* 1 value pushed */
-22 
PUSHB[ ]	/* 5 values pushed */
13 13 2 85 9 
PUSHW[ ]	/* 1 value pushed */
-30 
PUSHB[ ]	/* 5 values pushed */
15 15 6 85 9 
PUSHW[ ]	/* 1 value pushed */
-24 
PUSHB[ ]	/* 5 values pushed */
13 13 6 85 9 
PUSHW[ ]	/* 1 value pushed */
-28 
PUSHB[ ]	/* 5 values pushed */
12 12 6 85 9 
PUSHW[ ]	/* 1 value pushed */
-14 
PUSHB[ ]	/* 7 values pushed */
9 9 6 85 9 108 34 
SRP0[ ]	/* SetRefPoint0 */
MIRP[10110]	/* MoveIndirectRelPt */
CALL[ ]	/* CallFunction */
CALL[ ]	/* CallFunction */
CALL[ ]	/* CallFunction */
CALL[ ]	/* CallFunction */
CALL[ ]	/* CallFunction */
CALL[ ]	/* CallFunction */
CALL[ ]	/* CallFunction */
CALL[ ]	/* CallFunction */
CALL[ ]	/* CallFunction */
CALL[ ]	/* CallFunction */
SHP[0]	/* ShiftPointByLastPoint */
MIRP[11101]	/* MoveIndirectRelPt */
SHP[0]	/* ShiftPointByLastPoint */
SHP[0]	/* ShiftPointByLastPoint */
DELTAP1[ ]	/* DeltaExceptionP1 */
SRP0[ ]	/* SetRefPoint0 */
MIRP[10110]	/* MoveIndirectRelPt */
DELTAP1[ ]	/* DeltaExceptionP1 */
CALL[ ]	/* CallFunction */
CALL[ ]	/* CallFunction */
CALL[ ]	/* CallFunction */
CALL[ ]	/* CallFunction */
MIRP[01101]	/* MoveIndirectRelPt */
DELTAP1[ ]	/* DeltaExceptionP1 */
SVTCA[0]	/* SetFreedomAndProjectionVectorToAxis */
MIAP[1]	/* MoveIndirectAbsPt */
MIAP[1]	/* MoveIndirectAbsPt */
SRP2[ ]	/* SetRefPoint2 */
IP[ ]	/* InterpolatePts */
IP[ ]	/* InterpolatePts */
MDAP[1]	/* MoveDirectAbsPt */
DELTAP1[ ]	/* DeltaExceptionP1 */
MIRP[01101]	/* MoveIndirectRelPt */
MDAP[1]	/* MoveDirectAbsPt */
DELTAP1[ ]	/* DeltaExceptionP1 */
MIRP[01101]	/* MoveIndirectRelPt */
IUP[1]	/* InterpolateUntPts */
IUP[0]	/* InterpolateUntPts */
SVTCA[1]	/* SetFreedomAndProjectionVectorToAxis */
DELTAP1[ ]	/* DeltaExceptionP1 */";
};
width = 640;
},
{
layerId = "4BA93484-EEB5-4B02-B3A2-B396B531A6AD";
shapes = (
{
closed = 1;
nodes = (
(216,0,l),
(216,690,l),
(74,690,l),
(74,0,l)
);
},
{
closed = 1;
nodes = (
(382,139,ls),
(527,139,o),
(604,217,o),
(604,352,cs),
(604,493,o),
(527,565,o),
(381,565,cs),
(155,565,l),
(155,459,l),
(370,459,ls),
(430,459,o),
(458,430,o),
(458,368,cs),
(458,336,ls),
(458,274,o),
(430,245,o),
(370,245,cs),
(155,245,l),
(155,139,l)
);
}
);
userData = {
assembly = "NPUSHB[ ]	/* 38 values pushed */
57 31 73 31 85 17 128 16 128 17 5 27 52 0 7 1 7 26 52 32 12 1 12 12 7 9 10 3 9 8 15 35 31 35 2 19 21 0 
PUSHW[ ]	/* 1 value pushed */
-18 
PUSHB[ ]	/* 5 values pushed */
11 11 2 85 0 
PUSHW[ ]	/* 1 value pushed */
-8 
NPUSHB[ ]	/* 11 values pushed */
9 9 2 85 0 12 12 12 2 85 0 
PUSHW[ ]	/* 1 value pushed */
-16 
NPUSHB[ ]	/* 33 values pushed */
13 13 2 85 32 0 48 0 64 0 112 0 4 0 111 35 15 35 63 35 2 12 27 7 20 0 9 14 16 16 2 85 9 
PUSHW[ ]	/* 1 value pushed */
-4 
PUSHB[ ]	/* 5 values pushed */
11 11 2 85 9 
PUSHW[ ]	/* 1 value pushed */
-38 
NPUSHB[ ]	/* 11 values pushed */
15 15 2 85 9 8 9 9 2 85 9 
PUSHW[ ]	/* 1 value pushed */
-18 
PUSHB[ ]	/* 5 values pushed */
12 12 2 85 9 
PUSHW[ ]	/* 1 value pushed */
-22 
PUSHB[ ]	/* 5 values pushed */
13 13 2 85 9 
PUSHW[ ]	/* 1 value pushed */
-30 
PUSHB[ ]	/* 5 values pushed */
15 15 6 85 9 
PUSHW[ ]	/* 1 value pushed */
-24 
PUSHB[ ]	/* 5 values pushed */
13 13 6 85 9 
PUSHW[ ]	/* 1 value pushed */
-28 
PUSHB[ ]	/* 5 values pushed */
12 12 6 85 9 
PUSHW[ ]	/* 1 value pushed */
-14 
PUSHB[ ]	/* 7 values pushed */
9 9 6 85 9 108 34 
SRP0[ ]	/* SetRefPoint0 */
MIRP[10110]	/* MoveIndirectRelPt */
CALL[ ]	/* CallFunction */
CALL[ ]	/* CallFunction */
CALL[ ]	/* CallFunction */
CALL[ ]	/* CallFunction */
CALL[ ]	/* CallFunction */
CALL[ ]	/* CallFunction */
CALL[ ]	/* CallFunction */
CALL[ ]	/* CallFunction */
CALL[ ]	/* CallFunction */
CALL[ ]	/* CallFunction */
SHP[0]	/* ShiftPointByLastPoint */
MIRP[11101]	/* MoveIndirectRelPt */
SHP[0]	/* ShiftPointByLastPoint */
SHP[0]	/* ShiftPointByLastPoint */
DELTAP1[ ]	/* DeltaExceptionP1 */
SRP0[ ]	/* SetRefPoint0 */
MIRP[10110]	/* MoveIndirectRelPt */
DELTAP1[ ]	/* DeltaExceptionP1 */
CALL[ ]	/* CallFunction */
CALL[ ]	/* CallFunction */
CALL[ ]	/* CallFunction */
CALL[ ]	/* CallFunction */
MIRP[01101]	/* MoveIndirectRelPt */
DELTAP1[ ]	/* DeltaExceptionP1 */
SVTCA[0]	/* SetFreedomAndProjectionVectorToAxis */
MIAP[1]	/* MoveIndirectAbsPt */
MIAP[1]	/* MoveIndirectAbsPt */
SRP2[ ]	/* SetRefPoint2 */
IP[ ]	/* InterpolatePts */
IP[ ]	/* InterpolatePts */
MDAP[1]	/* MoveDirectAbsPt */
DELTAP1[ ]	/* DeltaExceptionP1 */
MIRP[01101]	/* MoveIndirectRelPt */
MDAP[1]	/* MoveDirectAbsPt */
DELTAP1[ ]	/* DeltaExceptionP1 */
MIRP[01101]	/* MoveIndirectRelPt */
IUP[1]	/* InterpolateUntPts */
IUP[0]	/* InterpolateUntPts */
SVTCA[1]	/* SetFreedomAndProjectionVectorToAxis */
DELTAP1[ ]	/* DeltaExceptionP1 */";
};
width = 640;
}
);
note = Thorn;
unicode = 222;
},
{
color = 4;
glyphname = Q;
kernLeft = O;
kernRight = O;
lastChange = "2024-09-11 12:47:21 +0000";
layers = (
{
anchors = (
{
name = top;
pos = (361,690);
}
);
layerId = "E307D395-0405-4E21-BEF1-246ADCA736E4";
shapes = (
{
closed = 1;
nodes = (
(551,-10,o),
(660,112,o),
(660,345,cs),
(660,578,o),
(551,700,o),
(361,700,cs),
(171,700,o),
(62,578,o),
(62,345,cs),
(62,112,o),
(171,-10,o),
(361,-10,cs)
);
},
{
closed = 1;
nodes = (
(204,47,o),
(130,131,o),
(130,312,cs),
(130,378,ls),
(130,559,o),
(204,643,o),
(361,643,cs),
(517,643,o),
(592,559,o),
(592,378,cs),
(592,312,ls),
(592,131,o),
(517,47,o),
(361,47,cs)
);
},
{
closed = 1;
nodes = (
(594,-72,l),
(374,303,l),
(313,303,l),
(533,-72,l)
);
}
);
width = 722;
},
{
anchors = (
{
name = top;
pos = (361,690);
}
);
layerId = "4BA93484-EEB5-4B02-B3A2-B396B531A6AD";
shapes = (
{
closed = 1;
nodes = (
(564,-10,o),
(680,112,o),
(680,345,cs),
(680,578,o),
(564,700,o),
(361,700,cs),
(158,700,o),
(42,578,o),
(42,345,cs),
(42,112,o),
(158,-10,o),
(361,-10,cs)
);
},
{
closed = 1;
nodes = (
(244,100,o),
(191,162,o),
(191,299,cs),
(191,391,ls),
(191,528,o),
(244,590,o),
(361,590,cs),
(477,590,o),
(530,528,o),
(530,391,cs),
(530,299,ls),
(530,162,o),
(477,100,o),
(361,100,cs)
);
},
{
closed = 1;
nodes = (
(626,-72,l),
(406,303,l),
(290,303,l),
(510,-72,l)
);
}
);
width = 722;
}
);
unicode = 81;
},
{
color = 4;
glyphname = R;
kernLeft = H;
lastChange = "2024-09-11 12:47:21 +0000";
layers = (
{
layerId = "E307D395-0405-4E21-BEF1-246ADCA736E4";
shapes = (
{
closed = 1;
nodes = (
(172,0,l),
(172,311,l),
(402,311,ls),
(514,311,o),
(583,383,o),
(583,499,cs),
(583,618,o),
(516,690,o),
(401,690,c),
(108,690,l),
(108,0,l)
);
},
{
closed = 1;
nodes = (
(598,0,l),
(377,355,l),
(305,355,l),
(525,0,l)
);
},
{
closed = 1;
nodes = (
(172,366,l),
(172,633,l),
(395,633,ls),
(476,633,o),
(517,591,o),
(517,509,cs),
(517,490,ls),
(517,408,o),
(476,366,o),
(395,366,cs)
);
}
);
width = 649;
},
{
layerId = "4BA93484-EEB5-4B02-B3A2-B396B531A6AD";
shapes = (
{
closed = 1;
nodes = (
(216,0,l),
(216,280,l),
(390,280,ls),
(529,280,o),
(604,360,o),
(604,485,cs),
(604,620,o),
(526,690,o),
(388,690,c),
(74,690,l),
(74,0,l)
);
},
{
closed = 1;
nodes = (
(619,0,l),
(418,354,l),
(260,354,l),
(458,0,l)
);
},
{
closed = 1;
nodes = (
(216,386,l),
(216,581,l),
(378,581,ls),
(432,581,o),
(458,554,o),
(458,497,cs),
(458,470,ls),
(458,413,o),
(432,386,o),
(378,386,cs)
);
}
);
width = 649;
}
);
unicode = 82;
},
{
color = 4;
glyphname = S;
kernLeft = S;
kernRight = S;
lastChange = "2024-09-11 12:47:21 +0000";
layers = (
{
anchors = (
{
name = top;
pos = (317,690);
}
);
layerId = "E307D395-0405-4E21-BEF1-246ADCA736E4";
shapes = (
{
closed = 1;
nodes = (
(491,-10,o),
(585,63,o),
(585,188,cs),
(585,284,o),
(530,335,o),
(409,361,cs),
(264,389,ls),
(168,407,o),
(130,442,o),
(130,504,cs),
(130,510,ls),
(130,595,o),
(201,643,o),
(321,643,cs),
(455,643,o),
(513,576,o),
(513,491,cs),
(513,491,l),
(606,491,l),
(589,370,l),
(589,603,o),
(508,700,o),
(321,700,cs),
(158,700,o),
(65,627,o),
(65,502,cs),
(65,406,o),
(120,354,o),
(239,329,cs),
(384,301,ls),
(482,281,o),
(520,249,o),
(520,186,cs),
(520,180,ls),
(520,95,o),
(448,47,o),
(326,47,cs),
(193,47,o),
(132,112,o),
(132,199,cs),
(132,199,l),
(37,199,l),
(55,320,l),
(55,87,o),
(137,-10,o),
(326,-10,cs)
);
}
);
width = 647;
},
{
anchors = (
{
name = top;
pos = (318,690);
}
);
layerId = "4BA93484-EEB5-4B02-B3A2-B396B531A6AD";
shapes = (
{
closed = 1;
nodes = (
(506,-10,o),
(606,65,o),
(606,201,cs),
(606,306,o),
(549,362,o),
(421,390,cs),
(276,420,ls),
(212,433,o),
(187,455,o),
(187,494,cs),
(187,506,ls),
(187,561,o),
(235,590,o),
(322,590,cs),
(420,590,o),
(458,546,o),
(458,494,cs),
(458,481,l),
(627,481,l),
(608,380,l),
(608,604,o),
(522,700,o),
(322,700,cs),
(143,700,o),
(44,625,o),
(44,490,cs),
(44,385,o),
(100,328,o),
(227,300,cs),
(372,270,ls),
(437,256,o),
(463,235,o),
(463,196,cs),
(463,184,ls),
(463,131,o),
(413,100,o),
(325,100,cs),
(225,100,o),
(187,143,o),
(187,196,cs),
(187,209,l),
(16,209,l),
(35,310,l),
(35,86,o),
(123,-10,o),
(325,-10,cs)
);
}
);
width = 647;
}
);
unicode = 83;
},
{
color = 4;
glyphname = Germandbls;
kernLeft = H;
lastChange = "2024-09-11 12:47:21 +0000";
layers = (
{
layerId = "E307D395-0405-4E21-BEF1-246ADCA736E4";
shapes = (
{
closed = 1;
nodes = (
(172,0,l),
(172,637,l),
(508,637,l),
(318,392,l),
(318,341,l),
(400,341,ls),
(493,341,o),
(542,295,o),
(542,209,cs),
(542,185,ls),
(542,98,o),
(493,53,o),
(400,53,cs),
(267,53,l),
(267,0,l),
(406,0,ls),
(533,0,o),
(608,72,o),
(608,196,cs),
(608,319,o),
(534,391,o),
(409,391,cs),
(352,391,l),
(378,369,l),
(588,637,l),
(588,690,l),
(108,690,l),
(108,0,l)
);
}
);
width = 669;
},
{
layerId = "4BA93484-EEB5-4B02-B3A2-B396B531A6AD";
shapes = (
{
closed = 1;
nodes = (
(215,0,l),
(215,587,l),
(449,587,l),
(326,409,l),
(326,313,l),
(381,313,ls),
(449,313,o),
(482,284,o),
(482,223,cs),
(482,193,ls),
(482,132,o),
(449,103,o),
(381,103,cs),
(279,103,l),
(279,0,l),
(391,0,ls),
(546,0,o),
(628,70,o),
(628,206,cs),
(628,338,o),
(549,408,o),
(400,408,cs),
(368,408,l),
(439,345,l),
(608,587,l),
(608,690,l),
(73,690,l),
(73,0,l)
);
}
);
width = 669;
}
);
unicode = 7838;
},
{
color = 4;
glyphname = T;
lastChange = "2024-09-11 12:47:21 +0000";
layers = (
{
layerId = "E307D395-0405-4E21-BEF1-246ADCA736E4";
shapes = (
{
closed = 1;
nodes = (
(327,0,l),
(327,633,l),
(552,633,l),
(552,690,l),
(39,690,l),
(39,633,l),
(263,633,l),
(263,0,l)
);
}
);
width = 591;
},
{
layerId = "4BA93484-EEB5-4B02-B3A2-B396B531A6AD";
shapes = (
{
closed = 1;
nodes = (
(367,0,l),
(367,577,l),
(572,577,l),
(572,690,l),
(20,690,l),
(20,577,l),
(225,577,l),
(225,0,l)
);
}
);
width = 591;
}
);
unicode = 84;
userData = {
KernOnName = T;
};
},
{
color = 4;
glyphname = U;
kernLeft = U;
kernRight = U;
lastChange = "2024-09-11 12:47:21 +0000";
layers = (
{
anchors = (
{
name = top;
pos = (350,690);
}
);
layerId = "E307D395-0405-4E21-BEF1-246ADCA736E4";
shapes = (
{
closed = 1;
nodes = (
(526,-10,o),
(610,80,o),
(610,253,cs),
(610,690,l),
(545,690,l),
(545,245,ls),
(545,108,o),
(491,47,o),
(352,47,cs),
(213,47,o),
(158,108,o),
(158,245,cs),
(158,690,l),
(94,690,l),
(94,253,ls),
(94,80,o),
(177,-10,o),
(352,-10,cs)
);
}
);
width = 704;
},
{
anchors = (
{
name = top;
pos = (353,690);
}
);
layerId = "4BA93484-EEB5-4B02-B3A2-B396B531A6AD";
shapes = (
{
closed = 1;
nodes = (
(542,-10,o),
(635,88,o),
(635,271,cs),
(635,690,l),
(493,690,l),
(493,251,ls),
(493,147,o),
(454,100,o),
(352,100,cs),
(249,100,o),
(211,147,o),
(211,251,cs),
(211,690,l),
(68,690,l),
(68,271,ls),
(68,88,o),
(162,-10,o),
(352,-10,cs)
);
}
);
width = 704;
}
);
unicode = 85;
},
{
color = 4;
glyphname = V;
lastChange = "2024-09-11 12:47:21 +0000";
layers = (
{
layerId = "E307D395-0405-4E21-BEF1-246ADCA736E4";
shapes = (
{
closed = 1;
nodes = (
(367,0,l),
(630,690,l),
(565,690,l),
(337,81,l),
(326,81,l),
(98,690,l),
(31,690,l),
(294,0,l)
);
}
);
width = 662;
},
{
layerId = "4BA93484-EEB5-4B02-B3A2-B396B531A6AD";
shapes = (
{
closed = 1;
nodes = (
(412,0,l),
(650,690,l),
(512,690,l),
(343,171,l),
(324,171,l),
(156,690,l),
(12,690,l),
(249,0,l)
);
}
);
width = 662;
}
);
unicode = 86;
},
{
color = 4;
glyphname = W;
lastChange = "2024-09-11 12:47:21 +0000";
layers = (
{
layerId = "E307D395-0405-4E21-BEF1-246ADCA736E4";
shapes = (
{
closed = 1;
nodes = (
(309,0,l),
(479,577,l),
(490,577,l),
(658,0,l),
(730,0,l),
(931,690,l),
(868,690,l),
(699,81,l),
(688,81,l),
(511,690,l),
(458,690,l),
(281,81,l),
(270,81,l),
(101,690,l),
(36,690,l),
(237,0,l)
);
}
);
width = 967;
},
{
layerId = "4BA93484-EEB5-4B02-B3A2-B396B531A6AD";
shapes = (
{
closed = 1;
nodes = (
(352,0,l),
(474,481,l),
(493,481,l),
(615,0,l),
(776,0,l),
(951,690,l),
(817,690,l),
(699,171,l),
(680,171,l),
(552,690,l),
(421,690,l),
(293,171,l),
(274,171,l),
(156,690,l),
(16,690,l),
(191,0,l)
);
}
);
width = 967;
}
);
unicode = 87;
},
{
color = 4;
glyphname = X;
lastChange = "2024-09-11 12:47:21 +0000";
layers = (
{
layerId = "E307D395-0405-4E21-BEF1-246ADCA736E4";
shapes = (
{
closed = 1;
nodes = (
(106,0,l),
(304,315,l),
(315,315,l),
(514,0,l),
(588,0,l),
(346,376,l),
(347,338,l),
(581,690,l),
(509,690,l),
(317,393,l),
(306,393,l),
(115,690,l),
(41,690,l),
(275,338,l),
(276,376,l),
(34,0,l)
);
}
);
width = 622;
},
{
layerId = "4BA93484-EEB5-4B02-B3A2-B396B531A6AD";
shapes = (
{
closed = 1;
nodes = (
(162,0,l),
(298,270,l),
(317,270,l),
(454,0,l),
(611,0,l),
(392,408,l),
(392,329,l),
(604,690,l),
(453,690,l),
(323,438,l),
(304,438,l),
(175,690,l),
(18,690,l),
(230,329,l),
(230,408,l),
(11,0,l)
);
}
);
width = 622;
}
);
unicode = 88;
},
{
color = 4;
glyphname = Y;
kernLeft = Y;
kernRight = Y;
lastChange = "2024-09-11 12:47:21 +0000";
layers = (
{
anchors = (
{
name = top;
pos = (323,690);
}
);
layerId = "E307D395-0405-4E21-BEF1-246ADCA736E4";
shapes = (
{
closed = 1;
nodes = (
(354,0,l),
(354,291,l),
(615,690,l),
(545,690,l),
(328,357,l),
(317,357,l),
(100,690,l),
(28,690,l),
(290,291,l),
(290,0,l)
);
}
);
width = 643;
},
{
anchors = (
{
name = top;
pos = (325,690);
}
);
layerId = "4BA93484-EEB5-4B02-B3A2-B396B531A6AD";
shapes = (
{
closed = 1;
nodes = (
(393,0,l),
(393,263,l),
(635,690,l),
(490,690,l),
(334,402,l),
(315,402,l),
(160,690,l),
(9,690,l),
(250,263,l),
(250,0,l)
);
}
);
width = 643;
}
);
unicode = 89;
userData = {
KernOnName = Y;
};
},
{
color = 4;
glyphname = Z;
kernLeft = Z;
kernRight = Z;
lastChange = "2024-09-11 12:47:21 +0000";
layers = (
{
anchors = (
{
name = top;
pos = (297,690);
}
);
layerId = "E307D395-0405-4E21-BEF1-246ADCA736E4";
shapes = (
{
closed = 1;
nodes = (
(546,0,l),
(546,53,l),
(127,53,l),
(543,637,l),
(543,690,l),
(51,690,l),
(51,637,l),
(463,637,l),
(48,53,l),
(48,0,l)
);
}
);
width = 593;
},
{
anchors = (
{
name = top;
pos = (297,690);
}
);
layerId = "4BA93484-EEB5-4B02-B3A2-B396B531A6AD";
shapes = (
{
closed = 1;
nodes = (
(561,0,l),
(561,112,l),
(205,112,l),
(558,578,l),
(558,690,l),
(35,690,l),
(35,578,l),
(385,578,l),
(32,112,l),
(32,0,l)
);
}
);
width = 593;
}
);
unicode = 90;
userData = {
KernOnName = Z;
};
},
{
color = 4;
glyphname = a;
kernLeft = a;
kernRight = a;
lastChange = "2024-09-11 12:47:21 +0000";
layers = (
{
anchors = (
{
name = ogonek;
pos = (481,0);
},
{
name = top;
pos = (266,534);
}
);
layerId = "E307D395-0405-4E21-BEF1-246ADCA736E4";
shapes = (
{
closed = 1;
nodes = (
(325,-10,o),
(379,19,o),
(415,75,c),
(426,75,l),
(426,0,l),
(481,0,l),
(481,344,ls),
(481,476,o),
(413,544,o),
(281,544,cs),
(138,544,o),
(65,463,o),
(64,302,c),
(49,393,l),
(139,393,l),
(139,393,l),
(139,433,o),
(177,489,o),
(280,489,cs),
(377,489,o),
(419,443,o),
(419,339,cs),
(419,289,l),
(419,277,l),
(419,187,ls),
(419,92,o),
(365,45,o),
(258,45,cs),
(167,45,o),
(121,79,o),
(121,145,cs),
(121,146,ls),
(121,209,o),
(168,239,o),
(268,249,cs),
(419,264,l),
(419,311,l),
(252,295,ls),
(125,282,o),
(57,229,o),
(57,137,cs),
(57,44,o),
(124,-10,o),
(238,-10,cs)
);
}
);
width = 569;
},
{
anchors = (
{
name = ogonek;
pos = (507,0);
},
{
name = top;
pos = (267,534);
}
);
layerId = "4BA93484-EEB5-4B02-B3A2-B396B531A6AD";
shapes = (
{
closed = 1;
nodes = (
(286,-10,o),
(337,26,o),
(361,91,c),
(380,91,l),
(380,0,l),
(507,0,l),
(507,340,ls),
(507,473,o),
(429,544,o),
(281,544,cs),
(124,544,o),
(40,463,o),
(40,302,c),
(25,383,l),
(190,383,l),
(190,387,l),
(190,406,o),
(215,438,o),
(278,438,cs),
(340,438,o),
(369,407,o),
(369,338,cs),
(369,262,l),
(369,247,l),
(369,177,ls),
(369,122,o),
(333,93,o),
(265,93,cs),
(209,93,o),
(176,114,o),
(176,152,cs),
(176,161,ls),
(176,200,o),
(203,218,o),
(268,225,cs),
(369,234,l),
(369,322,l),
(226,308,ls),
(100,296,o),
(34,240,o),
(34,143,cs),
(34,48,o),
(98,-10,o),
(203,-10,cs)
);
}
);
width = 569;
}
);
unicode = 97;
},
{
color = 4;
glyphname = aogonek;
kernLeft = a;
kernRight = a;
lastChange = "2024-09-11 12:47:21 +0000";
layers = (
{
anchors = (
{
name = top;
pos = (266,534);
}
);
layerId = "E307D395-0405-4E21-BEF1-246ADCA736E4";
name = "Extralight Compressed";
shapes = (
{
closed = 1;
nodes = (
(496,-160,l),
(496,-117,l),
(401,-117,ls),
(381,-117,o),
(370,-109,o),
(370,-92,cs),
(370,-70,o),
(396,-38,o),
(481,0,c),
(481,344,ls),
(481,476,o),
(413,544,o),
(281,544,cs),
(138,544,o),
(65,463,o),
(64,302,c),
(49,393,l),
(139,393,l),
(139,393,l),
(139,433,o),
(177,489,o),
(280,489,cs),
(377,489,o),
(419,443,o),
(419,339,cs),
(419,289,l),
(419,277,l),
(419,187,ls),
(419,92,o),
(365,45,o),
(258,45,cs),
(167,45,o),
(121,79,o),
(121,145,cs),
(121,146,ls),
(121,209,o),
(168,239,o),
(268,249,cs),
(419,264,l),
(419,311,l),
(252,295,ls),
(125,282,o),
(57,229,o),
(57,137,cs),
(57,44,o),
(124,-10,o),
(238,-10,cs),
(325,-10,o),
(379,19,o),
(415,75,c),
(426,75,l),
(426,0,l),
(426,0,l),
(426,-2,l),
(345,-26,o),
(323,-69,o),
(323,-104,cs),
(323,-140,o),
(348,-160,o),
(394,-160,cs)
);
}
);
width = 569;
},
{
anchors = (
{
name = top;
pos = (267,534);
}
);
layerId = "4BA93484-EEB5-4B02-B3A2-B396B531A6AD";
name = "Extralight Compressed";
shapes = (
{
closed = 1;
nodes = (
(522,-160,l),
(522,-83,l),
(440,-83,ls),
(422,-83,o),
(414,-77,o),
(414,-64,cs),
(414,-45,o),
(437,-21,o),
(507,0,c),
(507,340,ls),
(507,473,o),
(429,544,o),
(281,544,cs),
(124,544,o),
(40,463,o),
(40,302,c),
(25,383,l),
(190,383,l),
(190,387,l),
(190,406,o),
(215,438,o),
(278,438,cs),
(340,438,o),
(369,407,o),
(369,338,cs),
(369,262,l),
(369,247,l),
(369,177,ls),
(369,122,o),
(333,93,o),
(265,93,cs),
(209,93,o),
(176,114,o),
(176,152,cs),
(176,161,ls),
(176,200,o),
(203,218,o),
(268,225,cs),
(369,234,l),
(369,322,l),
(226,308,ls),
(100,296,o),
(34,240,o),
(34,143,cs),
(34,48,o),
(98,-10,o),
(203,-10,cs),
(286,-10,o),
(337,26,o),
(361,91,c),
(380,91,l),
(380,0,l),
(404,0,l),
(404,-17,l),
(342,-29,o),
(315,-59,o),
(315,-98,cs),
(315,-138,o),
(343,-160,o),
(396,-160,cs)
);
}
);
width = 569;
}
);
unicode = 261;
},
{
color = 4;
glyphname = ae;
kernLeft = a;
kernRight = e;
lastChange = "2024-09-11 12:47:21 +0000";
layers = (
{
anchors = (
{
name = top;
pos = (444,534);
}
);
layerId = "E307D395-0405-4E21-BEF1-246ADCA736E4";
shapes = (
{
closed = 1;
nodes = (
(326,-10,o),
(394,19,o),
(438,99,c),
(449,99,l),
(484,28,o),
(555,-10,o),
(648,-10,cs),
(793,-10,o),
(878,81,o),
(878,247,c),
(892,141,l),
(799,141,l),
(799,141,l),
(799,115,o),
(765,45,o),
(648,45,cs),
(531,45,o),
(475,110,o),
(475,251,cs),
(475,284,ls),
(475,425,o),
(531,490,o),
(648,490,cs),
(765,490,o),
(821,425,o),
(821,284,cs),
(821,273,l),
(849,308,l),
(453,308,l),
(453,260,l),
(879,260,l),
(879,287,ls),
(879,452,o),
(792,544,o),
(648,544,cs),
(556,544,o),
(487,507,o),
(460,453,c),
(449,453,l),
(430,509,o),
(371,544,o),
(279,544,cs),
(139,544,o),
(66,463,o),
(65,302,c),
(50,393,l),
(140,393,l),
(140,393,l),
(140,433,o),
(177,489,o),
(277,489,cs),
(371,489,o),
(413,443,o),
(413,339,cs),
(413,289,l),
(413,277,l),
(413,187,ls),
(413,92,o),
(361,45,o),
(255,45,cs),
(167,45,o),
(122,79,o),
(122,145,cs),
(122,145,ls),
(122,209,o),
(167,240,o),
(262,249,cs),
(413,264,l),
(413,311,l),
(246,295,ls),
(124,282,o),
(58,229,o),
(58,137,cs),
(58,44,o),
(125,-10,o),
(239,-10,cs)
);
}
);
userData = {
assembly = "NPUSHB[ ]	/* 115 values pushed */
11 25 11 29 28 25 38 4 32 13 54 4 50 13 56 61 52 65 66 4 66 13 74 61 66 65 82 13 82 55 85 75 99 13 97 55 101 75 19 22 29 75 42 81 46 98 46 123 13 126 19 124 30 125 36 115 46 115 56 124 75 11 71 1 60 33 112 67 1 67 18 67 51 3 48 24 64 61 54 4 44 44 40 63 48 4 11 11 7 63 15 10 80 65 24 10 67 58 1 26 71 68 18 33 51 4 0 71 15 45 1 45 12 12 58 
PUSHW[ ]	/* 1 value pushed */
-10 
NPUSHB[ ]	/* 14 values pushed */
12 12 2 85 58 26 0 71 12 16 16 2 85 71 
PUSHW[ ]	/* 1 value pushed */
-20 
PUSHB[ ]	/* 5 values pushed */
15 15 2 85 71 
PUSHW[ ]	/* 1 value pushed */
-32 
PUSHB[ ]	/* 5 values pushed */
13 13 2 85 71 
PUSHW[ ]	/* 1 value pushed */
-20 
NPUSHB[ ]	/* 14 values pushed */
12 12 2 85 71 10 11 11 2 85 71 45 27 0 
PUSHW[ ]	/* 1 value pushed */
-8 
PUSHB[ ]	/* 5 values pushed */
16 16 2 85 0 
PUSHW[ ]	/* 1 value pushed */
-18 
PUSHB[ ]	/* 5 values pushed */
15 15 2 85 0 
PUSHW[ ]	/* 1 value pushed */
-42 
NPUSHB[ ]	/* 11 values pushed */
13 13 2 85 0 12 12 12 2 85 0 
PUSHW[ ]	/* 1 value pushed */
-14 
NPUSHB[ ]	/* 11 values pushed */
9 9 2 85 0 143 84 64 84 1 77 
PUSHW[ ]	/* 1 value pushed */
-8 
PUSHB[ ]	/* 8 values pushed */
13 13 2 85 77 27 0 27 
PUSHW[ ]	/* 1 value pushed */
-6 
NPUSHB[ ]	/* 31 values pushed */
16 16 2 85 27 12 11 11 2 85 27 28 9 9 2 85 27 20 13 13 2 85 27 6 12 12 2 85 27 133 83 
SRP0[ ]	/* SetRefPoint0 */
MIRP[10110]	/* MoveIndirectRelPt */
CALL[ ]	/* CallFunction */
CALL[ ]	/* CallFunction */
CALL[ ]	/* CallFunction */
CALL[ ]	/* CallFunction */
CALL[ ]	/* CallFunction */
SHP[0]	/* ShiftPointByLastPoint */
MIRP[01101]	/* MoveIndirectRelPt */
CALL[ ]	/* CallFunction */
DELTAP1[ ]	/* DeltaExceptionP1 */
SRP0[ ]	/* SetRefPoint0 */
MIRP[00100]	/* MoveIndirectRelPt */
CALL[ ]	/* CallFunction */
CALL[ ]	/* CallFunction */
CALL[ ]	/* CallFunction */
CALL[ ]	/* CallFunction */
CALL[ ]	/* CallFunction */
SRP1[ ]	/* SetRefPoint1 */
IP[ ]	/* InterpolatePts */
IP[ ]	/* InterpolatePts */
CALL[ ]	/* CallFunction */
CALL[ ]	/* CallFunction */
CALL[ ]	/* CallFunction */
CALL[ ]	/* CallFunction */
CALL[ ]	/* CallFunction */
SRP0[ ]	/* SetRefPoint0 */
MIRP[01101]	/* MoveIndirectRelPt */
CALL[ ]	/* CallFunction */
SHP[1]	/* ShiftPointByLastPoint */
MDAP[1]	/* MoveDirectAbsPt */
MDAP[1]	/* MoveDirectAbsPt */
DELTAP1[ ]	/* DeltaExceptionP1 */
MDAP[1]	/* MoveDirectAbsPt */
SRP2[ ]	/* SetRefPoint2 */
SLOOP[ ]	/* SetLoopVariable */
IP[ ]	/* InterpolatePts */
MDAP[1]	/* MoveDirectAbsPt */
MIRP[11101]	/* MoveIndirectRelPt */
SRP1[ ]	/* SetRefPoint1 */
IP[ ]	/* InterpolatePts */
SVTCA[0]	/* SetFreedomAndProjectionVectorToAxis */
MIAP[1]	/* MoveIndirectAbsPt */
MIRP[01101]	/* MoveIndirectRelPt */
MIAP[1]	/* MoveIndirectAbsPt */
MIRP[01101]	/* MoveIndirectRelPt */
SHP[1]	/* ShiftPointByLastPoint */
MDAP[1]	/* MoveDirectAbsPt */
MIAP[1]	/* MoveIndirectAbsPt */
MIRP[01101]	/* MoveIndirectRelPt */
SHP[1]	/* ShiftPointByLastPoint */
MDAP[1]	/* MoveDirectAbsPt */
MIAP[1]	/* MoveIndirectAbsPt */
MIRP[01101]	/* MoveIndirectRelPt */
SRP1[ ]	/* SetRefPoint1 */
SRP2[ ]	/* SetRefPoint2 */
SLOOP[ ]	/* SetLoopVariable */
IP[ ]	/* InterpolatePts */
MDAP[1]	/* MoveDirectAbsPt */
DELTAP1[ ]	/* DeltaExceptionP1 */
SHP[1]	/* ShiftPointByLastPoint */
MIRP[11101]	/* MoveIndirectRelPt */
SHP[0]	/* ShiftPointByLastPoint */
IUP[1]	/* InterpolateUntPts */
IUP[0]	/* InterpolateUntPts */
DELTAP1[ ]	/* DeltaExceptionP1 */
SVTCA[1]	/* SetFreedomAndProjectionVectorToAxis */
DELTAP1[ ]	/* DeltaExceptionP1 */";
};
width = 935;
},
{
anchors = (
{
name = top;
pos = (448,534);
}
);
layerId = "4BA93484-EEB5-4B02-B3A2-B396B531A6AD";
shapes = (
{
closed = 1;
nodes = (
(286,-10,o),
(364,26,o),
(402,118,c),
(421,118,l),
(451,35,o),
(532,-10,o),
(644,-10,cs),
(804,-10,o),
(897,82,o),
(897,247,c),
(911,151,l),
(742,151,l),
(742,147,l),
(742,134,o),
(716,96,o),
(644,96,cs),
(565,96,o),
(528,141,o),
(528,238,cs),
(528,300,ls),
(528,397,o),
(565,441,o),
(644,441,cs),
(723,441,o),
(760,397,o),
(760,300,cs),
(760,278,l),
(851,328,l),
(471,328,l),
(471,240,l),
(898,240,l),
(898,287,ls),
(898,452,o),
(803,544,o),
(644,544,cs),
(560,544,o),
(493,518,o),
(465,470,c),
(445,470,l),
(425,519,o),
(365,544,o),
(280,544,cs),
(124,544,o),
(40,463,o),
(40,302,c),
(25,383,l),
(190,383,l),
(190,387,l),
(190,406,o),
(215,438,o),
(277,438,cs),
(339,438,o),
(367,407,o),
(367,338,cs),
(367,262,l),
(367,247,l),
(367,177,ls),
(367,122,o),
(332,93,o),
(264,93,cs),
(208,93,o),
(176,114,o),
(176,152,cs),
(176,160,ls),
(176,200,o),
(202,219,o),
(266,225,cs),
(367,234,l),
(367,322,l),
(224,308,ls),
(99,296,o),
(33,240,o),
(33,143,cs),
(33,48,o),
(98,-10,o),
(203.007,-10,cs)
);
}
);
userData = {
assembly = "NPUSHB[ ]	/* 115 values pushed */
11 25 11 29 28 25 38 4 32 13 54 4 50 13 56 61 52 65 66 4 66 13 74 61 66 65 82 13 82 55 85 75 99 13 97 55 101 75 19 22 29 75 42 81 46 98 46 123 13 126 19 124 30 125 36 115 46 115 56 124 75 11 71 1 60 33 112 67 1 67 18 67 51 3 48 24 64 61 54 4 44 44 40 63 48 4 11 11 7 63 15 10 80 65 24 10 67 58 1 26 71 68 18 33 51 4 0 71 15 45 1 45 12 12 58 
PUSHW[ ]	/* 1 value pushed */
-10 
NPUSHB[ ]	/* 14 values pushed */
12 12 2 85 58 26 0 71 12 16 16 2 85 71 
PUSHW[ ]	/* 1 value pushed */
-20 
PUSHB[ ]	/* 5 values pushed */
15 15 2 85 71 
PUSHW[ ]	/* 1 value pushed */
-32 
PUSHB[ ]	/* 5 values pushed */
13 13 2 85 71 
PUSHW[ ]	/* 1 value pushed */
-20 
NPUSHB[ ]	/* 14 values pushed */
12 12 2 85 71 10 11 11 2 85 71 45 27 0 
PUSHW[ ]	/* 1 value pushed */
-8 
PUSHB[ ]	/* 5 values pushed */
16 16 2 85 0 
PUSHW[ ]	/* 1 value pushed */
-18 
PUSHB[ ]	/* 5 values pushed */
15 15 2 85 0 
PUSHW[ ]	/* 1 value pushed */
-42 
NPUSHB[ ]	/* 11 values pushed */
13 13 2 85 0 12 12 12 2 85 0 
PUSHW[ ]	/* 1 value pushed */
-14 
NPUSHB[ ]	/* 11 values pushed */
9 9 2 85 0 143 84 64 84 1 77 
PUSHW[ ]	/* 1 value pushed */
-8 
PUSHB[ ]	/* 8 values pushed */
13 13 2 85 77 27 0 27 
PUSHW[ ]	/* 1 value pushed */
-6 
NPUSHB[ ]	/* 31 values pushed */
16 16 2 85 27 12 11 11 2 85 27 28 9 9 2 85 27 20 13 13 2 85 27 6 12 12 2 85 27 133 83 
SRP0[ ]	/* SetRefPoint0 */
MIRP[10110]	/* MoveIndirectRelPt */
CALL[ ]	/* CallFunction */
CALL[ ]	/* CallFunction */
CALL[ ]	/* CallFunction */
CALL[ ]	/* CallFunction */
CALL[ ]	/* CallFunction */
SHP[0]	/* ShiftPointByLastPoint */
MIRP[01101]	/* MoveIndirectRelPt */
CALL[ ]	/* CallFunction */
DELTAP1[ ]	/* DeltaExceptionP1 */
SRP0[ ]	/* SetRefPoint0 */
MIRP[00100]	/* MoveIndirectRelPt */
CALL[ ]	/* CallFunction */
CALL[ ]	/* CallFunction */
CALL[ ]	/* CallFunction */
CALL[ ]	/* CallFunction */
CALL[ ]	/* CallFunction */
SRP1[ ]	/* SetRefPoint1 */
IP[ ]	/* InterpolatePts */
IP[ ]	/* InterpolatePts */
CALL[ ]	/* CallFunction */
CALL[ ]	/* CallFunction */
CALL[ ]	/* CallFunction */
CALL[ ]	/* CallFunction */
CALL[ ]	/* CallFunction */
SRP0[ ]	/* SetRefPoint0 */
MIRP[01101]	/* MoveIndirectRelPt */
CALL[ ]	/* CallFunction */
SHP[1]	/* ShiftPointByLastPoint */
MDAP[1]	/* MoveDirectAbsPt */
MDAP[1]	/* MoveDirectAbsPt */
DELTAP1[ ]	/* DeltaExceptionP1 */
MDAP[1]	/* MoveDirectAbsPt */
SRP2[ ]	/* SetRefPoint2 */
SLOOP[ ]	/* SetLoopVariable */
IP[ ]	/* InterpolatePts */
MDAP[1]	/* MoveDirectAbsPt */
MIRP[11101]	/* MoveIndirectRelPt */
SRP1[ ]	/* SetRefPoint1 */
IP[ ]	/* InterpolatePts */
SVTCA[0]	/* SetFreedomAndProjectionVectorToAxis */
MIAP[1]	/* MoveIndirectAbsPt */
MIRP[01101]	/* MoveIndirectRelPt */
MIAP[1]	/* MoveIndirectAbsPt */
MIRP[01101]	/* MoveIndirectRelPt */
SHP[1]	/* ShiftPointByLastPoint */
MDAP[1]	/* MoveDirectAbsPt */
MIAP[1]	/* MoveIndirectAbsPt */
MIRP[01101]	/* MoveIndirectRelPt */
SHP[1]	/* ShiftPointByLastPoint */
MDAP[1]	/* MoveDirectAbsPt */
MIAP[1]	/* MoveIndirectAbsPt */
MIRP[01101]	/* MoveIndirectRelPt */
SRP1[ ]	/* SetRefPoint1 */
SRP2[ ]	/* SetRefPoint2 */
SLOOP[ ]	/* SetLoopVariable */
IP[ ]	/* InterpolatePts */
MDAP[1]	/* MoveDirectAbsPt */
DELTAP1[ ]	/* DeltaExceptionP1 */
SHP[1]	/* ShiftPointByLastPoint */
MIRP[11101]	/* MoveIndirectRelPt */
SHP[0]	/* ShiftPointByLastPoint */
IUP[1]	/* InterpolateUntPts */
IUP[0]	/* InterpolateUntPts */
DELTAP1[ ]	/* DeltaExceptionP1 */
SVTCA[1]	/* SetFreedomAndProjectionVectorToAxis */
DELTAP1[ ]	/* DeltaExceptionP1 */";
};
width = 935;
}
);
note = ae;
unicode = 230;
},
{
color = 4;
glyphname = b;
kernLeft = h;
kernRight = b;
lastChange = "2024-09-11 12:47:21 +0000";
layers = (
{
layerId = "E307D395-0405-4E21-BEF1-246ADCA736E4";
shapes = (
{
closed = 1;
nodes = (
(480,-10,o),
(563,90,o),
(563,267,cs),
(563,444,o),
(480,544,o),
(339,544,cs),
(260,544,o),
(204,512,o),
(163,451,c),
(152,451,l),
(156,506,o),
(156,538,o),
(156,569,cs),
(156,722,l),
(94,722,l),
(94,0,l),
(150,0,l),
(150,88,l),
(161,88,l),
(203,23,o),
(260,-10,o),
(339,-10,cs)
);
},
{
closed = 1;
nodes = (
(210,45,o),
(156,110,o),
(156,250,cs),
(156,284,ls),
(156,424,o),
(210,489,o),
(327,489,cs),
(443,489,o),
(497,424,o),
(497,284,cs),
(497,250,ls),
(497,110,o),
(443,45,o),
(327,45,cs)
);
}
);
width = 621;
},
{
layerId = "4BA93484-EEB5-4B02-B3A2-B396B531A6AD";
shapes = (
{
closed = 1;
nodes = (
(499,-10,o),
(582,95,o),
(582,267,cs),
(582,439,o),
(500,544,o),
(373,544,cs),
(296,544,o),
(244,508,o),
(221,446,c),
(202,446,l),
(205,498,o),
(205,530,o),
(205,561,cs),
(205,722,l),
(67,722,l),
(67,0,l),
(194,0,l),
(194,97,l),
(213,97,l),
(238,31,o),
(294,-10,o),
(373,-10,cs)
);
},
{
closed = 1;
nodes = (
(242,96,o),
(205,141,o),
(205,237,cs),
(205,297,ls),
(205,393,o),
(242,438,o),
(321,438,cs),
(400,438,o),
(436,393,o),
(436,297,cs),
(436,237,ls),
(436,141,o),
(400,96,o),
(321,96,cs)
);
}
);
width = 621;
}
);
unicode = 98;
},
{
color = 4;
glyphname = c;
kernLeft = o;
kernRight = c;
lastChange = "2024-09-11 12:47:21 +0000";
layers = (
{
anchors = (
{
name = bottom;
pos = (297,0);
},
{
name = top;
pos = (297,534);
}
);
layerId = "E307D395-0405-4E21-BEF1-246ADCA736E4";
shapes = (
{
closed = 1;
nodes = (
(443,-10,o),
(531,82,o),
(531,247,c),
(544,183,l),
(462,183,l),
(462,183,ls),
(462,119,o),
(414,45,o),
(297,45,cs),
(182,45,o),
(125,110,o),
(125,250,cs),
(125,284,ls),
(125,424,o),
(182,489,o),
(297,489,cs),
(414,489,o),
(462,415,o),
(462,359,cs),
(462,359,l),
(542,359,l),
(531,287,l),
(531,452,o),
(443,544,o),
(297,544,cs),
(148,544,o),
(58,446,o),
(58,267,cs),
(58,88,o),
(148,-10,o),
(297,-10,cs)
);
}
);
width = 584;
},
{
anchors = (
{
name = bottom;
pos = (298,0);
},
{
name = top;
pos = (298,534);
}
);
layerId = "4BA93484-EEB5-4B02-B3A2-B396B531A6AD";
shapes = (
{
closed = 1;
nodes = (
(456,-10,o),
(550,82,o),
(550,247,c),
(563,193,l),
(405,193,l),
(405,181,ls),
(405,144,o),
(376,96,o),
(298,96,cs),
(220,96,o),
(184,140,o),
(184,237,cs),
(184,297,ls),
(184,394,o),
(220,438,o),
(298,438,cs),
(376,438,o),
(405,390,o),
(405,359,cs),
(405,349,l),
(561,349,l),
(550,287,l),
(550,452,o),
(456,544,o),
(298,544,cs),
(134,544,o),
(38,445,o),
(38,267,cs),
(38,89,o),
(134,-10,o),
(298,-10,cs)
);
}
);
width = 584;
}
);
unicode = 99;
},
{
color = 4;
glyphname = d;
kernLeft = d;
lastChange = "2024-09-11 12:47:21 +0000";
layers = (
{
layerId = "E307D395-0405-4E21-BEF1-246ADCA736E4";
shapes = (
{
closed = 1;
nodes = (
(361,-10,o),
(418,23,o),
(460,88,c),
(471,88,l),
(471,0,l),
(527,0,l),
(527,722,l),
(465,722,l),
(465,569,ls),
(465,538,o),
(465,506,o),
(469,451,c),
(458,451,l),
(417,512,o),
(361,544,o),
(281,544,cs),
(141,544,o),
(57,444,o),
(57,267,cs),
(57,90,o),
(141,-10,o),
(281,-10,cs)
);
},
{
closed = 1;
nodes = (
(177,45,o),
(124,110,o),
(124,250,cs),
(124,284,ls),
(124,424,o),
(177,489,o),
(294,489,cs),
(411,489,o),
(465,424,o),
(465,284,cs),
(465,250,ls),
(465,110,o),
(411,45,o),
(294,45,cs)
);
}
);
width = 621;
},
{
layerId = "4BA93484-EEB5-4B02-B3A2-B396B531A6AD";
shapes = (
{
closed = 1;
nodes = (
(327,-10,o),
(382,31,o),
(408,97,c),
(427,97,l),
(427,0,l),
(554,0,l),
(554,722,l),
(415,722,l),
(415,561,ls),
(415,530,o),
(416,498,o),
(419,446,c),
(399,446,l),
(377,508,o),
(324,544,o),
(248,544,cs),
(120,544,o),
(39,439,o),
(39,267,cs),
(39,95,o),
(122,-10,o),
(248,-10,cs)
);
},
{
closed = 1;
nodes = (
(221,96,o),
(185,141,o),
(185,237,cs),
(185,297,ls),
(185,393,o),
(221,438,o),
(300,438,cs),
(379,438,o),
(415,393,o),
(415,297,cs),
(415,237,ls),
(415,141,o),
(379,96,o),
(300,96,cs)
);
}
);
width = 621;
}
);
unicode = 100;
},
{
color = 4;
glyphname = eth;
lastChange = "2024-09-11 12:47:21 +0000";
layers = (
{
layerId = "E307D395-0405-4E21-BEF1-246ADCA736E4";
shapes = (
{
closed = 1;
nodes = (
(453,-10,o),
(540,86,o),
(540,258,cs),
(540,458,o),
(439,595,o),
(307,722,c),
(235,722,l),
(365,608,o),
(433,505,o),
(455,436,c),
(444,436,l),
(420,469,o),
(356,504,o),
(275,504,cs),
(139,504,o),
(57,409,o),
(57,247,cs),
(57,85,o),
(148,-10,o),
(303,-10,cs)
);
},
{
closed = 1;
nodes = (
(182,45,o),
(124,106,o),
(124,236,cs),
(124,258,ls),
(124,388,o),
(181,449,o),
(300,449,cs),
(419,449,o),
(476,388,o),
(476,260,cs),
(476,237,ls),
(476,107,o),
(420,45,o),
(303,45,cs)
);
},
{
closed = 1;
nodes = (
(490,630,l),
(490,675,l),
(203,619,l),
(203,573,l)
);
}
);
userData = {
assembly = "NPUSHB[ ]	/* 91 values pushed */
25 13 41 13 50 1 52 32 57 43 54 45 69 1 76 13 68 32 74 43 68 45 90 43 84 45 111 5 116 30 116 33 16 12 3 41 63 9 15 18 26 29 4 27 16 16 9 3 22 27 27 63 22 79 22 2 22 2 47 62 3 10 28 17 26 29 28 3 0 17 18 15 12 38 5 31 22 47 22 2 22 35 19 22 9 0 0 9 44 20 6 
MDAP[1]	/* MoveDirectAbsPt */
MIRP[01101]	/* MoveIndirectRelPt */
SRP1[ ]	/* SetRefPoint1 */
SHP[1]	/* ShiftPointByLastPoint */
MDAP[1]	/* MoveDirectAbsPt */
SRP2[ ]	/* SetRefPoint2 */
IP[ ]	/* InterpolatePts */
MIRP[01101]	/* MoveIndirectRelPt */
MDAP[1]	/* MoveDirectAbsPt */
DELTAP1[ ]	/* DeltaExceptionP1 */
SLOOP[ ]	/* SetLoopVariable */
IP[ ]	/* InterpolatePts */
SRP2[ ]	/* SetRefPoint2 */
SLOOP[ ]	/* SetLoopVariable */
IP[ ]	/* InterpolatePts */
MDAP[1]	/* MoveDirectAbsPt */
MDAP[1]	/* MoveDirectAbsPt */
SVTCA[0]	/* SetFreedomAndProjectionVectorToAxis */
MIAP[1]	/* MoveIndirectAbsPt */
MIRP[01101]	/* MoveIndirectRelPt */
MIAP[1]	/* MoveIndirectAbsPt */
DELTAP1[ ]	/* DeltaExceptionP1 */
SHP[1]	/* ShiftPointByLastPoint */
MDAP[1]	/* MoveDirectAbsPt */
SRP1[ ]	/* SetRefPoint1 */
SRP2[ ]	/* SetRefPoint2 */
IP[ ]	/* InterpolatePts */
IP[ ]	/* InterpolatePts */
MDAP[1]	/* MoveDirectAbsPt */
SRP2[ ]	/* SetRefPoint2 */
SLOOP[ ]	/* SetLoopVariable */
IP[ ]	/* InterpolatePts */
MDAP[1]	/* MoveDirectAbsPt */
MIRP[01101]	/* MoveIndirectRelPt */
SRP2[ ]	/* SetRefPoint2 */
IP[ ]	/* InterpolatePts */
IUP[1]	/* InterpolateUntPts */
IUP[0]	/* InterpolateUntPts */
DELTAP1[ ]	/* DeltaExceptionP1 */";
};
width = 599;
},
{
layerId = "4BA93484-EEB5-4B02-B3A2-B396B531A6AD";
shapes = (
{
closed = 1;
nodes = (
(464,-10,o),
(560,91,o),
(560,283,cs),
(560,474,o),
(452,623,o),
(353,722,c),
(190,722,l),
(333,578,o),
(393,468,o),
(406,409,c),
(386,409,l),
(366,452,o),
(316,494,o),
(244,494,cs),
(117,494,o),
(37,390,o),
(37,241,cs),
(37,84,o),
(133,-10,o),
(299,-10,cs)
);
},
{
closed = 1;
nodes = (
(218,96,o),
(183,138,o),
(183,221,cs),
(183,268,ls),
(183,351,o),
(218,393,o),
(298,393,cs),
(377,393,o),
(413,351,o),
(413,268,cs),
(413,221,ls),
(413,138,o),
(377,96,o),
(298,96,cs)
);
},
{
closed = 1;
nodes = (
(508,618,l),
(508,695,l),
(186,632,l),
(186,555,l)
);
}
);
userData = {
assembly = "NPUSHB[ ]	/* 91 values pushed */
25 13 41 13 50 1 52 32 57 43 54 45 69 1 76 13 68 32 74 43 68 45 90 43 84 45 111 5 116 30 116 33 16 12 3 41 63 9 15 18 26 29 4 27 16 16 9 3 22 27 27 63 22 79 22 2 22 2 47 62 3 10 28 17 26 29 28 3 0 17 18 15 12 38 5 31 22 47 22 2 22 35 19 22 9 0 0 9 44 20 6 
MDAP[1]	/* MoveDirectAbsPt */
MIRP[01101]	/* MoveIndirectRelPt */
SRP1[ ]	/* SetRefPoint1 */
SHP[1]	/* ShiftPointByLastPoint */
MDAP[1]	/* MoveDirectAbsPt */
SRP2[ ]	/* SetRefPoint2 */
IP[ ]	/* InterpolatePts */
MIRP[01101]	/* MoveIndirectRelPt */
MDAP[1]	/* MoveDirectAbsPt */
DELTAP1[ ]	/* DeltaExceptionP1 */
SLOOP[ ]	/* SetLoopVariable */
IP[ ]	/* InterpolatePts */
SRP2[ ]	/* SetRefPoint2 */
SLOOP[ ]	/* SetLoopVariable */
IP[ ]	/* InterpolatePts */
MDAP[1]	/* MoveDirectAbsPt */
MDAP[1]	/* MoveDirectAbsPt */
SVTCA[0]	/* SetFreedomAndProjectionVectorToAxis */
MIAP[1]	/* MoveIndirectAbsPt */
MIRP[01101]	/* MoveIndirectRelPt */
MIAP[1]	/* MoveIndirectAbsPt */
DELTAP1[ ]	/* DeltaExceptionP1 */
SHP[1]	/* ShiftPointByLastPoint */
MDAP[1]	/* MoveDirectAbsPt */
SRP1[ ]	/* SetRefPoint1 */
SRP2[ ]	/* SetRefPoint2 */
IP[ ]	/* InterpolatePts */
IP[ ]	/* InterpolatePts */
MDAP[1]	/* MoveDirectAbsPt */
SRP2[ ]	/* SetRefPoint2 */
SLOOP[ ]	/* SetLoopVariable */
IP[ ]	/* InterpolatePts */
MDAP[1]	/* MoveDirectAbsPt */
MIRP[01101]	/* MoveIndirectRelPt */
SRP2[ ]	/* SetRefPoint2 */
IP[ ]	/* InterpolatePts */
IUP[1]	/* InterpolateUntPts */
IUP[0]	/* InterpolateUntPts */
DELTAP1[ ]	/* DeltaExceptionP1 */";
};
width = 599;
}
);
note = eth;
unicode = 240;
},
{
color = 4;
glyphname = e;
kernLeft = o;
kernRight = e;
lastChange = "2024-09-11 12:47:21 +0000";
layers = (
{
anchors = (
{
name = ogonek;
pos = (459,0);
},
{
name = top;
pos = (301,534);
}
);
layerId = "E307D395-0405-4E21-BEF1-246ADCA736E4";
shapes = (
{
closed = 1;
nodes = (
(449,-10,o),
(534,81,o),
(534,247,c),
(548,141,l),
(456,141,l),
(456,141,l),
(456,115,o),
(421,45,o),
(301,45,cs),
(180,45,o),
(125,110,o),
(125,251,cs),
(125,284,ls),
(125,425,o),
(180,490,o),
(301,490,cs),
(421,490,o),
(477,425,o),
(477,284,cs),
(477,271,l),
(505,308,l),
(102,308,l),
(102,260,l),
(535,260,l),
(535,287,ls),
(535,452,o),
(448,544,o),
(301,544,cs),
(149,544,o),
(58,444,o),
(58,267,cs),
(58,90,o),
(149,-10,o),
(301,-10,cs)
);
}
);
width = 591;
},
{
anchors = (
{
name = ogonek;
pos = (491,0);
},
{
name = top;
pos = (300,534);
}
);
layerId = "4BA93484-EEB5-4B02-B3A2-B396B531A6AD";
shapes = (
{
closed = 1;
nodes = (
(461,-10,o),
(554,82,o),
(554,247,c),
(567,151,l),
(399,151,l),
(399,147,l),
(399,134,o),
(373,96,o),
(300,96,cs),
(220,96,o),
(184,141,o),
(184,238,cs),
(184,300,ls),
(184,397,o),
(220,441,o),
(300,441,cs),
(380,441,o),
(416,397,o),
(416,300,cs),
(416,274,l),
(507,328,l),
(126,328,l),
(126,240,l),
(554,240,l),
(554,287,ls),
(554,452,o),
(461,544,o),
(300,544,cs),
(135,544,o),
(38,444,o),
(38,267,cs),
(38,90,o),
(135,-10,o),
(300,-10,cs)
);
}
);
width = 591;
}
);
unicode = 101;
},
{
color = 4;
glyphname = eogonek;
kernLeft = o;
kernRight = e;
lastChange = "2024-09-11 12:47:21 +0000";
layers = (
{
anchors = (
{
name = ogonek;
pos = (459,0);
},
{
name = top;
pos = (301,534);
}
);
layerId = "E307D395-0405-4E21-BEF1-246ADCA736E4";
shapes = (
{
closed = 1;
nodes = (
(480,-160,l),
(480,-117,l),
(381,-117,ls),
(361,-117,o),
(350,-109,o),
(350,-92,cs),
(350,-69,o),
(377,-27,o),
(448,34,c),
(357,13,l),
(357,-16,l),
(321,-45,o),
(303,-72,o),
(303,-104,cs),
(303,-140,o),
(328,-160,o),
(374,-160,cs)
);
},
{
closed = 1;
nodes = (
(449,-10,o),
(534,81,o),
(534,247,c),
(548,141,l),
(456,141,l),
(456,141,l),
(456,115,o),
(421,45,o),
(301,45,cs),
(180,45,o),
(125,110,o),
(125,251,cs),
(125,284,ls),
(125,425,o),
(180,490,o),
(301,490,cs),
(421,490,o),
(477,425,o),
(477,284,cs),
(477,271,l),
(505,308,l),
(102,308,l),
(102,260,l),
(535,260,l),
(535,287,ls),
(535,452,o),
(448,544,o),
(301,544,cs),
(149,544,o),
(58,444,o),
(58,267,cs),
(58,90,o),
(149,-10,o),
(301,-10,cs)
);
}
);
width = 591;
},
{
anchors = (
{
name = ogonek;
pos = (491,0);
},
{
name = top;
pos = (300,534);
}
);
layerId = "4BA93484-EEB5-4B02-B3A2-B396B531A6AD";
shapes = (
{
closed = 1;
nodes = (
(501,-160,l),
(501,-83,l),
(415,-83,ls),
(397,-83,o),
(389,-77,o),
(389,-64,cs),
(389,-45,o),
(410,-7,o),
(458,33,c),
(365,17,l),
(365,-23,l),
(315,-36,o),
(291,-60,o),
(291,-98,cs),
(291,-138,o),
(319,-160,o),
(371,-160,cs)
);
},
{
closed = 1;
nodes = (
(461,-10,o),
(554,82,o),
(554,247,c),
(567,151,l),
(399,151,l),
(399,147,l),
(399,134,o),
(373,96,o),
(300,96,cs),
(220,96,o),
(184,141,o),
(184,238,cs),
(184,300,ls),
(184,397,o),
(220,441,o),
(300,441,cs),
(380,441,o),
(416,397,o),
(416,300,cs),
(416,274,l),
(507,328,l),
(126,328,l),
(126,240,l),
(554,240,l),
(554,287,ls),
(554,452,o),
(461,544,o),
(300,544,cs),
(135,544,o),
(38,444,o),
(38,267,cs),
(38,90,o),
(135,-10,o),
(300,-10,cs)
);
}
);
width = 591;
}
);
unicode = 281;
},
{
color = 4;
glyphname = f;
kernLeft = f;
kernRight = f;
lastChange = "2024-09-11 12:47:21 +0000";
layers = (
{
layerId = "E307D395-0405-4E21-BEF1-246ADCA736E4";
shapes = (
{
closed = 1;
nodes = (
(155,0,l),
(217,0,l),
(217,671,l),
(408,671,l),
(408,722,l),
(202,722,ls),
(171,722,o),
(155,705,o),
(155,675,cs)
);
},
{
closed = 1;
nodes = (
(408,483,l),
(408,534,l),
(27,534,l),
(27,483,l)
);
}
);
width = 436;
},
{
layerId = "4BA93484-EEB5-4B02-B3A2-B396B531A6AD";
shapes = (
{
closed = 1;
nodes = (
(123,0,l),
(262,0,l),
(262,630,l),
(413,630,l),
(413,722,l),
(209,722,ls),
(153,722,o),
(123,692,o),
(123,636,cs)
);
},
{
closed = 1;
nodes = (
(413,435,l),
(413,534,l),
(27,534,l),
(27,435,l)
);
}
);
width = 436;
}
);
unicode = 102;
},
{
color = 4;
glyphname = g;
kernRight = g;
lastChange = "2024-09-11 12:47:21 +0000";
layers = (
{
layerId = "E307D395-0405-4E21-BEF1-246ADCA736E4";
shapes = (
{
closed = 1;
nodes = (
(444,-174,o),
(526,-104,o),
(526,17,cs),
(526,534,l),
(471,534,l),
(471,446,l),
(459,446,l),
(417,511,o),
(361,544,o),
(281,544,cs),
(140,544,o),
(57,442,o),
(57,279,cs),
(57,114,o),
(140,16,o),
(281,16,cs),
(360,16,o),
(418,48,o),
(457,104,c),
(469,104,l),
(466,73,o),
(465,51,o),
(465,18,cs),
(465,-71,o),
(405,-119,o),
(298,-119,cs),
(203,-119,o),
(149,-80,o),
(149,-39,c),
(149,-39,l),
(61,-39,l),
(75,28,l),
(75,-105,o),
(156,-174,o),
(299,-174,cs)
);
},
{
closed = 1;
nodes = (
(177,69,o),
(123,137,o),
(123,265,cs),
(123,293,ls),
(123,421,o),
(177,489,o),
(293,489,cs),
(410,489,o),
(464,421,o),
(464,293,cs),
(464,265,ls),
(464,137,o),
(410,69,o),
(293,69,cs)
);
}
);
width = 617;
},
{
layerId = "4BA93484-EEB5-4B02-B3A2-B396B531A6AD";
shapes = (
{
closed = 1;
nodes = (
(462,-174,o),
(551,-103,o),
(551,28,cs),
(550.993,534,l),
(424,534,l),
(424,437,l),
(405,437,l),
(379,503,o),
(324,544,o),
(245,544,cs),
(118,544,o),
(36,438,o),
(36,279,cs),
(36,119,o),
(118,22,o),
(245,22,cs),
(320,22,o),
(374,56,o),
(396,111,c),
(415,111,l),
(413,83,o),
(412,60,o),
(412,29,cs),
(412,-39,o),
(372,-71,o),
(294,-71,cs),
(236,-71,o),
(196,-53,o),
(196,-30,c),
(196,-29,l),
(37,-29,l),
(48,41,l),
(48,-104,o),
(132,-174,o),
(297,-174,cs)
);
},
{
closed = 1;
nodes = (
(218,120,o),
(182,163,o),
(182,250,cs),
(182,308,ls),
(182,395,o),
(218,438,o),
(297,438,cs),
(376,438,o),
(412,395,o),
(412,308,cs),
(412,250,ls),
(412,163,o),
(376,120,o),
(297,120,cs)
);
}
);
width = 617;
}
);
unicode = 103;
userData = {
KernOnName = g;
};
},
{
color = 4;
glyphname = h;
kernLeft = h;
kernRight = n;
lastChange = "2024-09-11 12:47:21 +0000";
layers = (
{
layerId = "E307D395-0405-4E21-BEF1-246ADCA736E4";
shapes = (
{
closed = 1;
nodes = (
(156,0,l),
(156,324,ls),
(156,439,o),
(201,489,o),
(303,489,cs),
(404,489,o),
(449,439,o),
(449,324,cs),
(449,0,l),
(511,0,l),
(511,337,ls),
(511,474,o),
(449,544,o),
(329,544,cs),
(251,544,o),
(197,515,o),
(163,463,c),
(152,463,l),
(156,518,o),
(156,550,o),
(156,581,cs),
(156,722,l),
(94,722,l),
(94,0,l)
);
}
);
width = 598;
},
{
layerId = "4BA93484-EEB5-4B02-B3A2-B396B531A6AD";
shapes = (
{
closed = 1;
nodes = (
(205,0,l),
(205,322,ls),
(205,402,o),
(236,438,o),
(301,438,cs),
(367,438,o),
(397,402,o),
(397,322,cs),
(397,0,l),
(536,0,l),
(536,348,ls),
(536,476,o),
(477,544,o),
(367,544,cs),
(290,544,o),
(243,510,o),
(221,448,c),
(202,448,l),
(205,500,o),
(205,532,o),
(205,563,cs),
(205,722,l),
(67,722,l),
(67,0,l)
);
}
);
width = 598;
}
);
unicode = 104;
},
{
color = 4;
glyphname = i;
kernLeft = i;
kernRight = i;
lastChange = "2024-09-11 12:47:21 +0000";
layers = (
{
layerId = "E307D395-0405-4E21-BEF1-246ADCA736E4";
shapes = (
{
closed = 1;
nodes = (
(196,0,l),
(196,534,l),
(35,534,l),
(35,483,l),
(134,483,l),
(134,0,l)
);
},
{
closed = 1;
nodes = (
(203,635,l),
(203,710,l),
(122,710,l),
(122,635,l)
);
}
);
width = 291;
},
{
layerId = "4BA93484-EEB5-4B02-B3A2-B396B531A6AD";
shapes = (
{
closed = 1;
nodes = (
(226,0,l),
(226,534,l),
(23,534,l),
(23,435,l),
(87,435,l),
(87,0,l)
);
},
{
closed = 1;
nodes = (
(230,607,l),
(230,720,l),
(79,720,l),
(79,607,l)
);
}
);
width = 291;
}
);
unicode = 105;
userData = {
KernOnName = i;
};
},
{
color = 4;
glyphname = idotless;
kernLeft = i;
kernRight = i;
lastChange = "2024-09-11 12:47:21 +0000";
layers = (
{
anchors = (
{
name = top;
pos = (163,534);
}
);
layerId = "E307D395-0405-4E21-BEF1-246ADCA736E4";
shapes = (
{
closed = 1;
nodes = (
(196,0,l),
(196,534,l),
(35,534,l),
(35,483,l),
(134,483,l),
(134,0,l)
);
}
);
width = 291;
},
{
anchors = (
{
name = top;
pos = (154,534);
}
);
layerId = "4BA93484-EEB5-4B02-B3A2-B396B531A6AD";
shapes = (
{
closed = 1;
nodes = (
(226,0,l),
(226,534,l),
(23,534,l),
(23,435,l),
(87,435,l),
(87,0,l)
);
}
);
width = 291;
}
);
unicode = 305;
},
{
color = 4;
glyphname = j;
kernLeft = i;
kernRight = i;
lastChange = "2024-09-11 12:47:21 +0000";
layers = (
{
layerId = "E307D395-0405-4E21-BEF1-246ADCA736E4";
shapes = (
{
closed = 1;
nodes = (
(149,-164,ls),
(179,-164,o),
(196,-147,o),
(196,-117,cs),
(196,534,l),
(35,534,l),
(35,483,l),
(134,483,l),
(134,-113,l),
(-7,-113,l),
(-7,-164,l)
);
},
{
closed = 1;
nodes = (
(203,635,l),
(203,710,l),
(122,710,l),
(122,635,l)
);
}
);
width = 291;
},
{
layerId = "4BA93484-EEB5-4B02-B3A2-B396B531A6AD";
shapes = (
{
closed = 1;
nodes = (
(140,-164,ls),
(196,-164,o),
(226,-134,o),
(226,-78,cs),
(226,534,l),
(23,534,l),
(23,435,l),
(87,435,l),
(87,-65,l),
(-18,-65,l),
(-18,-164,l)
);
},
{
closed = 1;
nodes = (
(230,607,l),
(230,720,l),
(79,720,l),
(79,607,l)
);
}
);
width = 291;
}
);
unicode = 106;
},
{
color = 4;
glyphname = jdotless;
kernLeft = i;
kernRight = i;
lastChange = "2024-09-11 12:47:21 +0000";
layers = (
{
anchors = (
{
name = top;
pos = (166,534);
}
);
layerId = "E307D395-0405-4E21-BEF1-246ADCA736E4";
shapes = (
{
closed = 1;
nodes = (
(149,-164,ls),
(179,-164,o),
(196,-147,o),
(196,-117,cs),
(196,534,l),
(35,534,l),
(35,483,l),
(134,483,l),
(134,-113,l),
(-7,-113,l),
(-7,-164,l)
);
}
);
width = 291;
},
{
anchors = (
{
name = top;
pos = (157,534);
}
);
layerId = "4BA93484-EEB5-4B02-B3A2-B396B531A6AD";
shapes = (
{
closed = 1;
nodes = (
(140,-164,ls),
(196,-164,o),
(226,-134,o),
(226,-78,cs),
(226,534,l),
(23,534,l),
(23,435,l),
(87,435,l),
(87,-65,l),
(-18,-65,l),
(-18,-164,l)
);
}
);
width = 291;
}
);
unicode = 567;
},
{
color = 4;
glyphname = k;
kernLeft = h;
kernRight = k;
lastChange = "2024-09-11 12:47:21 +0000";
layers = (
{
layerId = "E307D395-0405-4E21-BEF1-246ADCA736E4";
shapes = (
{
closed = 1;
nodes = (
(157,0,l),
(157,265,l),
(472,0,l),
(561,0,l),
(190,313,l),
(198,251,l),
(547,534,l),
(460,534,l),
(157,287,l),
(157,722,l),
(95,722,l),
(95,0,l)
);
}
);
width = 575;
},
{
layerId = "4BA93484-EEB5-4B02-B3A2-B396B531A6AD";
shapes = (
{
closed = 1;
nodes = (
(205,0,l),
(205,260,l),
(414,0,l),
(583,0,l),
(301,343,l),
(300,222,l),
(572,534,l),
(408,534,l),
(205,292,l),
(205,722,l),
(66,722,l),
(66,0,l)
);
}
);
width = 575;
}
);
unicode = 107;
},
{
color = 4;
glyphname = l;
kernLeft = l;
kernRight = l;
lastChange = "2024-09-11 12:47:21 +0000";
layers = (
{
layerId = "E307D395-0405-4E21-BEF1-246ADCA736E4";
shapes = (
{
closed = 1;
nodes = (
(306,0,l),
(306,51,l),
(155,51,l),
(155,722,l),
(93,722,l),
(93,47,ls),
(93,17,o),
(109,0,o),
(140,0,cs)
);
}
);
width = 327;
},
{
layerId = "4BA93484-EEB5-4B02-B3A2-B396B531A6AD";
shapes = (
{
closed = 1;
nodes = (
(306,0,l),
(306,99,l),
(203,99,l),
(203,722,l),
(65,722,l),
(65,86,ls),
(65,30,o),
(95,0,o),
(150,0,cs)
);
}
);
width = 327;
}
);
unicode = 108;
userData = {
KernOnName = l;
};
},
{
color = 4;
glyphname = lslash;
lastChange = "2024-09-11 12:47:21 +0000";
layers = (
{
layerId = "E307D395-0405-4E21-BEF1-246ADCA736E4";
shapes = (
{
closed = 1;
nodes = (
(330,433,l),
(330,484,l),
(34,333,l),
(34,282,l)
);
},
{
closed = 1;
nodes = (
(341,0,l),
(341,51,l),
(190,51,l),
(190,722,l),
(128,722,l),
(128,47,ls),
(128,17,o),
(145,0,o),
(175,0,cs)
);
}
);
userData = {
assembly = "NPUSHB[ ]	/* 47 values pushed */
73 5 89 5 105 5 3 6 2 4 7 1 10 4 11 5 5 11 11 3 8 1 3 8 0 5 13 146 0 10 1 12 9 9 2 85 1 12 12 12 2 85 1 26 5 7 4 
PUSHW[ ]	/* 1 value pushed */
-34 
PUSHB[ ]	/* 5 values pushed */
16 16 2 85 4 
PUSHW[ ]	/* 1 value pushed */
-32 
NPUSHB[ ]	/* 11 values pushed */
15 15 2 85 4 12 9 9 2 85 4 
PUSHW[ ]	/* 1 value pushed */
-18 
PUSHB[ ]	/* 5 values pushed */
13 13 2 85 4 
PUSHW[ ]	/* 1 value pushed */
-10 
NPUSHB[ ]	/* 13 values pushed */
12 12 2 85 4 20 15 15 6 85 4 136 12 
SRP0[ ]	/* SetRefPoint0 */
MIRP[10100]	/* MoveIndirectRelPt */
CALL[ ]	/* CallFunction */
CALL[ ]	/* CallFunction */
CALL[ ]	/* CallFunction */
CALL[ ]	/* CallFunction */
CALL[ ]	/* CallFunction */
CALL[ ]	/* CallFunction */
SHP[0]	/* ShiftPointByLastPoint */
SHP[0]	/* ShiftPointByLastPoint */
MIRP[11101]	/* MoveIndirectRelPt */
CALL[ ]	/* CallFunction */
CALL[ ]	/* CallFunction */
SHP[0]	/* ShiftPointByLastPoint */
SHP[0]	/* ShiftPointByLastPoint */
MIRP[00110]	/* MoveIndirectRelPt */
MDAP[1]	/* MoveDirectAbsPt */
MDAP[1]	/* MoveDirectAbsPt */
SVTCA[0]	/* SetFreedomAndProjectionVectorToAxis */
MIAP[1]	/* MoveIndirectAbsPt */
MIAP[1]	/* MoveIndirectAbsPt */
SRP2[ ]	/* SetRefPoint2 */
IP[ ]	/* InterpolatePts */
MDAP[1]	/* MoveDirectAbsPt */
SHP[1]	/* ShiftPointByLastPoint */
MDAP[1]	/* MoveDirectAbsPt */
SRP2[ ]	/* SetRefPoint2 */
SLOOP[ ]	/* SetLoopVariable */
IP[ ]	/* InterpolatePts */
RS[ ]	/* ReadStore */
EQ[ ]	/* Equal */
IF[ ]	/* If */
PUSHB[ ]	/* 6 values pushed */
5 32 13 16 55 11 
PUSHW[ ]	/* 1 value pushed */
-32 
PUSHB[ ]	/* 3 values pushed */
13 16 55 
CALL[ ]	/* CallFunction */
CALL[ ]	/* CallFunction */
EIF[ ]	/* EndIf */
IUP[1]	/* InterpolateUntPts */
IUP[0]	/* InterpolateUntPts */
DELTAP1[ ]	/* DeltaExceptionP1 */";
};
width = 388;
},
{
layerId = "4BA93484-EEB5-4B02-B3A2-B396B531A6AD";
shapes = (
{
closed = 1;
nodes = (
(334,410,l),
(334,509,l),
(32,356,l),
(32,257,l)
);
},
{
closed = 1;
nodes = (
(345,0,l),
(345,99,l),
(242,99,l),
(242,722,l),
(104,722,l),
(104,86,ls),
(104,30,o),
(134,0,o),
(189,0,cs)
);
}
);
userData = {
assembly = "NPUSHB[ ]	/* 47 values pushed */
73 5 89 5 105 5 3 6 2 4 7 1 10 4 11 5 5 11 11 3 8 1 3 8 0 5 13 146 0 10 1 12 9 9 2 85 1 12 12 12 2 85 1 26 5 7 4 
PUSHW[ ]	/* 1 value pushed */
-34 
PUSHB[ ]	/* 5 values pushed */
16 16 2 85 4 
PUSHW[ ]	/* 1 value pushed */
-32 
NPUSHB[ ]	/* 11 values pushed */
15 15 2 85 4 12 9 9 2 85 4 
PUSHW[ ]	/* 1 value pushed */
-18 
PUSHB[ ]	/* 5 values pushed */
13 13 2 85 4 
PUSHW[ ]	/* 1 value pushed */
-10 
NPUSHB[ ]	/* 13 values pushed */
12 12 2 85 4 20 15 15 6 85 4 136 12 
SRP0[ ]	/* SetRefPoint0 */
MIRP[10100]	/* MoveIndirectRelPt */
CALL[ ]	/* CallFunction */
CALL[ ]	/* CallFunction */
CALL[ ]	/* CallFunction */
CALL[ ]	/* CallFunction */
CALL[ ]	/* CallFunction */
CALL[ ]	/* CallFunction */
SHP[0]	/* ShiftPointByLastPoint */
SHP[0]	/* ShiftPointByLastPoint */
MIRP[11101]	/* MoveIndirectRelPt */
CALL[ ]	/* CallFunction */
CALL[ ]	/* CallFunction */
SHP[0]	/* ShiftPointByLastPoint */
SHP[0]	/* ShiftPointByLastPoint */
MIRP[00110]	/* MoveIndirectRelPt */
MDAP[1]	/* MoveDirectAbsPt */
MDAP[1]	/* MoveDirectAbsPt */
SVTCA[0]	/* SetFreedomAndProjectionVectorToAxis */
MIAP[1]	/* MoveIndirectAbsPt */
MIAP[1]	/* MoveIndirectAbsPt */
SRP2[ ]	/* SetRefPoint2 */
IP[ ]	/* InterpolatePts */
MDAP[1]	/* MoveDirectAbsPt */
SHP[1]	/* ShiftPointByLastPoint */
MDAP[1]	/* MoveDirectAbsPt */
SRP2[ ]	/* SetRefPoint2 */
SLOOP[ ]	/* SetLoopVariable */
IP[ ]	/* InterpolatePts */
RS[ ]	/* ReadStore */
EQ[ ]	/* Equal */
IF[ ]	/* If */
PUSHB[ ]	/* 6 values pushed */
5 32 13 16 55 11 
PUSHW[ ]	/* 1 value pushed */
-32 
PUSHB[ ]	/* 3 values pushed */
13 16 55 
CALL[ ]	/* CallFunction */
CALL[ ]	/* CallFunction */
EIF[ ]	/* EndIf */
IUP[1]	/* InterpolateUntPts */
IUP[0]	/* InterpolateUntPts */
DELTAP1[ ]	/* DeltaExceptionP1 */";
};
width = 388;
}
);
note = lslash;
unicode = 322;
},
{
color = 4;
glyphname = m;
kernLeft = n;
kernRight = n;
lastChange = "2024-09-11 12:47:21 +0000";
layers = (
{
layerId = "E307D395-0405-4E21-BEF1-246ADCA736E4";
shapes = (
{
closed = 1;
nodes = (
(420,0,l),
(483,0,l),
(483,331,ls),
(483,437,o),
(525,489,o),
(615,489,cs),
(705,489,o),
(747,437,o),
(747,331,cs),
(747,0,l),
(809,0,l),
(809,337,ls),
(809,474,o),
(751,544,o),
(641,544,cs),
(563,544,o),
(516,515,o),
(481,459,c),
(465,459,l),
(434,515,o),
(387,544,o),
(314,544,cs),
(244,544,o),
(194,515,o),
(161,459,c),
(150,459,l),
(150,534,l),
(94,534,l),
(94,0,l),
(156,0,l),
(156,331,ls),
(156,437,o),
(199,489,o),
(288,489,cs),
(378,489,o),
(420,437,o),
(420,331,cs)
);
}
);
width = 895;
},
{
layerId = "4BA93484-EEB5-4B02-B3A2-B396B531A6AD";
shapes = (
{
closed = 1;
nodes = (
(381,0,l),
(520,0,l),
(520,329,ls),
(520,402,o),
(548,438,o),
(607,438,cs),
(666,438,o),
(695,402,o),
(695,329,cs),
(695,0,l),
(834,0,l),
(834,348,ls),
(834,476,o),
(778,544,o),
(673,544,cs),
(596,544,o),
(548,507,o),
(526,439,c),
(502,439,l),
(483,505,o),
(435,544,o),
(359,544,cs),
(283,544,o),
(235,507,o),
(213,439,c),
(194,439,l),
(194,534,l),
(67,534,l),
(67,0,l),
(205,0,l),
(205,329,ls),
(205,402,o),
(234,438,o),
(293,438,cs),
(352,438,o),
(381,402,o),
(381,329,cs)
);
}
);
width = 895;
}
);
unicode = 109;
},
{
color = 4;
glyphname = n;
kernLeft = n;
kernRight = n;
lastChange = "2024-09-11 12:47:21 +0000";
layers = (
{
anchors = (
{
name = top;
pos = (303,534);
}
);
layerId = "E307D395-0405-4E21-BEF1-246ADCA736E4";
shapes = (
{
closed = 1;
nodes = (
(156,0,l),
(156,324,ls),
(156,439,o),
(201,489,o),
(303,489,cs),
(404,489,o),
(449,439,o),
(449,324,cs),
(449,0,l),
(511,0,l),
(511,337,ls),
(511,474,o),
(449,544,o),
(329,544,cs),
(250,544,o),
(197,515,o),
(161,459,c),
(150,459,l),
(150,534,l),
(94,534,l),
(94,0,l)
);
}
);
width = 598;
},
{
anchors = (
{
name = top;
pos = (302,534);
}
);
layerId = "4BA93484-EEB5-4B02-B3A2-B396B531A6AD";
shapes = (
{
closed = 1;
nodes = (
(205,0,l),
(205,322,ls),
(205,402,o),
(236,438,o),
(301,438,cs),
(367,438,o),
(397,402,o),
(397,322,cs),
(397,0,l),
(536,0,l),
(536,348,ls),
(536,476,o),
(477,544,o),
(367,544,cs),
(288,544,o),
(238,507,o),
(213,439,c),
(194,439,l),
(194,534,l),
(67,534,l),
(67,0,l)
);
}
);
width = 598;
}
);
unicode = 110;
userData = {
KernOnName = n;
};
},
{
color = 4;
glyphname = o;
kernLeft = o;
kernRight = o;
lastChange = "2024-09-11 12:47:21 +0000";
layers = (
{
anchors = (
{
name = top;
pos = (303,534);
}
);
layerId = "E307D395-0405-4E21-BEF1-246ADCA736E4";
shapes = (
{
closed = 1;
nodes = (
(456,-10,o),
(548,90,o),
(548,267,cs),
(548,444,o),
(456,544,o),
(303,544,cs),
(149,544,o),
(57,444,o),
(57,267,cs),
(57,90,o),
(149,-10,o),
(303,-10,cs)
);
},
{
closed = 1;
nodes = (
(181,45,o),
(124,110,o),
(124,251,cs),
(124,283,ls),
(124,424,o),
(181,489,o),
(303,489,cs),
(425,489,o),
(482,424,o),
(482,283,cs),
(482,251,ls),
(482,110,o),
(425,45,o),
(303,45,cs)
);
}
);
width = 606;
},
{
anchors = (
{
name = top;
pos = (303,534);
}
);
layerId = "4BA93484-EEB5-4B02-B3A2-B396B531A6AD";
shapes = (
{
closed = 1;
nodes = (
(470,-10,o),
(568,90,o),
(568,267,cs),
(568,444,o),
(470,544,o),
(303,544,cs),
(136,544,o),
(37,444,o),
(37,267,cs),
(37,90,o),
(136,-10,o),
(303,-10,cs)
);
},
{
closed = 1;
nodes = (
(221,96,o),
(183,141,o),
(183,238,cs),
(183,296,ls),
(183,393,o),
(221,438,o),
(303,438,cs),
(385,438,o),
(422,393,o),
(422,296,cs),
(422,238,ls),
(422,141,o),
(385,96,o),
(303,96,cs)
);
}
);
width = 606;
}
);
unicode = 111;
userData = {
KernOnName = o;
};
},
{
color = 4;
glyphname = oslash;
kernLeft = o;
kernRight = o;
lastChange = "2024-09-11 12:47:21 +0000";
layers = (
{
anchors = (
{
name = top;
pos = (305,534);
}
);
layerId = "E307D395-0405-4E21-BEF1-246ADCA736E4";
shapes = (
{
closed = 1;
nodes = (
(458,-10,o),
(550,90,o),
(550,267,cs),
(550,444,o),
(458,544,o),
(305,544,cs),
(151,544,o),
(59,444,o),
(59,267,cs),
(59,90,o),
(151,-10,o),
(305,-10,cs)
);
},
{
closed = 1;
nodes = (
(183,45,o),
(126,109,o),
(126,251,cs),
(126,283,ls),
(126,424,o),
(183,489,o),
(305,489,cs),
(427,489,o),
(484,425,o),
(484,283,cs),
(484,251,ls),
(484,110,o),
(427,45,o),
(305,45,cs)
);
},
{
closed = 1;
nodes = (
(107,-30,l),
(177,59,l),
(179,59,l),
(471,444,l),
(473,444,l),
(564,564,l),
(503,564,l),
(433,475,l),
(431,475,l),
(139,90,l),
(137,90,l),
(46,-30,l)
);
}
);
userData = {
assembly = "NPUSHB[ ]	/* 63 values pushed */
0 8 15 20 10 25 41 38 4 0 24 0 37 2 0 24 0 37 2 9 20 0 24 0 37 61 29 50 43 77 29 66 43 7 6 2 33 38 24 37 4 41 27 62 6 9 18 21 4 3 15 4 41 62 3 10 33 38 24 37 4 30 34 
PUSHW[ ]	/* 1 value pushed */
-8 
PUSHB[ ]	/* 5 values pushed */
9 9 2 85 34 
PUSHW[ ]	/* 1 value pushed */
-12 
NPUSHB[ ]	/* 20 values pushed */
12 12 2 85 34 27 0 9 6 18 21 4 12 45 64 12 12 2 85 0 
PUSHW[ ]	/* 1 value pushed */
-4 
PUSHB[ ]	/* 5 values pushed */
11 11 2 85 0 
PUSHW[ ]	/* 1 value pushed */
-32 
NPUSHB[ ]	/* 63 values pushed */
16 16 2 85 0 24 12 12 2 85 0 144 45 15 45 31 45 63 45 111 45 4 30 4 9 9 2 85 30 12 12 12 2 85 30 27 12 22 11 11 2 85 12 24 9 9 2 85 12 8 12 12 2 85 12 4 13 13 2 85 12 133 44 
SRP0[ ]	/* SetRefPoint0 */
MIRP[10110]	/* MoveIndirectRelPt */
CALL[ ]	/* CallFunction */
CALL[ ]	/* CallFunction */
CALL[ ]	/* CallFunction */
CALL[ ]	/* CallFunction */
MIRP[01101]	/* MoveIndirectRelPt */
CALL[ ]	/* CallFunction */
CALL[ ]	/* CallFunction */
DELTAP1[ ]	/* DeltaExceptionP1 */
SRP0[ ]	/* SetRefPoint0 */
MIRP[00100]	/* MoveIndirectRelPt */
CALL[ ]	/* CallFunction */
CALL[ ]	/* CallFunction */
CALL[ ]	/* CallFunction */
CALL[ ]	/* CallFunction */
SRP1[ ]	/* SetRefPoint1 */
SLOOP[ ]	/* SetLoopVariable */
IP[ ]	/* InterpolatePts */
SRP0[ ]	/* SetRefPoint0 */
MIRP[01101]	/* MoveIndirectRelPt */
CALL[ ]	/* CallFunction */
CALL[ ]	/* CallFunction */
SRP1[ ]	/* SetRefPoint1 */
SLOOP[ ]	/* SetLoopVariable */
IP[ ]	/* InterpolatePts */
SVTCA[0]	/* SetFreedomAndProjectionVectorToAxis */
MIAP[1]	/* MoveIndirectAbsPt */
MIRP[01101]	/* MoveIndirectRelPt */
MIAP[1]	/* MoveIndirectAbsPt */
SRP2[ ]	/* SetRefPoint2 */
SLOOP[ ]	/* SetLoopVariable */
IP[ ]	/* InterpolatePts */
MIRP[11101]	/* MoveIndirectRelPt */
SRP1[ ]	/* SetRefPoint1 */
SLOOP[ ]	/* SetLoopVariable */
IP[ ]	/* InterpolatePts */
RS[ ]	/* ReadStore */
EQ[ ]	/* Equal */
IF[ ]	/* If */
MPPEM[ ]	/* MeasurePixelPerEm */
PUSHB[ ]	/* 1 value pushed */
12 
LTEQ[ ]	/* LessThenOrEqual */
IF[ ]	/* If */
PUSHB[ ]	/* 6 values pushed */
8 19 57 19 2 19 
MDAP[0]	/* MoveDirectAbsPt */
DELTAP1[ ]	/* DeltaExceptionP1 */
EIF[ ]	/* EndIf */
EIF[ ]	/* EndIf */
IUP[1]	/* InterpolateUntPts */
IUP[0]	/* InterpolateUntPts */
DELTAP1[ ]	/* DeltaExceptionP1 */
DELTAP1[ ]	/* DeltaExceptionP1 */
DELTAP1[ ]	/* DeltaExceptionP1 */
SVTCA[1]	/* SetFreedomAndProjectionVectorToAxis */
DELTAP1[ ]	/* DeltaExceptionP1 */";
};
width = 610;
},
{
anchors = (
{
name = top;
pos = (305,534);
}
);
layerId = "4BA93484-EEB5-4B02-B3A2-B396B531A6AD";
shapes = (
{
closed = 1;
nodes = (
(472,-10,o),
(570,90,o),
(570,267,cs),
(570,444,o),
(472,544,o),
(305,544,cs),
(138,544,o),
(39,444,o),
(39,267,cs),
(39,90,o),
(138,-10,o),
(305,-10,cs)
);
},
{
closed = 1;
nodes = (
(220,93,o),
(182,137,o),
(182,238,cs),
(182,296,ls),
(182,397,o),
(220,441,o),
(305,441,cs),
(390,441,o),
(428,397,o),
(428,296,cs),
(428,238,ls),
(428,137,o),
(390,93,o),
(305,93,cs)
);
},
{
closed = 1;
nodes = (
(116,-30,l),
(192,65,l),
(196,65,l),
(464,421,l),
(469,421,l),
(581,564,l),
(494,564,l),
(418,469,l),
(414,469,l),
(146,113,l),
(141,113,l),
(29,-30,l)
);
}
);
userData = {
assembly = "NPUSHB[ ]	/* 63 values pushed */
0 8 15 20 10 25 41 38 4 0 24 0 37 2 0 24 0 37 2 9 20 0 24 0 37 61 29 50 43 77 29 66 43 7 6 2 33 38 24 37 4 41 27 62 6 9 18 21 4 3 15 4 41 62 3 10 33 38 24 37 4 30 34 
PUSHW[ ]	/* 1 value pushed */
-8 
PUSHB[ ]	/* 5 values pushed */
9 9 2 85 34 
PUSHW[ ]	/* 1 value pushed */
-12 
NPUSHB[ ]	/* 20 values pushed */
12 12 2 85 34 27 0 9 6 18 21 4 12 45 64 12 12 2 85 0 
PUSHW[ ]	/* 1 value pushed */
-4 
PUSHB[ ]	/* 5 values pushed */
11 11 2 85 0 
PUSHW[ ]	/* 1 value pushed */
-32 
NPUSHB[ ]	/* 63 values pushed */
16 16 2 85 0 24 12 12 2 85 0 144 45 15 45 31 45 63 45 111 45 4 30 4 9 9 2 85 30 12 12 12 2 85 30 27 12 22 11 11 2 85 12 24 9 9 2 85 12 8 12 12 2 85 12 4 13 13 2 85 12 133 44 
SRP0[ ]	/* SetRefPoint0 */
MIRP[10110]	/* MoveIndirectRelPt */
CALL[ ]	/* CallFunction */
CALL[ ]	/* CallFunction */
CALL[ ]	/* CallFunction */
CALL[ ]	/* CallFunction */
MIRP[01101]	/* MoveIndirectRelPt */
CALL[ ]	/* CallFunction */
CALL[ ]	/* CallFunction */
DELTAP1[ ]	/* DeltaExceptionP1 */
SRP0[ ]	/* SetRefPoint0 */
MIRP[00100]	/* MoveIndirectRelPt */
CALL[ ]	/* CallFunction */
CALL[ ]	/* CallFunction */
CALL[ ]	/* CallFunction */
CALL[ ]	/* CallFunction */
SRP1[ ]	/* SetRefPoint1 */
SLOOP[ ]	/* SetLoopVariable */
IP[ ]	/* InterpolatePts */
SRP0[ ]	/* SetRefPoint0 */
MIRP[01101]	/* MoveIndirectRelPt */
CALL[ ]	/* CallFunction */
CALL[ ]	/* CallFunction */
SRP1[ ]	/* SetRefPoint1 */
SLOOP[ ]	/* SetLoopVariable */
IP[ ]	/* InterpolatePts */
SVTCA[0]	/* SetFreedomAndProjectionVectorToAxis */
MIAP[1]	/* MoveIndirectAbsPt */
MIRP[01101]	/* MoveIndirectRelPt */
MIAP[1]	/* MoveIndirectAbsPt */
SRP2[ ]	/* SetRefPoint2 */
SLOOP[ ]	/* SetLoopVariable */
IP[ ]	/* InterpolatePts */
MIRP[11101]	/* MoveIndirectRelPt */
SRP1[ ]	/* SetRefPoint1 */
SLOOP[ ]	/* SetLoopVariable */
IP[ ]	/* InterpolatePts */
RS[ ]	/* ReadStore */
EQ[ ]	/* Equal */
IF[ ]	/* If */
MPPEM[ ]	/* MeasurePixelPerEm */
PUSHB[ ]	/* 1 value pushed */
12 
LTEQ[ ]	/* LessThenOrEqual */
IF[ ]	/* If */
PUSHB[ ]	/* 6 values pushed */
8 19 57 19 2 19 
MDAP[0]	/* MoveDirectAbsPt */
DELTAP1[ ]	/* DeltaExceptionP1 */
EIF[ ]	/* EndIf */
EIF[ ]	/* EndIf */
IUP[1]	/* InterpolateUntPts */
IUP[0]	/* InterpolateUntPts */
DELTAP1[ ]	/* DeltaExceptionP1 */
DELTAP1[ ]	/* DeltaExceptionP1 */
DELTAP1[ ]	/* DeltaExceptionP1 */
SVTCA[1]	/* SetFreedomAndProjectionVectorToAxis */
DELTAP1[ ]	/* DeltaExceptionP1 */";
};
width = 610;
}
);
note = oslash;
unicode = 248;
},
{
color = 4;
glyphname = oe;
kernLeft = o;
kernRight = e;
lastChange = "2024-09-11 12:47:21 +0000";
layers = (
{
layerId = "E307D395-0405-4E21-BEF1-246ADCA736E4";
shapes = (
{
closed = 1;
nodes = (
(402,-10,o),
(470,34,o),
(503,96,c),
(515,96,l),
(548,34,o),
(613,-10,o),
(715,-10,cs),
(860,-10,o),
(945,81,o),
(945,247,c),
(964,141,l),
(866,141,l),
(866,141,l),
(866,115,o),
(832,45,o),
(715,45,cs),
(597,45,o),
(542,110,o),
(542,251,cs),
(542,284,ls),
(542,425,o),
(597,490,o),
(715,490,cs),
(832,490,o),
(887,425,o),
(887,284,cs),
(887,270,l),
(926,308,l),
(520,308,l),
(520,260,l),
(945,260,l),
(945,287,ls),
(945,452,o),
(858,544,o),
(715,544,cs),
(615,544,o),
(548,500,o),
(515,438,c),
(503,438,l),
(470,500,o),
(402,544,o),
(300,544,cs),
(148,544,o),
(58,444,o),
(58,267,cs),
(58,90,o),
(148,-10,o),
(300,-10,cs)
);
},
{
closed = 1;
nodes = (
(180,45,o),
(125,110,o),
(125,251,cs),
(125,283,ls),
(125,424,o),
(180,489,o),
(300,489,cs),
(421,489,o),
(476,424,o),
(476,283,cs),
(476,251,ls),
(476,110,o),
(421,45,o),
(300,45,cs)
);
}
);
userData = {
assembly = "NPUSHB[ ]	/* 87 values pushed */
38 4 32 13 50 4 48 13 50 41 59 46 50 48 50 52 59 54 64 4 64 13 64 41 77 46 64 48 64 52 77 54 83 13 83 20 92 22 92 26 83 28 83 34 98 13 98 28 98 34 112 13 114 34 27 1 60 43 18 30 43 3 15 40 61 33 4 47 63 27 4 11 11 7 63 15 10 53 63 21 10 30 18 43 1 26 44 
PUSHW[ ]	/* 1 value pushed */
-16 
NPUSHB[ ]	/* 11 values pushed */
16 16 2 85 44 30 12 12 2 85 44 
PUSHW[ ]	/* 1 value pushed */
-4 
NPUSHB[ ]	/* 11 values pushed */
11 11 2 85 127 44 1 44 12 12 37 
PUSHW[ ]	/* 1 value pushed */
-8 
NPUSHB[ ]	/* 16 values pushed */
12 12 2 85 37 26 0 44 24 0 8 15 15 2 85 0 
PUSHW[ ]	/* 1 value pushed */
-8 
PUSHB[ ]	/* 5 values pushed */
12 12 2 85 0 
PUSHW[ ]	/* 1 value pushed */
-16 
PUSHB[ ]	/* 5 values pushed */
11 11 2 85 0 
PUSHW[ ]	/* 1 value pushed */
-28 
NPUSHB[ ]	/* 51 values pushed */
9 9 2 85 0 143 57 63 57 1 50 4 9 9 2 85 50 12 12 12 2 85 50 27 24 22 11 11 2 85 24 24 9 9 2 85 24 8 12 12 2 85 24 4 13 13 2 85 24 133 56 
SRP0[ ]	/* SetRefPoint0 */
MIRP[10110]	/* MoveIndirectRelPt */
CALL[ ]	/* CallFunction */
CALL[ ]	/* CallFunction */
CALL[ ]	/* CallFunction */
CALL[ ]	/* CallFunction */
MIRP[01101]	/* MoveIndirectRelPt */
CALL[ ]	/* CallFunction */
CALL[ ]	/* CallFunction */
DELTAP1[ ]	/* DeltaExceptionP1 */
SRP0[ ]	/* SetRefPoint0 */
MIRP[00100]	/* MoveIndirectRelPt */
CALL[ ]	/* CallFunction */
CALL[ ]	/* CallFunction */
CALL[ ]	/* CallFunction */
CALL[ ]	/* CallFunction */
SRP1[ ]	/* SetRefPoint1 */
IP[ ]	/* InterpolatePts */
SRP0[ ]	/* SetRefPoint0 */
MIRP[01101]	/* MoveIndirectRelPt */
CALL[ ]	/* CallFunction */
SHP[1]	/* ShiftPointByLastPoint */
MDAP[1]	/* MoveDirectAbsPt */
MDAP[1]	/* MoveDirectAbsPt */
DELTAP1[ ]	/* DeltaExceptionP1 */
CALL[ ]	/* CallFunction */
CALL[ ]	/* CallFunction */
CALL[ ]	/* CallFunction */
MIRP[11101]	/* MoveIndirectRelPt */
SHP[0]	/* ShiftPointByLastPoint */
IP[ ]	/* InterpolatePts */
IP[ ]	/* InterpolatePts */
SVTCA[0]	/* SetFreedomAndProjectionVectorToAxis */
MIAP[1]	/* MoveIndirectAbsPt */
MIRP[01101]	/* MoveIndirectRelPt */
MIAP[1]	/* MoveIndirectAbsPt */
MIRP[01101]	/* MoveIndirectRelPt */
SHP[1]	/* ShiftPointByLastPoint */
MDAP[1]	/* MoveDirectAbsPt */
MIAP[1]	/* MoveIndirectAbsPt */
MIRP[01101]	/* MoveIndirectRelPt */
MIAP[1]	/* MoveIndirectAbsPt */
MIRP[01101]	/* MoveIndirectRelPt */
SRP2[ ]	/* SetRefPoint2 */
SLOOP[ ]	/* SetLoopVariable */
IP[ ]	/* InterpolatePts */
MDAP[1]	/* MoveDirectAbsPt */
MIRP[01101]	/* MoveIndirectRelPt */
IUP[1]	/* InterpolateUntPts */
IUP[0]	/* InterpolateUntPts */
SVTCA[1]	/* SetFreedomAndProjectionVectorToAxis */
DELTAP1[ ]	/* DeltaExceptionP1 */";
};
width = 1002;
},
{
layerId = "4BA93484-EEB5-4B02-B3A2-B396B531A6AD";
shapes = (
{
closed = 1;
nodes = (
(398,-10,o),
(469,23,o),
(498,81,c),
(517,81,l),
(546,23,o),
(616,-10,o),
(710,-10,cs),
(870,-10,o),
(964,82,o),
(963.993,247,c),
(978,151,l),
(809,151,l),
(809,147,l),
(809,134,o),
(782,96,o),
(710,96,cs),
(631,96,o),
(595,141,o),
(595,238,cs),
(595,300,ls),
(595,397,o),
(631,441,o),
(710,441,cs),
(790,441,o),
(826,397,o),
(826,300,cs),
(826,273,l),
(866,328,l),
(537,328,l),
(537,240,l),
(964,240,l),
(964,287,ls),
(964,452,o),
(870,544,o),
(710,544,cs),
(617,544,o),
(546,511,o),
(517,453,c),
(498,453,l),
(469,511,o),
(397,544,o),
(302,544,cs),
(135,544,o),
(37,444,o),
(37,267,cs),
(37,90,o),
(135,-10,o),
(302,-10,cs)
);
},
{
closed = 1;
nodes = (
(221,96,o),
(183,141,o),
(183,238,cs),
(183,296,ls),
(183,393,o),
(221,438,o),
(302,438,cs),
(383,438,o),
(420,393,o),
(420,296,cs),
(420,238,ls),
(420,141,o),
(383,96,o),
(302,96,cs)
);
}
);
userData = {
assembly = "NPUSHB[ ]	/* 87 values pushed */
38 4 32 13 50 4 48 13 50 41 59 46 50 48 50 52 59 54 64 4 64 13 64 41 77 46 64 48 64 52 77 54 83 13 83 20 92 22 92 26 83 28 83 34 98 13 98 28 98 34 112 13 114 34 27 1 60 43 18 30 43 3 15 40 61 33 4 47 63 27 4 11 11 7 63 15 10 53 63 21 10 30 18 43 1 26 44 
PUSHW[ ]	/* 1 value pushed */
-16 
NPUSHB[ ]	/* 11 values pushed */
16 16 2 85 44 30 12 12 2 85 44 
PUSHW[ ]	/* 1 value pushed */
-4 
NPUSHB[ ]	/* 11 values pushed */
11 11 2 85 127 44 1 44 12 12 37 
PUSHW[ ]	/* 1 value pushed */
-8 
NPUSHB[ ]	/* 16 values pushed */
12 12 2 85 37 26 0 44 24 0 8 15 15 2 85 0 
PUSHW[ ]	/* 1 value pushed */
-8 
PUSHB[ ]	/* 5 values pushed */
12 12 2 85 0 
PUSHW[ ]	/* 1 value pushed */
-16 
PUSHB[ ]	/* 5 values pushed */
11 11 2 85 0 
PUSHW[ ]	/* 1 value pushed */
-28 
NPUSHB[ ]	/* 51 values pushed */
9 9 2 85 0 143 57 63 57 1 50 4 9 9 2 85 50 12 12 12 2 85 50 27 24 22 11 11 2 85 24 24 9 9 2 85 24 8 12 12 2 85 24 4 13 13 2 85 24 133 56 
SRP0[ ]	/* SetRefPoint0 */
MIRP[10110]	/* MoveIndirectRelPt */
CALL[ ]	/* CallFunction */
CALL[ ]	/* CallFunction */
CALL[ ]	/* CallFunction */
CALL[ ]	/* CallFunction */
MIRP[01101]	/* MoveIndirectRelPt */
CALL[ ]	/* CallFunction */
CALL[ ]	/* CallFunction */
DELTAP1[ ]	/* DeltaExceptionP1 */
SRP0[ ]	/* SetRefPoint0 */
MIRP[00100]	/* MoveIndirectRelPt */
CALL[ ]	/* CallFunction */
CALL[ ]	/* CallFunction */
CALL[ ]	/* CallFunction */
CALL[ ]	/* CallFunction */
SRP1[ ]	/* SetRefPoint1 */
IP[ ]	/* InterpolatePts */
SRP0[ ]	/* SetRefPoint0 */
MIRP[01101]	/* MoveIndirectRelPt */
CALL[ ]	/* CallFunction */
SHP[1]	/* ShiftPointByLastPoint */
MDAP[1]	/* MoveDirectAbsPt */
MDAP[1]	/* MoveDirectAbsPt */
DELTAP1[ ]	/* DeltaExceptionP1 */
CALL[ ]	/* CallFunction */
CALL[ ]	/* CallFunction */
CALL[ ]	/* CallFunction */
MIRP[11101]	/* MoveIndirectRelPt */
SHP[0]	/* ShiftPointByLastPoint */
IP[ ]	/* InterpolatePts */
IP[ ]	/* InterpolatePts */
SVTCA[0]	/* SetFreedomAndProjectionVectorToAxis */
MIAP[1]	/* MoveIndirectAbsPt */
MIRP[01101]	/* MoveIndirectRelPt */
MIAP[1]	/* MoveIndirectAbsPt */
MIRP[01101]	/* MoveIndirectRelPt */
SHP[1]	/* ShiftPointByLastPoint */
MDAP[1]	/* MoveDirectAbsPt */
MIAP[1]	/* MoveIndirectAbsPt */
MIRP[01101]	/* MoveIndirectRelPt */
MIAP[1]	/* MoveIndirectAbsPt */
MIRP[01101]	/* MoveIndirectRelPt */
SRP2[ ]	/* SetRefPoint2 */
SLOOP[ ]	/* SetLoopVariable */
IP[ ]	/* InterpolatePts */
MDAP[1]	/* MoveDirectAbsPt */
MIRP[01101]	/* MoveIndirectRelPt */
IUP[1]	/* InterpolateUntPts */
IUP[0]	/* InterpolateUntPts */
SVTCA[1]	/* SetFreedomAndProjectionVectorToAxis */
DELTAP1[ ]	/* DeltaExceptionP1 */";
};
width = 1002;
}
);
note = oe;
unicode = 339;
},
{
color = 4;
glyphname = p;
kernLeft = n;
kernRight = b;
lastChange = "2024-09-11 12:47:21 +0000";
layers = (
{
layerId = "E307D395-0405-4E21-BEF1-246ADCA736E4";
shapes = (
{
closed = 1;
nodes = (
(156,-164,l),
(156,-35,ls),
(156,-4,o),
(156,28,o),
(152,83,c),
(163,83,l),
(204,22,o),
(260,-10,o),
(339,-10,cs),
(480,-10,o),
(563,90,o),
(563,267,cs),
(563,444,o),
(480,544,o),
(339,544,cs),
(260,544,o),
(203,511,o),
(161,446,c),
(150,446,l),
(150,534,l),
(94,534,l),
(94,-164,l)
);
},
{
closed = 1;
nodes = (
(210,45,o),
(156,110,o),
(156,250,cs),
(156,284,ls),
(156,424,o),
(210,489,o),
(327,489,cs),
(443,489,o),
(497,424,o),
(497,284,cs),
(497,250,ls),
(497,110,o),
(443,45,o),
(327,45,cs)
);
}
);
width = 621;
},
{
layerId = "4BA93484-EEB5-4B02-B3A2-B396B531A6AD";
shapes = (
{
closed = 1;
nodes = (
(205,-164,l),
(205,-24,ls),
(205,4,o),
(205,36,o),
(202,88,c),
(221,88,l),
(244,26,o),
(296,-10,o),
(373,-10,cs),
(500,-10,o),
(582,95,o),
(582,267,cs),
(582,439,o),
(499,544,o),
(373,544,cs),
(294,544,o),
(238,503,o),
(213,437,c),
(194,437,l),
(194,534,l),
(67,534,l),
(67,-164,l)
);
},
{
closed = 1;
nodes = (
(242,96,o),
(205,141,o),
(205,237,cs),
(205,297,ls),
(205,393,o),
(242,438,o),
(321,438,cs),
(400,438,o),
(436,393,o),
(436,297,cs),
(436,237,ls),
(436,141,o),
(400,96,o),
(321,96,cs)
);
}
);
width = 621;
}
);
unicode = 112;
},
{
color = 4;
glyphname = thorn;
kernLeft = h;
kernRight = b;
lastChange = "2024-09-11 12:47:21 +0000";
layers = (
{
layerId = "E307D395-0405-4E21-BEF1-246ADCA736E4";
shapes = (
{
closed = 1;
nodes = (
(156,-164,l),
(156,-35,ls),
(156,-4,o),
(156,28,o),
(152,83,c),
(163,83,l),
(204,22,o),
(260,-10,o),
(339,-10,cs),
(480,-10,o),
(563,90,o),
(563,267,cs),
(563,444,o),
(480,544,o),
(339,544,cs),
(260,544,o),
(204,512,o),
(163,451,c),
(152,451,l),
(156,506,o),
(156,538,o),
(156,569,cs),
(156,722,l),
(94,722,l),
(94,-164,l)
);
},
{
closed = 1;
nodes = (
(210,45,o),
(156,110,o),
(156,250,cs),
(156,284,ls),
(156,424,o),
(210,489,o),
(327,489,cs),
(443,489,o),
(497,424,o),
(497,284,cs),
(497,250,ls),
(497,110,o),
(443,45,o),
(327,45,cs)
);
}
);
userData = {
assembly = "NPUSHB[ ]	/* 37 values pushed */
50 2 57 21 50 32 67 2 73 21 66 32 86 18 103 18 126 8 124 28 10 14 9 6 23 66 17 4 12 1 30 64 6 9 11 12 20 
PUSHW[ ]	/* 1 value pushed */
-12 
PUSHB[ ]	/* 7 values pushed */
12 12 2 85 20 27 0 
PUSHW[ ]	/* 1 value pushed */
-16 
PUSHB[ ]	/* 5 values pushed */
11 11 2 85 0 
PUSHW[ ]	/* 1 value pushed */
-48 
PUSHB[ ]	/* 5 values pushed */
16 16 2 85 0 
PUSHW[ ]	/* 1 value pushed */
-16 
NPUSHB[ ]	/* 11 values pushed */
15 15 2 85 0 18 12 12 2 85 0 
PUSHW[ ]	/* 1 value pushed */
-14 
NPUSHB[ ]	/* 29 values pushed */
13 13 2 85 0 144 34 31 34 63 34 2 14 27 9 12 9 9 2 85 9 12 12 12 2 85 9 26 12 
PUSHW[ ]	/* 1 value pushed */
-34 
PUSHB[ ]	/* 5 values pushed */
16 16 2 85 12 
PUSHW[ ]	/* 1 value pushed */
-30 
NPUSHB[ ]	/* 11 values pushed */
15 15 2 85 12 12 9 9 2 85 12 
PUSHW[ ]	/* 1 value pushed */
-10 
PUSHB[ ]	/* 5 values pushed */
12 12 2 85 12 
PUSHW[ ]	/* 1 value pushed */
-18 
PUSHB[ ]	/* 5 values pushed */
13 13 2 85 12 
PUSHW[ ]	/* 1 value pushed */
-18 
PUSHB[ ]	/* 5 values pushed */
15 15 6 85 12 
PUSHW[ ]	/* 1 value pushed */
-20 
PUSHB[ ]	/* 5 values pushed */
13 13 6 85 12 
PUSHW[ ]	/* 1 value pushed */
-20 
NPUSHB[ ]	/* 13 values pushed */
12 12 6 85 12 6 9 9 6 85 12 136 33 
SRP0[ ]	/* SetRefPoint0 */
MIRP[10110]	/* MoveIndirectRelPt */
CALL[ ]	/* CallFunction */
CALL[ ]	/* CallFunction */
CALL[ ]	/* CallFunction */
CALL[ ]	/* CallFunction */
CALL[ ]	/* CallFunction */
CALL[ ]	/* CallFunction */
CALL[ ]	/* CallFunction */
CALL[ ]	/* CallFunction */
CALL[ ]	/* CallFunction */
MIRP[11101]	/* MoveIndirectRelPt */
CALL[ ]	/* CallFunction */
CALL[ ]	/* CallFunction */
SHP[0]	/* ShiftPointByLastPoint */
SHP[0]	/* ShiftPointByLastPoint */
DELTAP1[ ]	/* DeltaExceptionP1 */
SRP0[ ]	/* SetRefPoint0 */
MIRP[10100]	/* MoveIndirectRelPt */
CALL[ ]	/* CallFunction */
CALL[ ]	/* CallFunction */
CALL[ ]	/* CallFunction */
CALL[ ]	/* CallFunction */
CALL[ ]	/* CallFunction */
MIRP[01101]	/* MoveIndirectRelPt */
CALL[ ]	/* CallFunction */
SVTCA[0]	/* SetFreedomAndProjectionVectorToAxis */
MIAP[1]	/* MoveIndirectAbsPt */
MIAP[1]	/* MoveIndirectAbsPt */
MIRP[01101]	/* MoveIndirectRelPt */
MIAP[1]	/* MoveIndirectAbsPt */
MIAP[1]	/* MoveIndirectAbsPt */
MIRP[01101]	/* MoveIndirectRelPt */
SRP2[ ]	/* SetRefPoint2 */
IP[ ]	/* InterpolatePts */
IP[ ]	/* InterpolatePts */
IUP[1]	/* InterpolateUntPts */
IUP[0]	/* InterpolateUntPts */
DELTAP1[ ]	/* DeltaExceptionP1 */";
};
width = 621;
},
{
layerId = "4BA93484-EEB5-4B02-B3A2-B396B531A6AD";
shapes = (
{
closed = 1;
nodes = (
(205,-164,l),
(205,-24,ls),
(205,4,o),
(205,36,o),
(202,88,c),
(221,88,l),
(244,26,o),
(296,-10,o),
(373,-10,cs),
(499,-10,o),
(582,95,o),
(582,267,cs),
(582,439,o),
(499,544,o),
(373,544,cs),
(296,544,o),
(244,508,o),
(221,446,c),
(202,446,l),
(205,498,o),
(205,530,o),
(205,561,cs),
(205,722,l),
(67,722,l),
(67,-164,l)
);
},
{
closed = 1;
nodes = (
(242,96,o),
(205,141,o),
(205,237,cs),
(205,297,ls),
(205,393,o),
(242,438,o),
(321,438,cs),
(400,438,o),
(436,393,o),
(436,297,cs),
(436,237,ls),
(436,141,o),
(400,96,o),
(321,96,cs)
);
}
);
userData = {
assembly = "NPUSHB[ ]	/* 37 values pushed */
50 2 57 21 50 32 67 2 73 21 66 32 86 18 103 18 126 8 124 28 10 14 9 6 23 66 17 4 12 1 30 64 6 9 11 12 20 
PUSHW[ ]	/* 1 value pushed */
-12 
PUSHB[ ]	/* 7 values pushed */
12 12 2 85 20 27 0 
PUSHW[ ]	/* 1 value pushed */
-16 
PUSHB[ ]	/* 5 values pushed */
11 11 2 85 0 
PUSHW[ ]	/* 1 value pushed */
-48 
PUSHB[ ]	/* 5 values pushed */
16 16 2 85 0 
PUSHW[ ]	/* 1 value pushed */
-16 
NPUSHB[ ]	/* 11 values pushed */
15 15 2 85 0 18 12 12 2 85 0 
PUSHW[ ]	/* 1 value pushed */
-14 
NPUSHB[ ]	/* 29 values pushed */
13 13 2 85 0 144 34 31 34 63 34 2 14 27 9 12 9 9 2 85 9 12 12 12 2 85 9 26 12 
PUSHW[ ]	/* 1 value pushed */
-34 
PUSHB[ ]	/* 5 values pushed */
16 16 2 85 12 
PUSHW[ ]	/* 1 value pushed */
-30 
NPUSHB[ ]	/* 11 values pushed */
15 15 2 85 12 12 9 9 2 85 12 
PUSHW[ ]	/* 1 value pushed */
-10 
PUSHB[ ]	/* 5 values pushed */
12 12 2 85 12 
PUSHW[ ]	/* 1 value pushed */
-18 
PUSHB[ ]	/* 5 values pushed */
13 13 2 85 12 
PUSHW[ ]	/* 1 value pushed */
-18 
PUSHB[ ]	/* 5 values pushed */
15 15 6 85 12 
PUSHW[ ]	/* 1 value pushed */
-20 
PUSHB[ ]	/* 5 values pushed */
13 13 6 85 12 
PUSHW[ ]	/* 1 value pushed */
-20 
NPUSHB[ ]	/* 13 values pushed */
12 12 6 85 12 6 9 9 6 85 12 136 33 
SRP0[ ]	/* SetRefPoint0 */
MIRP[10110]	/* MoveIndirectRelPt */
CALL[ ]	/* CallFunction */
CALL[ ]	/* CallFunction */
CALL[ ]	/* CallFunction */
CALL[ ]	/* CallFunction */
CALL[ ]	/* CallFunction */
CALL[ ]	/* CallFunction */
CALL[ ]	/* CallFunction */
CALL[ ]	/* CallFunction */
CALL[ ]	/* CallFunction */
MIRP[11101]	/* MoveIndirectRelPt */
CALL[ ]	/* CallFunction */
CALL[ ]	/* CallFunction */
SHP[0]	/* ShiftPointByLastPoint */
SHP[0]	/* ShiftPointByLastPoint */
DELTAP1[ ]	/* DeltaExceptionP1 */
SRP0[ ]	/* SetRefPoint0 */
MIRP[10100]	/* MoveIndirectRelPt */
CALL[ ]	/* CallFunction */
CALL[ ]	/* CallFunction */
CALL[ ]	/* CallFunction */
CALL[ ]	/* CallFunction */
CALL[ ]	/* CallFunction */
MIRP[01101]	/* MoveIndirectRelPt */
CALL[ ]	/* CallFunction */
SVTCA[0]	/* SetFreedomAndProjectionVectorToAxis */
MIAP[1]	/* MoveIndirectAbsPt */
MIAP[1]	/* MoveIndirectAbsPt */
MIRP[01101]	/* MoveIndirectRelPt */
MIAP[1]	/* MoveIndirectAbsPt */
MIAP[1]	/* MoveIndirectAbsPt */
MIRP[01101]	/* MoveIndirectRelPt */
SRP2[ ]	/* SetRefPoint2 */
IP[ ]	/* InterpolatePts */
IP[ ]	/* InterpolatePts */
IUP[1]	/* InterpolateUntPts */
IUP[0]	/* InterpolateUntPts */
DELTAP1[ ]	/* DeltaExceptionP1 */";
};
width = 621;
}
);
note = thorn;
unicode = 254;
},
{
color = 4;
glyphname = q;
kernLeft = d;
kernRight = g;
lastChange = "2024-09-11 12:47:21 +0000";
layers = (
{
layerId = "E307D395-0405-4E21-BEF1-246ADCA736E4";
shapes = (
{
closed = 1;
nodes = (
(527,-164,l),
(527,534,l),
(472,534,l),
(472,446,l),
(460,446,l),
(418,511,o),
(362,544,o),
(282,544,cs),
(141,544,o),
(58,444,o),
(58,267,cs),
(58,90,o),
(141,-10,o),
(282,-10,cs),
(361,-10,o),
(417,22,o),
(458,83,c),
(470,83,l),
(465,28,o),
(465,-4,o),
(465,-35,cs),
(465,-164,l)
);
},
{
closed = 1;
nodes = (
(178,45,o),
(124,110,o),
(124,250,cs),
(124,284,ls),
(124,424,o),
(178,489,o),
(294,489,cs),
(411,489,o),
(465,424,o),
(465,284,cs),
(465,250,ls),
(465,110,o),
(411,45,o),
(294,45,cs)
);
}
);
width = 619;
},
{
layerId = "4BA93484-EEB5-4B02-B3A2-B396B531A6AD";
shapes = (
{
closed = 1;
nodes = (
(554,-164,l),
(554,534,l),
(426,534,l),
(426,437,l),
(407,437,l),
(382,503,o),
(326,544,o),
(247,544,cs),
(122,544,o),
(38,439,o),
(38,267,cs),
(38,95,o),
(120,-10,o),
(247,-10,cs),
(324,-10,o),
(376,26,o),
(399,88,c),
(418,88,l),
(415,36,o),
(415,4,o),
(415,-24,cs),
(415,-164,l)
);
},
{
closed = 1;
nodes = (
(220,96,o),
(184,141,o),
(184,237,cs),
(184,297,ls),
(184,393,o),
(220,438,o),
(299,438,cs),
(379,438,o),
(415,393,o),
(415,297,cs),
(415,237,ls),
(415,141,o),
(379,96,o),
(299,96,cs)
);
}
);
width = 619;
}
);
unicode = 113;
},
{
color = 4;
glyphname = r;
kernLeft = n;
lastChange = "2024-09-11 12:47:21 +0000";
layers = (
{
layerId = "E307D395-0405-4E21-BEF1-246ADCA736E4";
shapes = (
{
closed = 1;
nodes = (
(156,0,l),
(156,318,ls),
(156,433,o),
(201,479,o),
(303,479,cs),
(432,479,l),
(432,538,l),
(325,538,ls),
(246,538,o),
(197,509,o),
(161,453,c),
(150,453,l),
(150,534,l),
(94,534,l),
(94,0,l)
);
}
);
width = 465;
},
{
layerId = "4BA93484-EEB5-4B02-B3A2-B396B531A6AD";
shapes = (
{
closed = 1;
nodes = (
(205,0,l),
(205,315,ls),
(205,394,o),
(236,428,o),
(301,428,cs),
(441,428,l),
(441,541,l),
(360,541,ls),
(284,541,o),
(238,506,o),
(213,438,c),
(194,438,l),
(194,534,l),
(67,534,l),
(67,0,l)
);
}
);
width = 465;
}
);
unicode = 114;
userData = {
KernOnName = r;
};
},
{
color = 4;
glyphname = s;
kernLeft = s;
kernRight = s;
lastChange = "2024-09-11 12:47:21 +0000";
layers = (
{
anchors = (
{
name = top;
pos = (270,534);
}
);
layerId = "E307D395-0405-4E21-BEF1-246ADCA736E4";
shapes = (
{
closed = 1;
nodes = (
(416,-10,o),
(496,49,o),
(496,148,cs),
(496,223,o),
(450,263,o),
(347,285,cs),
(232,307,ls),
(152,323,o),
(122,345,o),
(122,391,cs),
(122,454,o),
(179,490,o),
(274,490,cs),
(398,490,o),
(427,427,o),
(427,393,cs),
(427,393,l),
(518,393,l),
(502,287,l),
(502,466,o),
(432,544,o),
(274,544,cs),
(138,544,o),
(59,485,o),
(59,387,cs),
(59,312,o),
(104,271,o),
(206,250,cs),
(321,227,ls),
(403,210,o),
(434,188,o),
(434,143,cs),
(434,80,o),
(374,44,o),
(277,44,cs),
(152,44,o),
(123,107,o),
(123,141,cs),
(123,141,l),
(31,141,l),
(47,247,l),
(47,68,o),
(117,-10,o),
(277,-10,cs)
);
}
);
width = 552;
},
{
anchors = (
{
name = top;
pos = (270,534);
}
);
layerId = "4BA93484-EEB5-4B02-B3A2-B396B531A6AD";
shapes = (
{
closed = 1;
nodes = (
(430,-10,o),
(515,51,o),
(515,161,cs),
(515,244,o),
(467,288,o),
(358,310,cs),
(243,333,ls),
(196,343,o),
(178,357,o),
(178,385,cs),
(178,422,o),
(212,441,o),
(274,441,cs),
(349,441,o),
(372,409,o),
(372,387,cs),
(372,383,l),
(537,383,l),
(520,287,l),
(520,467,o),
(445,544,o),
(273.993,544,cs),
(122,544,o),
(38,483,o),
(38,373,cs),
(38,291,o),
(86,246,o),
(194,224,cs),
(309,201,ls),
(357,191,o),
(376,177,o),
(376,149,cs),
(376,112,o),
(340,93,o),
(277,93,cs),
(199,93,o),
(176,125,o),
(176,147,cs),
(176,151,l),
(11,151,l),
(28,247,l),
(28,67,o),
(104,-10,o),
(277,-10,cs)
);
}
);
width = 552;
}
);
unicode = 115;
},
{
color = 4;
glyphname = germandbls;
kernLeft = h;
lastChange = "2024-09-11 12:47:21 +0000";
layers = (
{
layerId = "E307D395-0405-4E21-BEF1-246ADCA736E4";
shapes = (
{
closed = 1;
nodes = (
(94,0,l),
(156,0,l),
(156,500,ls),
(156,594,o),
(211,644,o),
(315,644,cs),
(413,644,o),
(465,600,o),
(465,518,cs),
(465,501,ls),
(465,426,o),
(424,386,o),
(346,386,cs),
(259,386,l),
(259,334,l),
(350,334,ls),
(443,334,o),
(492,290,o),
(492,205,cs),
(492,181,ls),
(492,96,o),
(443,51,o),
(350,51,cs),
(244,51,l),
(244,0,l),
(356,0,ls),
(482,0,o),
(556,71,o),
(556,193,cs),
(556,285,o),
(511,340,o),
(423,354,c),
(423,366,l),
(494,378,o),
(529,426,o),
(529,510,cs),
(529,627,o),
(448,700,o),
(315,700,cs),
(178,700,o),
(94,621,o),
(94,493,cs)
);
}
);
userData = {
assembly = "NPUSHB[ ]	/* 65 values pushed */
5 46 21 46 46 19 44 52 57 19 57 52 55 54 73 14 70 54 83 33 102 33 123 27 12 52 51 20 61 21 30 60 21 3 45 0 7 7 11 61 3 9 38 8 24 27 48 52 0 20 12 6 28 6 2 6 17 27 0 6 20 48 3 37 0 
PUSHW[ ]	/* 1 value pushed */
-10 
PUSHB[ ]	/* 5 values pushed */
13 13 2 85 0 
PUSHW[ ]	/* 1 value pushed */
-10 
NPUSHB[ ]	/* 22 values pushed */
11 11 2 85 0 144 56 37 12 12 12 2 85 37 12 9 9 2 85 37 26 38 
PUSHW[ ]	/* 1 value pushed */
-34 
PUSHB[ ]	/* 5 values pushed */
16 16 2 85 38 
PUSHW[ ]	/* 1 value pushed */
-32 
PUSHB[ ]	/* 5 values pushed */
15 15 2 85 38 
PUSHW[ ]	/* 1 value pushed */
-18 
PUSHB[ ]	/* 5 values pushed */
13 13 2 85 38 
PUSHW[ ]	/* 1 value pushed */
-10 
NPUSHB[ ]	/* 11 values pushed */
12 12 2 85 38 12 9 9 2 85 38 
PUSHW[ ]	/* 1 value pushed */
-24 
PUSHB[ ]	/* 5 values pushed */
15 15 6 85 38 
PUSHW[ ]	/* 1 value pushed */
-21 
PUSHB[ ]	/* 5 values pushed */
13 13 6 85 38 
PUSHW[ ]	/* 1 value pushed */
-4 
NPUSHB[ ]	/* 13 values pushed */
12 12 6 85 38 6 9 9 6 85 38 136 55 
SRP0[ ]	/* SetRefPoint0 */
MIRP[10110]	/* MoveIndirectRelPt */
CALL[ ]	/* CallFunction */
CALL[ ]	/* CallFunction */
CALL[ ]	/* CallFunction */
CALL[ ]	/* CallFunction */
CALL[ ]	/* CallFunction */
CALL[ ]	/* CallFunction */
CALL[ ]	/* CallFunction */
CALL[ ]	/* CallFunction */
CALL[ ]	/* CallFunction */
MIRP[01101]	/* MoveIndirectRelPt */
CALL[ ]	/* CallFunction */
CALL[ ]	/* CallFunction */
SRP0[ ]	/* SetRefPoint0 */
MIRP[00110]	/* MoveIndirectRelPt */
CALL[ ]	/* CallFunction */
CALL[ ]	/* CallFunction */
SRP1[ ]	/* SetRefPoint1 */
SLOOP[ ]	/* SetLoopVariable */
IP[ ]	/* InterpolatePts */
SRP0[ ]	/* SetRefPoint0 */
MIRP[01101]	/* MoveIndirectRelPt */
MDAP[1]	/* MoveDirectAbsPt */
DELTAP1[ ]	/* DeltaExceptionP1 */
MDAP[1]	/* MoveDirectAbsPt */
SRP2[ ]	/* SetRefPoint2 */
IP[ ]	/* InterpolatePts */
MDAP[1]	/* MoveDirectAbsPt */
MIRP[01101]	/* MoveIndirectRelPt */
SVTCA[0]	/* SetFreedomAndProjectionVectorToAxis */
MIAP[1]	/* MoveIndirectAbsPt */
MIAP[1]	/* MoveIndirectAbsPt */
MIRP[11101]	/* MoveIndirectRelPt */
SHP[0]	/* ShiftPointByLastPoint */
MDAP[1]	/* MoveDirectAbsPt */
MIAP[1]	/* MoveIndirectAbsPt */
SRP2[ ]	/* SetRefPoint2 */
IP[ ]	/* InterpolatePts */
MIRP[01101]	/* MoveIndirectRelPt */
MDAP[1]	/* MoveDirectAbsPt */
MIRP[01101]	/* MoveIndirectRelPt */
IP[ ]	/* InterpolatePts */
IP[ ]	/* InterpolatePts */
IUP[1]	/* InterpolateUntPts */
IUP[0]	/* InterpolateUntPts */
SVTCA[1]	/* SetFreedomAndProjectionVectorToAxis */
DELTAP1[ ]	/* DeltaExceptionP1 */";
};
width = 613;
},
{
layerId = "4BA93484-EEB5-4B02-B3A2-B396B531A6AD";
shapes = (
{
closed = 1;
nodes = (
(67,0,l),
(206,0,l),
(206,495,ls),
(206,559,o),
(243,593,o),
(314,593,cs),
(379,593,o),
(414,565,o),
(414,512,cs),
(414,487,ls),
(414,434,o),
(386,408,o),
(327,408,cs),
(283,408,l),
(283,312,l),
(331,312,ls),
(400,312,o),
(432,283,o),
(432,221,cs),
(432,190,ls),
(432,128,o),
(400,99,o),
(331,99,cs),
(268,99,l),
(268,0,l),
(341,0,ls),
(494,0,o),
(575,66,o),
(575,193,cs),
(575,287,o),
(530,340,o),
(444,350,c),
(444,370,l),
(518,379,o),
(556,430,o),
(556,513,cs),
(556,629,o),
(464,700,o),
(314,700,cs),
(155,700,o),
(67,619,o),
(67,473,cs)
);
}
);
userData = {
assembly = "NPUSHB[ ]	/* 65 values pushed */
5 46 21 46 46 19 44 52 57 19 57 52 55 54 73 14 70 54 83 33 102 33 123 27 12 52 51 20 61 21 30 60 21 3 45 0 7 7 11 61 3 9 38 8 24 27 48 52 0 20 12 6 28 6 2 6 17 27 0 6 20 48 3 37 0 
PUSHW[ ]	/* 1 value pushed */
-10 
PUSHB[ ]	/* 5 values pushed */
13 13 2 85 0 
PUSHW[ ]	/* 1 value pushed */
-10 
NPUSHB[ ]	/* 22 values pushed */
11 11 2 85 0 144 56 37 12 12 12 2 85 37 12 9 9 2 85 37 26 38 
PUSHW[ ]	/* 1 value pushed */
-34 
PUSHB[ ]	/* 5 values pushed */
16 16 2 85 38 
PUSHW[ ]	/* 1 value pushed */
-32 
PUSHB[ ]	/* 5 values pushed */
15 15 2 85 38 
PUSHW[ ]	/* 1 value pushed */
-18 
PUSHB[ ]	/* 5 values pushed */
13 13 2 85 38 
PUSHW[ ]	/* 1 value pushed */
-10 
NPUSHB[ ]	/* 11 values pushed */
12 12 2 85 38 12 9 9 2 85 38 
PUSHW[ ]	/* 1 value pushed */
-24 
PUSHB[ ]	/* 5 values pushed */
15 15 6 85 38 
PUSHW[ ]	/* 1 value pushed */
-21 
PUSHB[ ]	/* 5 values pushed */
13 13 6 85 38 
PUSHW[ ]	/* 1 value pushed */
-4 
NPUSHB[ ]	/* 13 values pushed */
12 12 6 85 38 6 9 9 6 85 38 136 55 
SRP0[ ]	/* SetRefPoint0 */
MIRP[10110]	/* MoveIndirectRelPt */
CALL[ ]	/* CallFunction */
CALL[ ]	/* CallFunction */
CALL[ ]	/* CallFunction */
CALL[ ]	/* CallFunction */
CALL[ ]	/* CallFunction */
CALL[ ]	/* CallFunction */
CALL[ ]	/* CallFunction */
CALL[ ]	/* CallFunction */
CALL[ ]	/* CallFunction */
MIRP[01101]	/* MoveIndirectRelPt */
CALL[ ]	/* CallFunction */
CALL[ ]	/* CallFunction */
SRP0[ ]	/* SetRefPoint0 */
MIRP[00110]	/* MoveIndirectRelPt */
CALL[ ]	/* CallFunction */
CALL[ ]	/* CallFunction */
SRP1[ ]	/* SetRefPoint1 */
SLOOP[ ]	/* SetLoopVariable */
IP[ ]	/* InterpolatePts */
SRP0[ ]	/* SetRefPoint0 */
MIRP[01101]	/* MoveIndirectRelPt */
MDAP[1]	/* MoveDirectAbsPt */
DELTAP1[ ]	/* DeltaExceptionP1 */
MDAP[1]	/* MoveDirectAbsPt */
SRP2[ ]	/* SetRefPoint2 */
IP[ ]	/* InterpolatePts */
MDAP[1]	/* MoveDirectAbsPt */
MIRP[01101]	/* MoveIndirectRelPt */
SVTCA[0]	/* SetFreedomAndProjectionVectorToAxis */
MIAP[1]	/* MoveIndirectAbsPt */
MIAP[1]	/* MoveIndirectAbsPt */
MIRP[11101]	/* MoveIndirectRelPt */
SHP[0]	/* ShiftPointByLastPoint */
MDAP[1]	/* MoveDirectAbsPt */
MIAP[1]	/* MoveIndirectAbsPt */
SRP2[ ]	/* SetRefPoint2 */
IP[ ]	/* InterpolatePts */
MIRP[01101]	/* MoveIndirectRelPt */
MDAP[1]	/* MoveDirectAbsPt */
MIRP[01101]	/* MoveIndirectRelPt */
IP[ ]	/* InterpolatePts */
IP[ ]	/* InterpolatePts */
IUP[1]	/* InterpolateUntPts */
IUP[0]	/* InterpolateUntPts */
SVTCA[1]	/* SetFreedomAndProjectionVectorToAxis */
DELTAP1[ ]	/* DeltaExceptionP1 */";
};
width = 613;
}
);
note = germandbls;
unicode = 223;
},
{
color = 4;
glyphname = t;
kernLeft = t;
kernRight = t;
lastChange = "2024-09-11 12:47:21 +0000";
layers = (
{
layerId = "E307D395-0405-4E21-BEF1-246ADCA736E4";
shapes = (
{
closed = 1;
nodes = (
(402,0,l),
(402,51,l),
(219,51,l),
(219,686,l),
(157,686,l),
(157,47,ls),
(157,17,o),
(173,0,o),
(204,0,cs)
);
},
{
closed = 1;
nodes = (
(402,483,l),
(402,534,l),
(25,534,l),
(25,483,l)
);
}
);
width = 433;
},
{
layerId = "4BA93484-EEB5-4B02-B3A2-B396B531A6AD";
shapes = (
{
closed = 1;
nodes = (
(402,0,l),
(402,99,l),
(259,99,l),
(259,686,l),
(120,686,l),
(120,86,ls),
(120,30,o),
(150,0,o),
(206,0,cs)
);
},
{
closed = 1;
nodes = (
(402,435,l),
(402,534,l),
(19,534,l),
(19,435,l)
);
}
);
width = 433;
}
);
unicode = 116;
userData = {
KernOnName = t;
};
},
{
color = 4;
glyphname = u;
kernLeft = u;
kernRight = u;
lastChange = "2024-09-11 12:47:21 +0000";
layers = (
{
anchors = (
{
name = top;
pos = (295,534);
}
);
layerId = "E307D395-0405-4E21-BEF1-246ADCA736E4";
shapes = (
{
closed = 1;
nodes = (
(347,-10,o),
(401,19,o),
(437,75,c),
(448,75,l),
(448,0,l),
(504,0,l),
(504,534,l),
(442,534,l),
(442,210,ls),
(442,95,o),
(397,45,o),
(295,45,cs),
(193,45,o),
(148,95,o),
(148,210,cs),
(148,534,l),
(86,534,l),
(86,197,ls),
(86,60,o),
(149,-10,o),
(269,-10,cs)
);
}
);
width = 598;
},
{
anchors = (
{
name = top;
pos = (296,534);
}
);
layerId = "4BA93484-EEB5-4B02-B3A2-B396B531A6AD";
shapes = (
{
closed = 1;
nodes = (
(310,-10,o),
(360,27,o),
(385,95,c),
(404,95,l),
(404,0,l),
(531,0,l),
(531,534,l),
(392,534,l),
(392,212,ls),
(392,132,o),
(362,96,o),
(296,96,cs),
(231,96,o),
(201,132,o),
(201,212,cs),
(201,534,l),
(62,534,l),
(62,186,ls),
(62,58,o),
(121,-10,o),
(231,-10,cs)
);
}
);
width = 598;
}
);
unicode = 117;
userData = {
KernOnName = u;
};
},
{
color = 4;
glyphname = v;
lastChange = "2024-09-11 12:47:21 +0000";
layers = (
{
layerId = "E307D395-0405-4E21-BEF1-246ADCA736E4";
shapes = (
{
closed = 1;
nodes = (
(315,0,l),
(532,534,l),
(469,534,l),
(287,77,l),
(276,77,l),
(93,534,l),
(28,534,l),
(245,0,l)
);
}
);
width = 561;
},
{
layerId = "4BA93484-EEB5-4B02-B3A2-B396B531A6AD";
shapes = (
{
closed = 1;
nodes = (
(360,0,l),
(552,534,l),
(417,534,l),
(293,167,l),
(274,167,l),
(151,534,l),
(9,534,l),
(202,0,l)
);
}
);
width = 561;
}
);
unicode = 118;
userData = {
KernOnName = v;
};
},
{
color = 4;
glyphname = w;
lastChange = "2024-09-11 12:47:21 +0000";
layers = (
{
layerId = "E307D395-0405-4E21-BEF1-246ADCA736E4";
shapes = (
{
closed = 1;
nodes = (
(277,0,l),
(425,431,l),
(436,431,l),
(584,0,l),
(654,0,l),
(828,534,l),
(767,534,l),
(623,77,l),
(612,77,l),
(457,534,l),
(405,534,l),
(250,77,l),
(239,77,l),
(95,534,l),
(32,534,l),
(207,0,l)
);
}
);
width = 861;
},
{
layerId = "4BA93484-EEB5-4B02-B3A2-B396B531A6AD";
shapes = (
{
closed = 1;
nodes = (
(322,0,l),
(421,341,l),
(440,341,l),
(538,0,l),
(693,0,l),
(847,534,l),
(714,534,l),
(618,167,l),
(599,167,l),
(491,534,l),
(375,534,l),
(267,167,l),
(248,167,l),
(152,534,l),
(13,534,l),
(167,0,l)
);
}
);
width = 861;
}
);
unicode = 119;
},
{
color = 4;
glyphname = x;
lastChange = "2024-09-11 12:47:21 +0000";
layers = (
{
layerId = "E307D395-0405-4E21-BEF1-246ADCA736E4";
shapes = (
{
closed = 1;
nodes = (
(96,0,l),
(266,240,l),
(277,240,l),
(446,0,l),
(520,0,l),
(305,298,l),
(306,260,l),
(513,534,l),
(441,534,l),
(279,312,l),
(268,312,l),
(105,534,l),
(32,534,l),
(238,260,l),
(239,298,l),
(24,0,l)
);
}
);
width = 545;
},
{
layerId = "4BA93484-EEB5-4B02-B3A2-B396B531A6AD";
shapes = (
{
closed = 1;
nodes = (
(154,0,l),
(260,195,l),
(279,195,l),
(384,0,l),
(540,0,l),
(351,330,l),
(351,251,l),
(533,534,l),
(383,534,l),
(285,357,l),
(266,357,l),
(168,534,l),
(11,534,l),
(194,251,l),
(194,330,l),
(4,0,l)
);
}
);
width = 545;
}
);
unicode = 120;
},
{
color = 4;
glyphname = y;
kernLeft = y;
kernRight = y;
lastChange = "2024-09-11 12:47:21 +0000";
layers = (
{
anchors = (
{
name = top;
pos = (282,534);
}
);
layerId = "E307D395-0405-4E21-BEF1-246ADCA736E4";
shapes = (
{
closed = 1;
nodes = (
(231,-164,l),
(533,534,l),
(470,534,l),
(287,100,l),
(276,100,l),
(94,534,l),
(29,534,l),
(260,-5,l),
(254,32,l),
(166,-164,l)
);
}
);
width = 562;
},
{
anchors = (
{
name = top;
pos = (284,534);
}
);
layerId = "4BA93484-EEB5-4B02-B3A2-B396B531A6AD";
shapes = (
{
closed = 1;
nodes = (
(278,-164,l),
(552,534,l),
(417,534,l),
(294,190,l),
(274,190,l),
(151,534,l),
(10,534,l),
(221,-6,l),
(218,33,l),
(136,-164,l)
);
}
);
width = 562;
}
);
unicode = 121;
},
{
color = 4;
glyphname = z;
kernLeft = z;
kernRight = z;
lastChange = "2024-09-11 12:47:21 +0000";
layers = (
{
anchors = (
{
name = top;
pos = (256,534);
}
);
layerId = "E307D395-0405-4E21-BEF1-246ADCA736E4";
shapes = (
{
closed = 1;
nodes = (
(463,0,l),
(463,51,l),
(128,51,l),
(460,483,l),
(460,534,l),
(53,534,l),
(53,483,l),
(382,483,l),
(49,51,l),
(49,0,l)
);
}
);
width = 514;
},
{
anchors = (
{
name = top;
pos = (256,534);
}
);
layerId = "4BA93484-EEB5-4B02-B3A2-B396B531A6AD";
shapes = (
{
closed = 1;
nodes = (
(479,0,l),
(479,99,l),
(204,99,l),
(476,435,l),
(476,534,l),
(37,534,l),
(37,435,l),
(306,435,l),
(34,99,l),
(34,0,l)
);
}
);
width = 514;
}
);
unicode = 122;
},
{
color = 6;
glyphname = a.ss01;
kernLeft = d;
kernRight = a.ss01;
lastChange = "2024-09-11 12:47:21 +0000";
layers = (
{
anchors = (
{
name = ogonek;
pos = (522,0);
},
{
name = top;
pos = (292,534);
}
);
layerId = "E307D395-0405-4E21-BEF1-246ADCA736E4";
shapes = (
{
closed = 1;
nodes = (
(357,-10,o),
(414,23,o),
(455,88,c),
(466,88,l),
(466,0,l),
(522,0,l),
(522,534,l),
(466,534,l),
(466,446,l),
(455,446,l),
(414,511,o),
(357,544,o),
(279,544,cs),
(140,544,o),
(58,444,o),
(58,267,cs),
(58,90,o),
(140,-10,o),
(279,-10,cs)
);
},
{
closed = 1;
nodes = (
(177,45,o),
(124,110,o),
(124,250,cs),
(124,284,ls),
(124,424,o),
(177,489,o),
(292,489,cs),
(407,489,o),
(459,424,o),
(459,284,cs),
(459,250,ls),
(459,110,o),
(407,45,o),
(292,45,cs)
);
}
);
width = 615;
},
{
anchors = (
{
name = ogonek;
pos = (548,0);
},
{
name = top;
pos = (297,534);
}
);
layerId = "4BA93484-EEB5-4B02-B3A2-B396B531A6AD";
shapes = (
{
closed = 1;
nodes = (
(322,-10,o),
(378,31,o),
(402,97,c),
(421,97,l),
(420.993,0,l),
(548,0,l),
(548,534,l),
(420.993,534,l),
(421,437,l),
(402,437,l),
(378,503,o),
(322,544,o),
(245,544,cs),
(121,544,o),
(39,439,o),
(39,267,cs),
(39,95,o),
(121,-10,o),
(245,-10,cs)
);
},
{
closed = 1;
nodes = (
(219,96,o),
(185,141,o),
(185,237,cs),
(185,297,ls),
(185,393,o),
(219,438,o),
(297,438,cs),
(375,438,o),
(409,393,o),
(409,297,cs),
(409,237,ls),
(409,141,o),
(375,96,o),
(297,96,cs)
);
}
);
width = 615;
}
);
},
{
color = 6;
glyphname = aogonek.ss01;
kernLeft = d;
kernRight = a.ss01;
lastChange = "2024-09-11 12:47:21 +0000";
layers = (
{
anchors = (
{
name = top;
pos = (292,534);
}
);
layerId = "E307D395-0405-4E21-BEF1-246ADCA736E4";
shapes = (
{
closed = 1;
nodes = (
(536,-160,l),
(536,-117,l),
(441,-117,ls),
(421,-117,o),
(410,-109,o),
(410,-92,cs),
(410,-70,o),
(436,-38,o),
(522,0,c),
(522,534,l),
(466,534,l),
(466,446,l),
(455,446,l),
(414,511,o),
(357,544,o),
(279,544,cs),
(140,544,o),
(58,444,o),
(58,267,cs),
(58,90,o),
(140,-10,o),
(279,-10,cs),
(357,-10,o),
(414,23,o),
(455,88,c),
(466,88,l),
(466,0,l),
(466,0,l),
(466,-2,l),
(385,-26,o),
(363,-69,o),
(363,-104,cs),
(363,-140,o),
(388,-160,o),
(435,-160,cs)
);
},
{
closed = 1;
nodes = (
(177,45,o),
(124,110,o),
(124,250,cs),
(124,284,ls),
(124,424,o),
(177,489,o),
(292,489,cs),
(407,489,o),
(459,424,o),
(459,284,cs),
(459,250,ls),
(459,110,o),
(407,45,o),
(292,45,cs)
);
}
);
width = 615;
},
{
anchors = (
{
name = top;
pos = (297,534);
}
);
layerId = "4BA93484-EEB5-4B02-B3A2-B396B531A6AD";
shapes = (
{
closed = 1;
nodes = (
(562,-160,l),
(562,-83,l),
(480,-83,ls),
(463,-83,o),
(455,-77,o),
(455,-64,cs),
(455,-45,o),
(478,-21,o),
(548,0,c),
(548,534,l),
(420.993,534,l),
(421,437,l),
(402,437,l),
(378,503,o),
(322,544,o),
(245,544,cs),
(121,544,o),
(39,439,o),
(39,267,cs),
(39,95,o),
(121,-10,o),
(245,-10,cs),
(322,-10,o),
(378,31,o),
(402,97,c),
(421,97,l),
(420.993,0,l),
(445,0,l),
(445,-17,l),
(383,-29,o),
(356,-59,o),
(356,-98,cs),
(356,-138,o),
(384,-160,o),
(437,-160,cs)
);
},
{
closed = 1;
nodes = (
(219,96,o),
(185,141,o),
(185,237,cs),
(185,297,ls),
(185,393,o),
(219,438,o),
(297,438,cs),
(375,438,o),
(409,393,o),
(409,297,cs),
(409,237,ls),
(409,141,o),
(375,96,o),
(297,96,cs)
);
}
);
width = 615;
}
);
},
{
color = 4;
glyphname = fi;
kernLeft = f;
kernRight = i;
lastChange = "2024-09-11 12:47:21 +0000";
layers = (
{
layerId = "E307D395-0405-4E21-BEF1-246ADCA736E4";
shapes = (
{
closed = 1;
nodes = (
(155,0,l),
(217,0,l),
(217,671,l),
(408,671,l),
(408,722,l),
(202,722,ls),
(171,722,o),
(155,705,o),
(155,675,cs)
);
},
{
closed = 1;
nodes = (
(408,483,l),
(408,534,l),
(27,534,l),
(27,483,l)
);
},
{
closed = 1;
nodes = (
(632,0,l),
(632,534,l),
(471,534,l),
(471,483,l),
(570,483,l),
(570,0,l)
);
},
{
closed = 1;
nodes = (
(640,635,l),
(640,710,l),
(558,710,l),
(558,635,l)
);
}
);
width = 727;
},
{
layerId = "4BA93484-EEB5-4B02-B3A2-B396B531A6AD";
shapes = (
{
closed = 1;
nodes = (
(123,0,l),
(262,0,l),
(262,630,l),
(413,630,l),
(413,722,l),
(209,722,ls),
(153,722,o),
(123,692,o),
(123,636,cs)
);
},
{
closed = 1;
nodes = (
(413,435,l),
(413,534,l),
(27,534,l),
(27,435,l)
);
},
{
closed = 1;
nodes = (
(662,0,l),
(662,534,l),
(460,534,l),
(460,435,l),
(523,435,l),
(523,0,l)
);
},
{
closed = 1;
nodes = (
(666,607,l),
(666,720,l),
(515,720,l),
(515,607,l)
);
}
);
width = 727;
}
);
unicode = 64257;
},
{
color = 4;
glyphname = fl;
kernLeft = f;
kernRight = l;
lastChange = "2024-09-11 12:47:21 +0000";
layers = (
{
layerId = "E307D395-0405-4E21-BEF1-246ADCA736E4";
shapes = (
{
closed = 1;
nodes = (
(155,0,l),
(217,0,l),
(217,671,l),
(408,671,l),
(408,722,l),
(202,722,ls),
(171,722,o),
(155,705,o),
(155,675,cs)
);
},
{
closed = 1;
nodes = (
(408,483,l),
(408,534,l),
(27,534,l),
(27,483,l)
);
},
{
closed = 1;
nodes = (
(742,0,l),
(742,51,l),
(591,51,l),
(591,722,l),
(529,722,l),
(529,47,ls),
(529,17,o),
(546,0,o),
(576,0,cs)
);
}
);
width = 764;
},
{
layerId = "4BA93484-EEB5-4B02-B3A2-B396B531A6AD";
shapes = (
{
closed = 1;
nodes = (
(123,0,l),
(262,0,l),
(262,630,l),
(413,630,l),
(413,722,l),
(209,722,ls),
(153,722,o),
(123,692,o),
(123,636,cs)
);
},
{
closed = 1;
nodes = (
(413,435,l),
(413,534,l),
(27,534,l),
(27,435,l)
);
},
{
closed = 1;
nodes = (
(743,0,l),
(743,99,l),
(640,99,l),
(640,722,l),
(501,722,l),
(501,86,ls),
(501,30,o),
(531,0,o),
(587,0,cs)
);
}
);
width = 764;
}
);
unicode = 64258;
},
{
color = 4;
glyphname = ordfeminine;
lastChange = "2024-09-11 12:47:21 +0000";
layers = (
{
anchors = (
{
name = top;
pos = (232,690);
}
);
layerId = "E307D395-0405-4E21-BEF1-246ADCA736E4";
shapes = (
{
closed = 1;
nodes = (
(256,326,o),
(295,346,o),
(318,384,c),
(329,384,l),
(329,332,l),
(379,332,l),
(379,562,ls),
(379,649,o),
(328,696,o),
(233,696,cs),
(128,696,o),
(75,643,o),
(75,534,c),
(63,589,l),
(139,589,l),
(139,589,ls),
(139,623,o),
(173,651,o),
(231,651,cs),
(294,651,o),
(323,622,o),
(323,559,cs),
(323,521,l),
(323,512,l),
(323,458,ls),
(323,400,o),
(286,370,o),
(217,370,cs),
(158,370,o),
(128,391,o),
(128,430,cs),
(128,431,ls),
(128,470,o),
(153,487,o),
(222,494,cs),
(323,504,l),
(323,542,l),
(205,532,ls),
(111,523,o),
(69,490,o),
(69,425,cs),
(69,362,o),
(117,326,o),
(196,326,cs)
);
}
);
userData = {
RMXScaler = {
height = 62;
verticalShift = 359;
weight = -10;
width = 70;
};
assembly = "NPUSHB[ ]	/* 55 values pushed */
10 10 6 33 27 9 22 33 46 9 37 33 85 41 96 14 96 41 112 14 112 41 11 2 8 37 82 17 17 32 8 28 28 24 83 32 2 1 1 46 83 8 6 29 17 37 2 42 29 11 0 43 42 0 11 
MDAP[1]	/* MoveDirectAbsPt */
SHP[1]	/* ShiftPointByLastPoint */
MIRP[01101]	/* MoveIndirectRelPt */
MDAP[1]	/* MoveDirectAbsPt */
SRP2[ ]	/* SetRefPoint2 */
IP[ ]	/* InterpolatePts */
MIRP[11101]	/* MoveIndirectRelPt */
SHP[0]	/* ShiftPointByLastPoint */
SHP[0]	/* ShiftPointByLastPoint */
MDAP[1]	/* MoveDirectAbsPt */
SVTCA[0]	/* SetFreedomAndProjectionVectorToAxis */
MIAP[1]	/* MoveIndirectAbsPt */
MIRP[01101]	/* MoveIndirectRelPt */
SHP[1]	/* ShiftPointByLastPoint */
MDAP[1]	/* MoveDirectAbsPt */
MIAP[1]	/* MoveIndirectAbsPt */
MIRP[11101]	/* MoveIndirectRelPt */
SHP[0]	/* ShiftPointByLastPoint */
MDAP[1]	/* MoveDirectAbsPt */
SRP1[ ]	/* SetRefPoint1 */
SRP2[ ]	/* SetRefPoint2 */
IP[ ]	/* InterpolatePts */
MDAP[1]	/* MoveDirectAbsPt */
MIRP[01101]	/* MoveIndirectRelPt */
SRP2[ ]	/* SetRefPoint2 */
IP[ ]	/* InterpolatePts */
IUP[1]	/* InterpolateUntPts */
IUP[0]	/* InterpolateUntPts */
SVTCA[1]	/* SetFreedomAndProjectionVectorToAxis */
DELTAP1[ ]	/* DeltaExceptionP1 */";
};
width = 463;
},
{
anchors = (
{
name = top;
pos = (233,690);
}
);
layerId = "4BA93484-EEB5-4B02-B3A2-B396B531A6AD";
shapes = (
{
closed = 1;
nodes = (
(225,326,o),
(259,349,o),
(274,394,c),
(293,394,l),
(293,332,l),
(401,332,l),
(401,556,ls),
(401,647,o),
(343,696,o),
(232,696,cs),
(115,696,o),
(53,642,o),
(53,534,c),
(41,583,l),
(178,583,l),
(178,584,ls),
(178,598,o),
(195,612,o),
(228,612,cs),
(266,612,o),
(281,596,o),
(281,555,cs),
(281,519,l),
(281,508,l),
(281,457,ls),
(281,426,o),
(262,411,o),
(222,411,cs),
(189,411,o),
(171,422,o),
(171,444,cs),
(171,448,ls),
(171,467,o),
(184,478,o),
(215,481,cs),
(281,486,l),
(281,544,l),
(185,535,ls),
(90,526,o),
(48,494,o),
(48,429,cs),
(48,364,o),
(94,326,o),
(167,326,cs)
);
}
);
userData = {
RMXScaler = {
height = 62;
verticalShift = 359;
weight = -10;
width = 70;
};
assembly = "NPUSHB[ ]	/* 55 values pushed */
10 10 6 33 27 9 22 33 46 9 37 33 85 41 96 14 96 41 112 14 112 41 11 2 8 37 82 17 17 32 8 28 28 24 83 32 2 1 1 46 83 8 6 29 17 37 2 42 29 11 0 43 42 0 11 
MDAP[1]	/* MoveDirectAbsPt */
SHP[1]	/* ShiftPointByLastPoint */
MIRP[01101]	/* MoveIndirectRelPt */
MDAP[1]	/* MoveDirectAbsPt */
SRP2[ ]	/* SetRefPoint2 */
IP[ ]	/* InterpolatePts */
MIRP[11101]	/* MoveIndirectRelPt */
SHP[0]	/* ShiftPointByLastPoint */
SHP[0]	/* ShiftPointByLastPoint */
MDAP[1]	/* MoveDirectAbsPt */
SVTCA[0]	/* SetFreedomAndProjectionVectorToAxis */
MIAP[1]	/* MoveIndirectAbsPt */
MIRP[01101]	/* MoveIndirectRelPt */
SHP[1]	/* ShiftPointByLastPoint */
MDAP[1]	/* MoveDirectAbsPt */
MIAP[1]	/* MoveIndirectAbsPt */
MIRP[11101]	/* MoveIndirectRelPt */
SHP[0]	/* ShiftPointByLastPoint */
MDAP[1]	/* MoveDirectAbsPt */
SRP1[ ]	/* SetRefPoint1 */
SRP2[ ]	/* SetRefPoint2 */
IP[ ]	/* InterpolatePts */
MDAP[1]	/* MoveDirectAbsPt */
MIRP[01101]	/* MoveIndirectRelPt */
SRP2[ ]	/* SetRefPoint2 */
IP[ ]	/* InterpolatePts */
IUP[1]	/* InterpolateUntPts */
IUP[0]	/* InterpolateUntPts */
SVTCA[1]	/* SetFreedomAndProjectionVectorToAxis */
DELTAP1[ ]	/* DeltaExceptionP1 */";
};
width = 463;
}
);
note = ordfeminine;
unicode = 170;
userData = {
KernOnSpecialSpacing = {
L = superiors;
R = superiors;
};
RMXScaler = {
source = a;
};
};
},
{
color = 4;
glyphname = ordmasculine;
lastChange = "2024-09-11 12:47:21 +0000";
layers = (
{
anchors = (
{
name = top;
pos = (242,690);
}
);
layerId = "E307D395-0405-4E21-BEF1-246ADCA736E4";
shapes = (
{
closed = 1;
nodes = (
(353,326,o),
(421,392,o),
(421,511,cs),
(421,630,o),
(353,696,o),
(242,696,cs),
(129,696,o),
(62,630,o),
(62,511,cs),
(62,392,o),
(129,326,o),
(242,326,cs)
);
},
{
closed = 1;
nodes = (
(160,371,o),
(122,411,o),
(122,498,cs),
(122,523,ls),
(122,611,o),
(160,651,o),
(242,651,cs),
(323,651,o),
(361,611,o),
(361,523,cs),
(361,498,ls),
(361,411,o),
(323,371,o),
(242,371,cs)
);
}
);
userData = {
RMXScaler = {
height = 62;
verticalShift = 359;
weight = -10;
width = 70;
};
assembly = "NPUSHB[ ]	/* 32 values pushed */
93 1 93 5 82 7 82 11 4 106 15 101 21 2 15 83 9 2 21 83 3 6 12 42 64 0 1 0 18 42 0 6 
MDAP[1]	/* MoveDirectAbsPt */
SHP[1]	/* ShiftPointByLastPoint */
MIRP[01101]	/* MoveIndirectRelPt */
MDAP[1]	/* MoveDirectAbsPt */
DELTAP1[ ]	/* DeltaExceptionP1 */
MIRP[01101]	/* MoveIndirectRelPt */
SVTCA[0]	/* SetFreedomAndProjectionVectorToAxis */
MIAP[1]	/* MoveIndirectAbsPt */
MIRP[01101]	/* MoveIndirectRelPt */
MIAP[1]	/* MoveIndirectAbsPt */
MIRP[01101]	/* MoveIndirectRelPt */
DELTAP1[ ]	/* DeltaExceptionP1 */
IUP[1]	/* InterpolateUntPts */
IUP[0]	/* InterpolateUntPts */
DELTAP1[ ]	/* DeltaExceptionP1 */";
};
width = 482;
},
{
anchors = (
{
name = top;
pos = (241,690);
}
);
layerId = "4BA93484-EEB5-4B02-B3A2-B396B531A6AD";
shapes = (
{
closed = 1;
nodes = (
(365,326,o),
(438,393,o),
(438,511,cs),
(438,629,o),
(365,696,o),
(241,696,cs),
(118,696,o),
(44,630,o),
(44,511,cs),
(44,393,o),
(117,326,o),
(241,326,cs)
);
},
{
closed = 1;
nodes = (
(193,414,o),
(171,438,o),
(171,492,cs),
(171,529,ls),
(171,583,o),
(193,608,o),
(241,608,cs),
(289,608,o),
(311,583,o),
(311,529,cs),
(311,492,ls),
(311,438,o),
(289,414,o),
(241,414,cs)
);
}
);
userData = {
RMXScaler = {
height = 62;
verticalShift = 359;
weight = -10;
width = 70;
};
assembly = "NPUSHB[ ]	/* 32 values pushed */
93 1 93 5 82 7 82 11 4 106 15 101 21 2 15 83 9 2 21 83 3 6 12 42 64 0 1 0 18 42 0 6 
MDAP[1]	/* MoveDirectAbsPt */
SHP[1]	/* ShiftPointByLastPoint */
MIRP[01101]	/* MoveIndirectRelPt */
MDAP[1]	/* MoveDirectAbsPt */
DELTAP1[ ]	/* DeltaExceptionP1 */
MIRP[01101]	/* MoveIndirectRelPt */
SVTCA[0]	/* SetFreedomAndProjectionVectorToAxis */
MIAP[1]	/* MoveIndirectAbsPt */
MIRP[01101]	/* MoveIndirectRelPt */
MIAP[1]	/* MoveIndirectAbsPt */
MIRP[01101]	/* MoveIndirectRelPt */
DELTAP1[ ]	/* DeltaExceptionP1 */
IUP[1]	/* InterpolateUntPts */
IUP[0]	/* InterpolateUntPts */
DELTAP1[ ]	/* DeltaExceptionP1 */";
};
width = 482;
}
);
note = ordmasculine;
unicode = 186;
userData = {
KernOnSpecialSpacing = {
L = superiors;
R = superiors;
};
RMXScaler = {
source = o;
};
};
},
{
color = 4;
glyphname = pi;
lastChange = "2024-09-11 12:47:21 +0000";
layers = (
{
layerId = "E307D395-0405-4E21-BEF1-246ADCA736E4";
shapes = (
{
closed = 1;
nodes = (
(635,0,l),
(635,51,l),
(532,51,l),
(532,514,l),
(470,514,l),
(470,47,ls),
(470,17,o),
(487,0,o),
(517,0,cs)
);
},
{
closed = 1;
nodes = (
(193,0,l),
(193,514,l),
(131,514,l),
(131,0,l)
);
},
{
closed = 1;
nodes = (
(635,483,l),
(635,534,l),
(28,534,l),
(28,483,l)
);
}
);
width = 682;
},
{
layerId = "4BA93484-EEB5-4B02-B3A2-B396B531A6AD";
shapes = (
{
closed = 1;
nodes = (
(640,0,l),
(640,99,l),
(560,99,l),
(560,482,l),
(421,482,l),
(421,86,ls),
(421,30,o),
(451,0,o),
(507,0,cs)
);
},
{
closed = 1;
nodes = (
(246,0,l),
(246,482,l),
(107,482,l),
(107,0,l)
);
},
{
closed = 1;
nodes = (
(640,435,l),
(640,534,l),
(26,534,l),
(26,435,l)
);
}
);
width = 682;
}
);
unicode = 960;
},
{
color = 4;
glyphname = zero;
kernLeft = zero;
kernRight = zero;
lastChange = "2024-09-11 12:47:21 +0000";
layers = (
{
layerId = "E307D395-0405-4E21-BEF1-246ADCA736E4";
shapes = (
{
closed = 1;
nodes = (
(526,-10,o),
(621,104,o),
(621,345,cs),
(621,586,o),
(526,700,o),
(344,700,cs),
(161,700,o),
(66,586,o),
(66,345,cs),
(66,104,o),
(161,-10,o),
(344,-10,cs)
);
},
{
closed = 1;
nodes = (
(202,47,o),
(134,124,o),
(134,289,cs),
(134,402,ls),
(134,566,o),
(202,643,o),
(344,643,cs),
(486,643,o),
(553,566,o),
(553,402,cs),
(553,289,ls),
(553,124,o),
(486,47,o),
(344,47,cs)
);
},
{
closed = 1;
nodes = (
(208,57,l),
(524,615,l),
(480,633,l),
(163,75,l)
);
}
);
width = 687;
},
{
layerId = "4BA93484-EEB5-4B02-B3A2-B396B531A6AD";
shapes = (
{
closed = 1;
nodes = (
(540,-10,o),
(641,104,o),
(641,345,cs),
(641,586,o),
(540,700,o),
(344,700,cs),
(147,700,o),
(46,586,o),
(46,345,cs),
(46,104,o),
(147,-10,o),
(344,-10,cs)
);
},
{
closed = 1;
nodes = (
(239,97,o),
(193,153,o),
(193,278,cs),
(193,412,ls),
(193,537,o),
(239,593,o),
(344,593,cs),
(448,593,o),
(495,537,o),
(495,412,cs),
(495,278,ls),
(495,153,o),
(448,97,o),
(344,97,cs)
);
},
{
closed = 1;
nodes = (
(253,91,l),
(533,595,l),
(435,599,l),
(155,95,l)
);
}
);
width = 687;
}
);
unicode = 48;
},
{
color = 4;
glyphname = one;
lastChange = "2024-09-11 12:47:21 +0000";
layers = (
{
layerId = "E307D395-0405-4E21-BEF1-246ADCA736E4";
shapes = (
{
closed = 1;
nodes = (
(460,0,l),
(460,54,l),
(287,54,l),
(287,690,l),
(249,690,l),
(54,589,l),
(54,534,l),
(223,621,l),
(223,54,l),
(51,54,l),
(51,0,l)
);
}
);
width = 482;
},
{
layerId = "4BA93484-EEB5-4B02-B3A2-B396B531A6AD";
shapes = (
{
closed = 1;
nodes = (
(462,0,l),
(462,112,l),
(326,112,l),
(326,690,l),
(230,690,l),
(50,596,l),
(50,491,l),
(183,560,l),
(183,112,l),
(47,112,l),
(47,0,l)
);
}
);
width = 482;
}
);
unicode = 49;
},
{
color = 4;
glyphname = two;
lastChange = "2024-09-11 12:47:21 +0000";
layers = (
{
layerId = "E307D395-0405-4E21-BEF1-246ADCA736E4";
shapes = (
{
closed = 1;
nodes = (
(560,0,l),
(560,57,l),
(98,57,l),
(132,29,l),
(132,112,ls),
(132,206,o),
(169,250,o),
(271,277,cs),
(395,311,ls),
(516,345,o),
(568,400,o),
(568,497,cs),
(568,503,ls),
(568,626,o),
(475,700,o),
(322,700,cs),
(147,700,o),
(67,603,o),
(67,385,c),
(57,491,l),
(142,491,l),
(142,491,ls),
(142,581,o),
(201,643,o),
(322,643,cs),
(435,643,o),
(505,593,o),
(505,507,cs),
(505,494,ls),
(505,428,o),
(468,392,o),
(368,365,cs),
(244,331,ls),
(122,296,o),
(69,232,o),
(69,110,cs),
(69,0,l)
);
}
);
width = 631;
},
{
layerId = "4BA93484-EEB5-4B02-B3A2-B396B531A6AD";
shapes = (
{
closed = 1;
nodes = (
(581,0,l),
(581,116,l),
(119,116,l),
(188,43,l),
(188,133,ls),
(188,199,o),
(213,230,o),
(281,249,cs),
(405,283,ls),
(532,319,o),
(589,382,o),
(589,489,cs),
(589,496,ls),
(589,623,o),
(489,700,o),
(321,700,cs),
(134,700,o),
(45,604,o),
(45,384,c),
(37,481,l),
(195,481,l),
(195,495,ls),
(195,547,o),
(234,590,o),
(321,590,cs),
(397,590,o),
(445,559,o),
(445,504,cs),
(445,485,ls),
(445,436,o),
(421,411,o),
(356,393,cs),
(232,358,ls),
(104,322,o),
(47,255,o),
(47,132,cs),
(47,0,l)
);
}
);
width = 631;
}
);
unicode = 50;
},
{
color = 4;
glyphname = three;
lastChange = "2024-09-11 12:47:21 +0000";
layers = (
{
layerId = "E307D395-0405-4E21-BEF1-246ADCA736E4";
shapes = (
{
closed = 1;
nodes = (
(470,-10,o),
(565,63,o),
(565,190,cs),
(565,277,o),
(523,330,o),
(451,341,c),
(451,363,l),
(521,374,o),
(562,425,o),
(562,507,cs),
(562,630,o),
(468,700,o),
(313,700,cs),
(134,700,o),
(57,603,o),
(57,373,c),
(42,491,l),
(133,491,l),
(133,492,ls),
(133,585,o),
(191,644,o),
(313,644,cs),
(426,644,o),
(496,596,o),
(496,514,cs),
(496,502,ls),
(496,420,o),
(454,378,o),
(374,378,cs),
(219,378,l),
(219,326,l),
(376,326,ls),
(456,326,o),
(499,282,o),
(499,197,cs),
(499,181,ls),
(499,97,o),
(429,46,o),
(313,46,cs),
(189,46,o),
(130,105,o),
(130,197,cs),
(130,199,l),
(39,199,l),
(54,320,l),
(54,87,o),
(132,-10,o),
(313,-10,cs)
);
}
);
width = 636;
},
{
layerId = "4BA93484-EEB5-4B02-B3A2-B396B531A6AD";
shapes = (
{
closed = 1;
nodes = (
(484,-10,o),
(587,63,o),
(587,191,cs),
(587,278,o),
(539,330,o),
(458,336,c),
(458,368,l),
(537,375,o),
(584,424,o),
(584,506,cs),
(584,630,o),
(482,700,o),
(314,700,cs),
(121,700,o),
(37,604,o),
(37,381,c),
(23,481,l),
(189,481,l),
(189,496,ls),
(189,549,o),
(228,590,o),
(314,590,cs),
(391,590,o),
(438,558,o),
(438,506,cs),
(438,483,ls),
(438,429,o),
(407,400,o),
(347,400,cs),
(217,400,l),
(217,304,l),
(346,304,ls),
(408,304,o),
(441,274,o),
(441,216,cs),
(441,189,ls),
(441,133,o),
(393,100,o),
(314,100,cs),
(226,100,o),
(186,141,o),
(186,194,cs),
(186,209,l),
(20,209,l),
(34,310,l),
(34,86,o),
(119,-10,o),
(314,-10,cs)
);
}
);
width = 636;
}
);
unicode = 51;
},
{
color = 4;
glyphname = four;
lastChange = "2024-09-11 12:47:21 +0000";
layers = (
{
layerId = "E307D395-0405-4E21-BEF1-246ADCA736E4";
shapes = (
{
closed = 1;
nodes = (
(402,185,l),
(402,0,l),
(464,0,l),
(464,185,l),
(602,185,l),
(602,241,l),
(464,241,l),
(464,690,l),
(363,690,l),
(51,241,l),
(51,185,l)
);
},
{
closed = 1;
nodes = (
(391,633,l),
(402,633,l),
(402,241,l),
(120,241,l)
);
}
);
width = 641;
},
{
layerId = "4BA93484-EEB5-4B02-B3A2-B396B531A6AD";
shapes = (
{
closed = 1;
nodes = (
(367,151,l),
(367,0,l),
(507,0,l),
(507,151,l),
(609,151,l),
(609,259,l),
(507,259,l),
(507,690,l),
(278,690,l),
(29,259,l),
(29,151,l)
);
},
{
closed = 1;
nodes = (
(348,574,l),
(367,574,l),
(367,259,l),
(167,259,l)
);
}
);
width = 641;
}
);
unicode = 52;
},
{
color = 4;
glyphname = five;
lastChange = "2024-09-11 12:47:21 +0000";
layers = (
{
layerId = "E307D395-0405-4E21-BEF1-246ADCA736E4";
shapes = (
{
closed = 1;
nodes = (
(497,-10,o),
(586,71,o),
(586,221,cs),
(586,368,o),
(497,450,o),
(348,450,cs),
(259,450,o),
(191,420,o),
(163,370,c),
(141,370,l),
(148,433,o),
(151,465,o),
(151,496,cs),
(151,633,l),
(557,633,l),
(557,690,l),
(89,690,l),
(89,323,l),
(153,323,l),
(192,364,o),
(251,396,o),
(334,396,cs),
(457,396,o),
(520,339,o),
(520,225,cs),
(520,217,ls),
(520,103,o),
(457,46,o),
(334,46,cs),
(210,46,o),
(151,105,o),
(151,199,cs),
(151,199,l),
(51,199,l),
(75,320,l),
(75,87,o),
(153,-10,o),
(334,-10,cs)
);
}
);
width = 645;
},
{
layerId = "4BA93484-EEB5-4B02-B3A2-B396B531A6AD";
shapes = (
{
closed = 1;
nodes = (
(509,-10,o),
(605,74,o),
(605,229,cs),
(605,373,o),
(521,458,o),
(382,458,cs),
(299,458,o),
(242,427,o),
(226,365,c),
(194,365,l),
(201,428,o),
(204,460,o),
(204,491,cs),
(204,574,l),
(582,574,l),
(582,690,l),
(65,690,l),
(65,313,l),
(204,313,l),
(232,341,o),
(279,358,o),
(332,358,cs),
(416,358,o),
(459,319,o),
(459,246,cs),
(459,212,ls),
(459,138,o),
(416,100,o),
(332,100,cs),
(244,100,o),
(204,141,o),
(204,196,cs),
(204,209,l),
(35,209,l),
(52,310,l),
(52,86,o),
(137,-10,o),
(332.007,-10,cs)
);
}
);
width = 645;
}
);
unicode = 53;
},
{
color = 4;
glyphname = six;
lastChange = "2024-09-11 12:47:21 +0000";
layers = (
{
layerId = "E307D395-0405-4E21-BEF1-246ADCA736E4";
shapes = (
{
closed = 1;
nodes = (
(494,-10,o),
(584,71,o),
(584,221,cs),
(584,368,o),
(495,450,o),
(345,450,cs),
(252,450,o),
(192,420,o),
(155,351,c),
(133,351,l),
(138,396,o),
(140,425,o),
(140,450,cs),
(140,452,ls),
(140,575,o),
(208,644,o),
(328,644,cs),
(442,644,o),
(496,578,o),
(496,526,cs),
(496,526,l),
(597,526,l),
(580,370,l),
(580,603,o),
(504,700,o),
(328,700,cs),
(147,700,o),
(69,597,o),
(69,345,cs),
(69,91,o),
(146,-10,o),
(330,-10,cs)
);
},
{
closed = 1;
nodes = (
(215,46,o),
(149,106,o),
(149,217,cs),
(149,225,ls),
(149,336,o),
(215,396,o),
(332,396,cs),
(454,396,o),
(518,339,o),
(518,225,cs),
(518,217,ls),
(518,103,o),
(454,46,o),
(332,46,cs)
);
}
);
width = 646;
},
{
layerId = "4BA93484-EEB5-4B02-B3A2-B396B531A6AD";
shapes = (
{
closed = 1;
nodes = (
(505,-10,o),
(602,73,o),
(602,226,cs),
(602,370,o),
(515,458,o),
(378,458,cs),
(293,458,o),
(239,424,o),
(220,355,c),
(187,355,l),
(193,406,o),
(196,431,o),
(196,454,cs),
(196,465,ls),
(196,546,o),
(241,590,o),
(327,590,cs),
(406,590,o),
(442,550,o),
(442,523,cs),
(442,516,l),
(620,516,l),
(603,380,l),
(603,603,o),
(518,700,o),
(327,700,cs),
(131,700,o),
(47,597,o),
(47,345,cs),
(47,91,o),
(130,-10,o),
(329,-10,cs)
);
},
{
closed = 1;
nodes = (
(243,99,o),
(197,138,o),
(197,211,cs),
(197,246,ls),
(197,319,o),
(243,358,o),
(326,358,cs),
(411,358,o),
(456,319,o),
(456,246,cs),
(456,211,ls),
(456,137,o),
(411,99,o),
(326,99,cs)
);
}
);
width = 646;
}
);
unicode = 54;
},
{
color = 4;
glyphname = seven;
lastChange = "2024-09-11 12:47:21 +0000";
layers = (
{
layerId = "E307D395-0405-4E21-BEF1-246ADCA736E4";
shapes = (
{
closed = 1;
nodes = (
(217,0,l),
(512,633,l),
(512,690,l),
(32,690,l),
(32,633,l),
(487,633,l),
(461,674,l),
(146,0,l)
);
}
);
width = 554;
},
{
layerId = "4BA93484-EEB5-4B02-B3A2-B396B531A6AD";
shapes = (
{
closed = 1;
nodes = (
(258,0,l),
(530,577,l),
(530,690,l),
(18,690,l),
(18,574,l),
(423,574,l),
(398,619,l),
(106,0,l)
);
}
);
width = 554;
}
);
unicode = 55;
userData = {
KernOnName = seven;
};
},
{
color = 4;
glyphname = eight;
lastChange = "2024-09-11 12:47:21 +0000";
layers = (
{
layerId = "E307D395-0405-4E21-BEF1-246ADCA736E4";
shapes = (
{
closed = 1;
nodes = (
(489,-10,o),
(587,62,o),
(587,187,cs),
(587,280,o),
(547,333,o),
(469,346,c),
(469,358,l),
(542,371,o),
(580,422,o),
(580,510,cs),
(580,631,o),
(485,700,o),
(327,700,cs),
(170,700,o),
(74,631,o),
(74,510,cs),
(74,422,o),
(113,371,o),
(185,358,c),
(185,346,l),
(108,333,o),
(68,280,o),
(68,187,cs),
(68,62,o),
(166,-10,o),
(327,-10,cs)
);
},
{
closed = 1;
nodes = (
(201,46,o),
(134,91,o),
(134,179,cs),
(134,195,ls),
(134,283,o),
(201,327,o),
(327,327,cs),
(454,327,o),
(521,283,o),
(521,195,cs),
(521,179,ls),
(521,91,o),
(454,46,o),
(327,46,cs)
);
},
{
closed = 1;
nodes = (
(205,377,o),
(140,420,o),
(140,504,cs),
(140,517,ls),
(140,600,o),
(205,644,o),
(327,644,cs),
(449,644,o),
(514,600,o),
(514,517,cs),
(514,504,ls),
(514,420,o),
(449,377,o),
(327,377,cs)
);
}
);
width = 655;
},
{
layerId = "4BA93484-EEB5-4B02-B3A2-B396B531A6AD";
shapes = (
{
closed = 1;
nodes = (
(502,-10,o),
(607,63,o),
(607,190,cs),
(607,280,o),
(563,331,o),
(478,342,c),
(478,362,l),
(559,373,o),
(600,422,o),
(600,507,cs),
(600,630,o),
(498,700,o),
(327,700,cs),
(157,700,o),
(54,630,o),
(54,507,cs),
(54,422,o),
(96,373,o),
(177,362,c),
(177,342,l),
(92,332,o),
(48,280,o),
(48,190,cs),
(48,63,o),
(153,-10,o),
(327,-10,cs)
);
},
{
closed = 1;
nodes = (
(240,100,o),
(194,131,o),
(194,190,cs),
(194,216,ls),
(194,275,o),
(240,306,o),
(327,306,cs),
(415,306,o),
(461,275,o),
(461,216,cs),
(461,190,ls),
(461,131,o),
(415,100,o),
(327,100,cs)
);
},
{
closed = 1;
nodes = (
(244,398,o),
(200,427,o),
(200,483,cs),
(200,506,ls),
(200,561,o),
(244,590,o),
(327,590,cs),
(411,590,o),
(455,561,o),
(455,506,cs),
(455,483,ls),
(455,427,o),
(411,398,o),
(327,398,cs)
);
}
);
width = 655;
}
);
unicode = 56;
},
{
color = 4;
glyphname = nine;
lastChange = "2024-09-11 12:47:21 +0000";
layers = (
{
layerId = "E307D395-0405-4E21-BEF1-246ADCA736E4";
shapes = (
{
closed = 1;
nodes = (
(152,700,o),
(62,619,o),
(62,469,cs),
(62,322,o),
(151,240,o),
(301,240,cs),
(393,240,o),
(453,270,o),
(490,339,c),
(513,339,l),
(508,294,o),
(506,265,o),
(506,240,cs),
(506,238,ls),
(506,115,o),
(437,46,o),
(317,46,cs),
(203,46,o),
(149,112,o),
(149,164,cs),
(149,164,l),
(49,164,l),
(65,320,l),
(65,87,o),
(142,-10,o),
(317,-10,cs),
(499,-10,o),
(577,93,o),
(577,345,cs),
(577,599,o),
(499,700,o),
(315,700,cs)
);
},
{
closed = 1;
nodes = (
(431,644,o),
(496,584,o),
(496,473,cs),
(496,465,ls),
(496,354,o),
(431,294,o),
(314,294,cs),
(191,294,o),
(128,351,o),
(128,465,cs),
(128,473,ls),
(128,587,o),
(191,644,o),
(314,644,cs)
);
}
);
width = 646;
},
{
layerId = "4BA93484-EEB5-4B02-B3A2-B396B531A6AD";
shapes = (
{
closed = 1;
nodes = (
(140,700,o),
(44,617,o),
(44,464,cs),
(44,320,o),
(131,232,o),
(267,232,cs),
(352,232,o),
(406,266,o),
(425,335,c),
(458,335,l),
(452,284,o),
(450,259,o),
(450,236,cs),
(450,225,ls),
(450,144,o),
(404,100,o),
(319,100,cs),
(240,100,o),
(204,140,o),
(204,167,cs),
(204,174,l),
(25,174,l),
(43,310,l),
(43,87,o),
(128,-10,o),
(319,-10,cs),
(515,-10,o),
(599,93,o),
(599,345,cs),
(599,599,o),
(516,700,o),
(317,700,cs)
);
},
{
closed = 1;
nodes = (
(403,591,o),
(448,552,o),
(448,479,cs),
(448,444,ls),
(448,371,o),
(403,332,o),
(319,332,cs),
(234,332,o),
(190,371,o),
(190,444,cs),
(190,479,ls),
(190,553,o),
(234,591,o),
(319,591,cs)
);
}
);
width = 646;
}
);
unicode = 57;
},
{
color = 4;
glyphname = zero.zero;
kernLeft = zero;
kernRight = zero;
lastChange = "2024-09-11 12:47:21 +0000";
layers = (
{
layerId = "E307D395-0405-4E21-BEF1-246ADCA736E4";
shapes = (
{
closed = 1;
nodes = (
(526,-10,o),
(621,104,o),
(621,345,cs),
(621,586,o),
(526,700,o),
(344,700,cs),
(161,700,o),
(66,586,o),
(66,345,cs),
(66,104,o),
(161,-10,o),
(344,-10,cs)
);
},
{
closed = 1;
nodes = (
(202,47,o),
(135,124,o),
(135,289,cs),
(135,402,ls),
(135,566,o),
(202,643,o),
(344,643,cs),
(485,643,o),
(553,566,o),
(553,402,cs),
(553,289,ls),
(553,124,o),
(485,47,o),
(344,47,cs)
);
}
);
width = 687;
},
{
layerId = "4BA93484-EEB5-4B02-B3A2-B396B531A6AD";
shapes = (
{
closed = 1;
nodes = (
(540,-10,o),
(641,104,o),
(641,345,cs),
(641,586,o),
(540,700,o),
(344,700,cs),
(147,700,o),
(46,586,o),
(46,345,cs),
(46,104,o),
(147,-10,o),
(344,-10,cs)
);
},
{
closed = 1;
nodes = (
(242,100,o),
(196,156,o),
(196,278,cs),
(196,412,ls),
(196,534,o),
(242,590,o),
(344,590,cs),
(445,590,o),
(491,534,o),
(491,412,cs),
(491,278,ls),
(491,156,o),
(445,100,o),
(344,100,cs)
);
}
);
width = 687;
}
);
},
{
color = 4;
glyphname = fraction;
lastChange = "2024-09-11 12:47:21 +0000";
layers = (
{
layerId = "E307D395-0405-4E21-BEF1-246ADCA736E4";
shapes = (
{
closed = 1;
nodes = (
(-186,0,l),
(306,690,l),
(242,690,l),
(-250,0,l)
);
}
);
width = 55;
},
{
layerId = "4BA93484-EEB5-4B02-B3A2-B396B531A6AD";
shapes = (
{
closed = 1;
nodes = (
(-172,0,l),
(342,690,l),
(227,690,l),
(-286,0,l)
);
}
);
width = 55;
}
);
note = fraction;
unicode = 8260;
userData = {
KernOnSpecialSpacing = {
L = fraction;
R = fraction;
};
};
},
{
color = 4;
glyphname = onesuperior;
lastChange = "2024-09-11 12:47:21 +0000";
layers = (
{
layerId = "E307D395-0405-4E21-BEF1-246ADCA736E4";
shapes = (
{
closed = 1;
nodes = (
(204,368,l),
(204,690,l),
(166,690,l),
(59,645,l),
(59,603,l),
(146,638,l),
(146,368,l)
);
}
);
userData = {
RMXScaler = {
adjustSpace = 10;
height = 46.6;
verticalShift = 368;
weight = 40;
width = 64;
};
assembly = "NPUSHB[ ]	/* 24 values pushed */
5 80 6 6 12 3 14 3 170 1 14 5 5 2 15 15 12 14 42 2 16 3 1 3 
MDAP[1]	/* MoveDirectAbsPt */
DELTAP1[ ]	/* DeltaExceptionP1 */
SHP[1]	/* ShiftPointByLastPoint */
MIRP[01101]	/* MoveIndirectRelPt */
IP[ ]	/* InterpolatePts */
SHP[0]	/* ShiftPointByLastPoint */
MDAP[1]	/* MoveDirectAbsPt */
MDAP[1]	/* MoveDirectAbsPt */
SHP[1]	/* ShiftPointByLastPoint */
MDAP[1]	/* MoveDirectAbsPt */
SVTCA[0]	/* SetFreedomAndProjectionVectorToAxis */
MIAP[1]	/* MoveIndirectAbsPt */
MIRP[11101]	/* MoveIndirectRelPt */
SHP[0]	/* ShiftPointByLastPoint */
MIAP[1]	/* MoveIndirectAbsPt */
SHP[1]	/* ShiftPointByLastPoint */
MDAP[1]	/* MoveDirectAbsPt */
MIRP[01101]	/* MoveIndirectRelPt */
IUP[1]	/* InterpolateUntPts */
IUP[0]	/* InterpolateUntPts */";
};
width = 297;
},
{
layerId = "4BA93484-EEB5-4B02-B3A2-B396B531A6AD";
shapes = (
{
closed = 1;
nodes = (
(219,368,l),
(219,690,l),
(150,690,l),
(51,649,l),
(51,579,l),
(118,603,l),
(118,368,l)
);
}
);
userData = {
RMXScaler = {
adjustSpace = 10;
height = 46.6;
verticalShift = 368;
weight = 40;
width = 64;
};
assembly = "NPUSHB[ ]	/* 24 values pushed */
5 80 6 6 12 3 14 3 170 1 14 5 5 2 15 15 12 14 42 2 16 3 1 3 
MDAP[1]	/* MoveDirectAbsPt */
DELTAP1[ ]	/* DeltaExceptionP1 */
SHP[1]	/* ShiftPointByLastPoint */
MIRP[01101]	/* MoveIndirectRelPt */
IP[ ]	/* InterpolatePts */
SHP[0]	/* ShiftPointByLastPoint */
MDAP[1]	/* MoveDirectAbsPt */
MDAP[1]	/* MoveDirectAbsPt */
SHP[1]	/* ShiftPointByLastPoint */
MDAP[1]	/* MoveDirectAbsPt */
SVTCA[0]	/* SetFreedomAndProjectionVectorToAxis */
MIAP[1]	/* MoveIndirectAbsPt */
MIRP[11101]	/* MoveIndirectRelPt */
SHP[0]	/* ShiftPointByLastPoint */
MIAP[1]	/* MoveIndirectAbsPt */
SHP[1]	/* ShiftPointByLastPoint */
MDAP[1]	/* MoveDirectAbsPt */
MIRP[01101]	/* MoveIndirectRelPt */
IUP[1]	/* InterpolateUntPts */
IUP[0]	/* InterpolateUntPts */";
};
width = 297;
}
);
note = onesuperior;
unicode = 185;
userData = {
KernOnSpecialSpacing = {
L = superiors;
R = superiors;
};
RMXScaler = {
source = one;
};
};
},
{
color = 4;
glyphname = twosuperior;
lastChange = "2024-09-11 12:47:21 +0000";
layers = (
{
layerId = "E307D395-0405-4E21-BEF1-246ADCA736E4";
shapes = (
{
closed = 1;
nodes = (
(347,368,l),
(347,414,l),
(81,414,l),
(111,386,l),
(111,431,ls),
(111,466,o),
(126,480,o),
(177,492,cs),
(248,508,ls),
(319,524,o),
(349,548,o),
(349,598,cs),
(349,599,ls),
(349,658,o),
(294,694,o),
(202,694,cs),
(101,694,o),
(52,648,o),
(52,548,c),
(49,581,l),
(112,581,l),
(112,585,ls),
(112,627,o),
(143,651,o),
(202,651,cs),
(258,651,o),
(291,632,o),
(291,599,cs),
(291,597,ls),
(291,571,o),
(274,561,o),
(226,550,cs),
(156,534,ls),
(84,518,o),
(53,492,o),
(53,432,cs),
(53,368,l)
);
}
);
userData = {
RMXScaler = {
adjustSpace = 10;
height = 46.6;
verticalShift = 368;
weight = 40;
width = 64;
};
assembly = "NPUSHB[ ]	/* 45 values pushed */
36 21 37 24 54 21 53 24 76 16 94 16 109 16 101 24 102 25 125 16 117 24 11 15 15 11 82 19 2 2 28 82 1 14 0 0 28 2 8 42 22 16 22 16 2 
MDAP[1]	/* MoveDirectAbsPt */
SHP[1]	/* ShiftPointByLastPoint */
SHP[1]	/* ShiftPointByLastPoint */
MDAP[1]	/* MoveDirectAbsPt */
MDAP[1]	/* MoveDirectAbsPt */
MIRP[01101]	/* MoveIndirectRelPt */
SRP2[ ]	/* SetRefPoint2 */
IP[ ]	/* InterpolatePts */
SHP[1]	/* ShiftPointByLastPoint */
MDAP[1]	/* MoveDirectAbsPt */
SVTCA[0]	/* SetFreedomAndProjectionVectorToAxis */
MIAP[1]	/* MoveIndirectAbsPt */
MIRP[11101]	/* MoveIndirectRelPt */
SHP[0]	/* ShiftPointByLastPoint */
MIAP[1]	/* MoveIndirectAbsPt */
MIRP[01101]	/* MoveIndirectRelPt */
SHP[1]	/* ShiftPointByLastPoint */
MDAP[1]	/* MoveDirectAbsPt */
IUP[1]	/* InterpolateUntPts */
IUP[0]	/* InterpolateUntPts */
SVTCA[1]	/* SetFreedomAndProjectionVectorToAxis */
DELTAP1[ ]	/* DeltaExceptionP1 */";
};
width = 401;
},
{
layerId = "4BA93484-EEB5-4B02-B3A2-B396B531A6AD";
shapes = (
{
closed = 1;
nodes = (
(356,368,l),
(356,443,l),
(93,443,l),
(143,394,l),
(143,445,ls),
(143,474,o),
(153,478,o),
(182,485,cs),
(253,501,ls),
(332,519,o),
(360,547,o),
(360,597,cs),
(360,598,ls),
(360,661,o),
(301,694,o),
(202,694,cs),
(93,694,o),
(40,648,o),
(40,541,c),
(36,576,l),
(142,576,l),
(142,581,ls),
(142,608,o),
(163,621,o),
(202,621,cs),
(235,621,o),
(257,614,o),
(257,596,cs),
(257,594,ls),
(257,577,o),
(248,569,o),
(219,563,cs),
(148,547,ls),
(70,530,o),
(41,503,o),
(41,445,cs),
(41,368,l)
);
}
);
userData = {
RMXScaler = {
adjustSpace = 10;
height = 46.6;
verticalShift = 368;
weight = 40;
width = 64;
};
assembly = "NPUSHB[ ]	/* 45 values pushed */
36 21 37 24 54 21 53 24 76 16 94 16 109 16 101 24 102 25 125 16 117 24 11 15 15 11 82 19 2 2 28 82 1 14 0 0 28 2 8 42 22 16 22 16 2 
MDAP[1]	/* MoveDirectAbsPt */
SHP[1]	/* ShiftPointByLastPoint */
SHP[1]	/* ShiftPointByLastPoint */
MDAP[1]	/* MoveDirectAbsPt */
MDAP[1]	/* MoveDirectAbsPt */
MIRP[01101]	/* MoveIndirectRelPt */
SRP2[ ]	/* SetRefPoint2 */
IP[ ]	/* InterpolatePts */
SHP[1]	/* ShiftPointByLastPoint */
MDAP[1]	/* MoveDirectAbsPt */
SVTCA[0]	/* SetFreedomAndProjectionVectorToAxis */
MIAP[1]	/* MoveIndirectAbsPt */
MIRP[11101]	/* MoveIndirectRelPt */
SHP[0]	/* ShiftPointByLastPoint */
MIAP[1]	/* MoveIndirectAbsPt */
MIRP[01101]	/* MoveIndirectRelPt */
SHP[1]	/* ShiftPointByLastPoint */
MDAP[1]	/* MoveDirectAbsPt */
IUP[1]	/* InterpolateUntPts */
IUP[0]	/* InterpolateUntPts */
SVTCA[1]	/* SetFreedomAndProjectionVectorToAxis */
DELTAP1[ ]	/* DeltaExceptionP1 */";
};
width = 401;
}
);
note = twosuperior;
unicode = 178;
userData = {
KernOnSpecialSpacing = {
L = superiors;
R = superiors;
};
RMXScaler = {
source = two;
};
};
},
{
color = 4;
glyphname = threesuperior;
lastChange = "2024-09-11 12:47:21 +0000";
layers = (
{
layerId = "E307D395-0405-4E21-BEF1-246ADCA736E4";
shapes = (
{
closed = 1;
nodes = (
(296,363,o),
(354,398,o),
(354,457,cs),
(354,496,o),
(330,522,o),
(284,527,c),
(284,537,l),
(326,542,o),
(351,565,o),
(351,604,cs),
(351,660,o),
(295,694,o),
(204,694,cs),
(101,694,o),
(53,649,o),
(53,545,c),
(44,588,l),
(114,588,l),
(114,592,ls),
(114,626,o),
(144,651,o),
(204,651,cs),
(259,651,o),
(292,632,o),
(292,600,cs),
(292,599,ls),
(292,568,o),
(271,552,o),
(231,552,cs),
(147,552,l),
(147,512,l),
(231,512,ls),
(272,512,o),
(294,496,o),
(294,461,cs),
(294,459,ls),
(294,426,o),
(260,407,o),
(204,407,cs),
(144,407,o),
(113,431,o),
(113,466,cs),
(113,470,l),
(43,470,l),
(51,513,l),
(51,408,o),
(99,363,o),
(204,363,cs)
);
}
);
userData = {
RMXScaler = {
adjustSpace = 10;
height = 46.6;
verticalShift = 368;
weight = 40;
width = 64;
};
assembly = "NPUSHB[ ]	/* 22 values pushed */
42 3 57 3 69 12 74 31 84 12 92 31 107 8 100 35 125 8 116 35 10 39 
PUSHW[ ]	/* 1 value pushed */
-64 
NPUSHB[ ]	/* 57 values pushed */
11 14 55 44 43 21 82 15 22 1 15 22 31 22 79 22 95 22 207 22 255 22 6 22 33 33 29 82 22 6 37 2 10 10 14 82 6 15 26 42 40 22 34 17 42 34 22 40 44 4 9 16 0 1 0 0 9 
MDAP[1]	/* MoveDirectAbsPt */
SHP[1]	/* ShiftPointByLastPoint */
MDAP[1]	/* MoveDirectAbsPt */
DELTAP1[ ]	/* DeltaExceptionP1 */
SRP2[ ]	/* SetRefPoint2 */
SLOOP[ ]	/* SetLoopVariable */
IP[ ]	/* InterpolatePts */
MIRP[01101]	/* MoveIndirectRelPt */
MDAP[1]	/* MoveDirectAbsPt */
MDAP[1]	/* MoveDirectAbsPt */
MDAP[1]	/* MoveDirectAbsPt */
MIRP[01101]	/* MoveIndirectRelPt */
SVTCA[0]	/* SetFreedomAndProjectionVectorToAxis */
MIAP[1]	/* MoveIndirectAbsPt */
MIRP[01101]	/* MoveIndirectRelPt */
SHP[1]	/* ShiftPointByLastPoint */
MDAP[1]	/* MoveDirectAbsPt */
MIAP[1]	/* MoveIndirectAbsPt */
SRP2[ ]	/* SetRefPoint2 */
IP[ ]	/* InterpolatePts */
MIRP[01101]	/* MoveIndirectRelPt */
SHP[1]	/* ShiftPointByLastPoint */
MDAP[1]	/* MoveDirectAbsPt */
MDAP[1]	/* MoveDirectAbsPt */
DELTAP1[ ]	/* DeltaExceptionP1 */
DELTAP2[ ]	/* DeltaExceptionP2 */
MIRP[01101]	/* MoveIndirectRelPt */
IP[ ]	/* InterpolatePts */
IP[ ]	/* InterpolatePts */
IUP[1]	/* InterpolateUntPts */
IUP[0]	/* InterpolateUntPts */
CALL[ ]	/* CallFunction */
DELTAP1[ ]	/* DeltaExceptionP1 */";
};
width = 405;
},
{
layerId = "4BA93484-EEB5-4B02-B3A2-B396B531A6AD";
shapes = (
{
closed = 1;
nodes = (
(303,363,o),
(365,398,o),
(365,458,cs),
(365,497,o),
(337,522,o),
(287,525,c),
(287,539,l),
(335,542,o),
(363,566,o),
(363,603,cs),
(363,661,o),
(302,694,o),
(203,694,cs),
(91,694,o),
(40,649,o),
(40,545,c),
(31,583,l),
(145,583,l),
(145,588,ls),
(145,605,o),
(164,621,o),
(203,621,cs),
(237,621,o),
(258,611,o),
(258,595,cs),
(258,590,ls),
(258,573,o),
(243,564,o),
(214,564,cs),
(154,564,l),
(154,500,l),
(213,500,ls),
(244,500,o),
(260,490,o),
(260,471,cs),
(260,465,ls),
(260,447,o),
(238,437,o),
(203,437,cs),
(164,437,o),
(143,452,o),
(143,470,cs),
(143,475,l),
(29,475,l),
(39,513,l),
(39,409,o),
(90,363,o),
(203,363,cs)
);
}
);
userData = {
RMXScaler = {
adjustSpace = 10;
height = 46.6;
verticalShift = 368;
weight = 40;
width = 64;
};
assembly = "NPUSHB[ ]	/* 22 values pushed */
42 3 57 3 69 12 74 31 84 12 92 31 107 8 100 35 125 8 116 35 10 39 
PUSHW[ ]	/* 1 value pushed */
-64 
NPUSHB[ ]	/* 57 values pushed */
11 14 55 44 43 21 82 15 22 1 15 22 31 22 79 22 95 22 207 22 255 22 6 22 33 33 29 82 22 6 37 2 10 10 14 82 6 15 26 42 40 22 34 17 42 34 22 40 44 4 9 16 0 1 0 0 9 
MDAP[1]	/* MoveDirectAbsPt */
SHP[1]	/* ShiftPointByLastPoint */
MDAP[1]	/* MoveDirectAbsPt */
DELTAP1[ ]	/* DeltaExceptionP1 */
SRP2[ ]	/* SetRefPoint2 */
SLOOP[ ]	/* SetLoopVariable */
IP[ ]	/* InterpolatePts */
MIRP[01101]	/* MoveIndirectRelPt */
MDAP[1]	/* MoveDirectAbsPt */
MDAP[1]	/* MoveDirectAbsPt */
MDAP[1]	/* MoveDirectAbsPt */
MIRP[01101]	/* MoveIndirectRelPt */
SVTCA[0]	/* SetFreedomAndProjectionVectorToAxis */
MIAP[1]	/* MoveIndirectAbsPt */
MIRP[01101]	/* MoveIndirectRelPt */
SHP[1]	/* ShiftPointByLastPoint */
MDAP[1]	/* MoveDirectAbsPt */
MIAP[1]	/* MoveIndirectAbsPt */
SRP2[ ]	/* SetRefPoint2 */
IP[ ]	/* InterpolatePts */
MIRP[01101]	/* MoveIndirectRelPt */
SHP[1]	/* ShiftPointByLastPoint */
MDAP[1]	/* MoveDirectAbsPt */
MDAP[1]	/* MoveDirectAbsPt */
DELTAP1[ ]	/* DeltaExceptionP1 */
DELTAP2[ ]	/* DeltaExceptionP2 */
MIRP[01101]	/* MoveIndirectRelPt */
IP[ ]	/* InterpolatePts */
IP[ ]	/* InterpolatePts */
IUP[1]	/* InterpolateUntPts */
IUP[0]	/* InterpolateUntPts */
CALL[ ]	/* CallFunction */
DELTAP1[ ]	/* DeltaExceptionP1 */";
};
width = 405;
}
);
note = threesuperior;
unicode = 179;
userData = {
KernOnSpecialSpacing = {
L = superiors;
R = superiors;
};
RMXScaler = {
source = three;
};
};
},
{
color = 4;
glyphname = foursuperior;
lastChange = "2024-09-11 12:47:21 +0000";
layers = (
{
layerId = "E307D395-0405-4E21-BEF1-246ADCA736E4";
shapes = (
{
closed = 1;
nodes = (
(224,434,l),
(224,368,l),
(277,368,l),
(277,434,l),
(346,434,l),
(346,479,l),
(277,479,l),
(277,690,l),
(196,690,l),
(44,479,l),
(44,434,l)
);
},
{
closed = 1;
nodes = (
(215,637,l),
(224,637,l),
(224,479,l),
(101,479,l)
);
}
);
userData = {
RMXScaler = {
adjustSpace = 10;
height = 46.6;
verticalShift = 368;
weight = 40;
width = 64;
};
assembly = "NPUSHB[ ]	/* 30 values pushed */
109 6 126 6 2 6 9 1 13 81 5 12 5 3 7 2 3 14 0 7 11 4 42 9 0 13 6 1 1 6 
MDAP[1]	/* MoveDirectAbsPt */
SHP[1]	/* ShiftPointByLastPoint */
MDAP[1]	/* MoveDirectAbsPt */
SRP2[ ]	/* SetRefPoint2 */
IP[ ]	/* InterpolatePts */
SHP[1]	/* ShiftPointByLastPoint */
SHP[1]	/* ShiftPointByLastPoint */
MIRP[11101]	/* MoveIndirectRelPt */
IP[ ]	/* InterpolatePts */
IP[ ]	/* InterpolatePts */
MDAP[1]	/* MoveDirectAbsPt */
SVTCA[0]	/* SetFreedomAndProjectionVectorToAxis */
MIAP[1]	/* MoveIndirectAbsPt */
MIAP[1]	/* MoveIndirectAbsPt */
SRP2[ ]	/* SetRefPoint2 */
IP[ ]	/* InterpolatePts */
IP[ ]	/* InterpolatePts */
MDAP[1]	/* MoveDirectAbsPt */
MIRP[01101]	/* MoveIndirectRelPt */
IP[ ]	/* InterpolatePts */
IP[ ]	/* InterpolatePts */
SHP[0]	/* ShiftPointByLastPoint */
IUP[1]	/* InterpolateUntPts */
IUP[0]	/* InterpolateUntPts */
SVTCA[1]	/* SetFreedomAndProjectionVectorToAxis */
DELTAP1[ ]	/* DeltaExceptionP1 */";
};
width = 386;
},
{
layerId = "4BA93484-EEB5-4B02-B3A2-B396B531A6AD";
shapes = (
{
closed = 1;
nodes = (
(210,432,l),
(210,368,l),
(309,368,l),
(309,432,l),
(357,432,l),
(357,500,l),
(309,500,l),
(309,690,l),
(155,690,l),
(35,500,l),
(35,432,l)
);
},
{
closed = 1;
nodes = (
(197,612,l),
(210,612,l),
(210,500,l),
(125,500,l)
);
}
);
userData = {
RMXScaler = {
adjustSpace = 10;
height = 46.6;
verticalShift = 368;
weight = 40;
width = 64;
};
assembly = "NPUSHB[ ]	/* 30 values pushed */
109 6 126 6 2 6 9 1 13 81 5 12 5 3 7 2 3 14 0 7 11 4 42 9 0 13 6 1 1 6 
MDAP[1]	/* MoveDirectAbsPt */
SHP[1]	/* ShiftPointByLastPoint */
MDAP[1]	/* MoveDirectAbsPt */
SRP2[ ]	/* SetRefPoint2 */
IP[ ]	/* InterpolatePts */
SHP[1]	/* ShiftPointByLastPoint */
SHP[1]	/* ShiftPointByLastPoint */
MIRP[11101]	/* MoveIndirectRelPt */
IP[ ]	/* InterpolatePts */
IP[ ]	/* InterpolatePts */
MDAP[1]	/* MoveDirectAbsPt */
SVTCA[0]	/* SetFreedomAndProjectionVectorToAxis */
MIAP[1]	/* MoveIndirectAbsPt */
MIAP[1]	/* MoveIndirectAbsPt */
SRP2[ ]	/* SetRefPoint2 */
IP[ ]	/* InterpolatePts */
IP[ ]	/* InterpolatePts */
MDAP[1]	/* MoveDirectAbsPt */
MIRP[01101]	/* MoveIndirectRelPt */
IP[ ]	/* InterpolatePts */
IP[ ]	/* InterpolatePts */
SHP[0]	/* ShiftPointByLastPoint */
IUP[1]	/* InterpolateUntPts */
IUP[0]	/* InterpolateUntPts */
SVTCA[1]	/* SetFreedomAndProjectionVectorToAxis */
DELTAP1[ ]	/* DeltaExceptionP1 */";
};
width = 386;
}
);
note = uniF009;
unicode = 8308;
userData = {
KernOnName = foursuperior;
KernOnSpecialSpacing = {
L = superiors;
R = superiors;
};
RMXScaler = {
source = four;
};
};
},
{
color = 4;
glyphname = .notdef;
lastChange = "2024-09-11 12:47:21 +0000";
layers = (
{
layerId = "E307D395-0405-4E21-BEF1-246ADCA736E4";
shapes = (
{
closed = 1;
nodes = (
(580,0,l),
(580,690,l),
(112,690,l),
(112,0,l)
);
},
{
closed = 1;
nodes = (
(167,639,l),
(525,639,l),
(525,51,l),
(167,51,l)
);
}
);
width = 692;
},
{
layerId = "4BA93484-EEB5-4B02-B3A2-B396B531A6AD";
shapes = (
{
closed = 1;
nodes = (
(611,0,l),
(611,690,l),
(81,690,l),
(81,0,l)
);
},
{
closed = 1;
nodes = (
(187,591,l),
(505,591,l),
(505,99,l),
(187,99,l)
);
}
);
width = 692;
}
);
},
{
color = 4;
glyphname = period;
kernLeft = period;
kernRight = period;
lastChange = "2024-09-11 12:47:21 +0000";
layers = (
{
layerId = "E307D395-0405-4E21-BEF1-246ADCA736E4";
shapes = (
{
closed = 1;
nodes = (
(167,0,l),
(167,80,l),
(84,80,l),
(84,0,l)
);
}
);
width = 250;
},
{
layerId = "4BA93484-EEB5-4B02-B3A2-B396B531A6AD";
shapes = (
{
closed = 1;
nodes = (
(200,0,l),
(200,144,l),
(50,144,l),
(50,0,l)
);
}
);
width = 250;
}
);
unicode = 46;
userData = {
KernOnName = period;
KernOnSpecialSpacing = {
L = period;
R = period;
};
};
},
{
color = 4;
glyphname = comma;
kernLeft = period;
kernRight = period;
lastChange = "2024-09-11 12:47:21 +0000";
layers = (
{
layerId = "E307D395-0405-4E21-BEF1-246ADCA736E4";
shapes = (
{
closed = 1;
nodes = (
(119,-119,l),
(167,0,l),
(167,80,l),
(84,80,l),
(84,0,l),
(125,0,l),
(80,-119,l)
);
}
);
width = 250;
},
{
layerId = "4BA93484-EEB5-4B02-B3A2-B396B531A6AD";
shapes = (
{
closed = 1;
nodes = (
(122,-119,l),
(200,0,l),
(200,144,l),
(50,144,l),
(50,0,l),
(124,0,l),
(50,-119,l)
);
}
);
width = 250;
}
);
unicode = 44;
userData = {
KernOnSpecialSpacing = {
L = period;
R = period;
};
};
},
{
color = 4;
glyphname = exclam;
lastChange = "2024-09-11 12:47:21 +0000";
layers = (
{
layerId = "E307D395-0405-4E21-BEF1-246ADCA736E4";
shapes = (
{
closed = 1;
nodes = (
(153,190,l),
(169,637,l),
(169,690,l),
(100,690,l),
(100,637,l),
(116,190,l)
);
},
{
closed = 1;
nodes = (
(176,0,l),
(176,80,l),
(93,80,l),
(93,0,l)
);
}
);
width = 270;
},
{
layerId = "4BA93484-EEB5-4B02-B3A2-B396B531A6AD";
shapes = (
{
closed = 1;
nodes = (
(175,221,l),
(210,587,l),
(210,690,l),
(60,690,l),
(60,587,l),
(95,221,l)
);
},
{
closed = 1;
nodes = (
(209,0,l),
(209,144,l),
(60,144,l),
(60,0,l)
);
}
);
width = 270;
}
);
unicode = 33;
userData = {
KernOnSpecialSpacing = {
L = "spaced-off";
};
};
},
{
color = 4;
glyphname = exclamdown;
lastChange = "2024-09-11 12:47:21 +0000";
layers = (
{
layerId = "E307D395-0405-4E21-BEF1-246ADCA736E4";
shapes = (
{
closed = 1;
nodes = (
(116,344,l),
(100,-103,l),
(100,-156,l),
(169,-156,l),
(169,-103,l),
(153,344,l)
);
},
{
closed = 1;
nodes = (
(93,534,l),
(93,454,l),
(176,454,l),
(176,534,l)
);
}
);
width = 270;
},
{
layerId = "4BA93484-EEB5-4B02-B3A2-B396B531A6AD";
shapes = (
{
closed = 1;
nodes = (
(95,313,l),
(60,-53,l),
(60,-156,l),
(210,-156,l),
(210,-53,l),
(175,313,l)
);
},
{
closed = 1;
nodes = (
(60,534,l),
(60,390,l),
(209,390,l),
(209,534,l)
);
}
);
width = 270;
}
);
unicode = 161;
userData = {
KernOnSpecialSpacing = {
R = "spaced-off";
};
};
},
{
color = 4;
glyphname = question;
lastChange = "2024-09-11 12:47:21 +0000";
layers = (
{
layerId = "E307D395-0405-4E21-BEF1-246ADCA736E4";
shapes = (
{
closed = 1;
nodes = (
(282,190,l),
(285,238,ls),
(287,278,o),
(309,303,o),
(358,319,cs),
(469,354,o),
(514,412,o),
(514,503,cs),
(514,512,ls),
(514,630,o),
(429,700,o),
(280,700,cs),
(111,700,o),
(37,606,o),
(37,385,c),
(19,494,l),
(111,494,l),
(111,496,ls),
(111,585,o),
(164,644,o),
(280,644,cs),
(387,644,o),
(451,598,o),
(451,514,cs),
(451,502,ls),
(451,441,o),
(418,400,o),
(331,372,cs),
(267,349,o),
(239,315,o),
(242,256,cs),
(245,190,l)
);
},
{
closed = 1;
nodes = (
(305,0,l),
(305,80,l),
(222,80,l),
(222,0,l)
);
}
);
width = 564;
},
{
layerId = "4BA93484-EEB5-4B02-B3A2-B396B531A6AD";
shapes = (
{
closed = 1;
nodes = (
(304,221,l),
(306,242,ls),
(308,262,o),
(322,276,o),
(361,290,cs),
(494,334,o),
(541,386,o),
(541,488,cs),
(541,496,ls),
(541,627,o),
(436,700,o),
(277,700,cs),
(98,700,o),
(10,608,o),
(10,396,c),
(-9,485,l),
(159,485,l),
(159,500,ls),
(159,551,o),
(200,590,o),
(280,590,cs),
(349,590,o),
(397,564,o),
(397,504,cs),
(397,487,ls),
(397,445,o),
(376,418,o),
(316,398,cs),
(234,369,o),
(207,329,o),
(220,257,cs),
(224,221,l)
);
},
{
closed = 1;
nodes = (
(339,0,l),
(339,144,l),
(189,144,l),
(189,0,l)
);
}
);
width = 564;
}
);
unicode = 63;
userData = {
KernOnSpecialSpacing = {
L = "spaced-off";
};
};
},
{
color = 4;
glyphname = questiondown;
lastChange = "2024-09-11 12:47:21 +0000";
layers = (
{
layerId = "E307D395-0405-4E21-BEF1-246ADCA736E4";
shapes = (
{
closed = 1;
nodes = (
(283,344,l),
(280,296,ls),
(277,256,o),
(256,231,o),
(206,215,cs),
(95,180,o),
(50,122,o),
(50,31,cs),
(50,22,ls),
(50,-96,o),
(135,-166,o),
(284,-166,cs),
(454,-166,o),
(527,-72,o),
(527,149,c),
(545,40,l),
(453,40,l),
(453,38,ls),
(453,-51,o),
(400,-110,o),
(284,-110,cs),
(178,-110,o),
(113,-64,o),
(113,20,cs),
(113,32,ls),
(113,93,o),
(146,134,o),
(233,162,cs),
(297,185,o),
(325,219,o),
(323,278,cs),
(320,344,l)
);
},
{
closed = 1;
nodes = (
(260,534,l),
(260,454,l),
(343,454,l),
(343,534,l)
);
}
);
width = 564;
},
{
layerId = "4BA93484-EEB5-4B02-B3A2-B396B531A6AD";
shapes = (
{
closed = 1;
nodes = (
(260,313,l),
(258,292,ls),
(256,272,o),
(242,258,o),
(204,244,cs),
(70,200,o),
(24,148,o),
(24,46,cs),
(24,38,ls),
(24,-93,o),
(128,-166,o),
(287,-166,cs),
(466,-166,o),
(554,-74,o),
(554,138,c),
(573,49,l),
(405,49,l),
(405,34,ls),
(405,-17,o),
(365,-56,o),
(285,-56,cs),
(215,-56,o),
(167,-30,o),
(167,30,cs),
(167,47,ls),
(167,89,o),
(188,117,o),
(249,136,cs),
(330,165,o),
(357,205,o),
(345,277,cs),
(341,313,l)
);
},
{
closed = 1;
nodes = (
(226,534,l),
(226,390,l),
(375,390,l),
(375,534,l)
);
}
);
width = 564;
}
);
unicode = 191;
userData = {
KernOnSpecialSpacing = {
R = "spaced-off";
};
};
},
{
color = 4;
glyphname = bullet;
lastChange = "2024-09-11 12:47:21 +0000";
layers = (
{
layerId = "E307D395-0405-4E21-BEF1-246ADCA736E4";
shapes = (
{
closed = 1;
nodes = (
(300,183,l),
(300,385,l),
(89,385,l),
(89,183,l)
);
}
);
width = 389;
},
{
layerId = "4BA93484-EEB5-4B02-B3A2-B396B531A6AD";
shapes = (
{
closed = 1;
nodes = (
(300,183,l),
(300,385,l),
(89,385,l),
(89,183,l)
);
}
);
width = 389;
}
);
unicode = 8226;
userData = {
KernOnSpecialSpacing = {
L = NoKerning;
R = NoKerning;
};
};
},
{
color = 4;
glyphname = asterisk;
lastChange = "2024-09-11 12:47:21 +0000";
layers = (
{
layerId = "E307D395-0405-4E21-BEF1-246ADCA736E4";
shapes = (
{
closed = 1;
nodes = (
(209,533,l),
(120,417,l),
(166,383,l),
(245,508,l),
(323,383,l),
(369,416,l),
(279,534,l),
(417,572,l),
(400,626,l),
(265,573,l),
(273,722,l),
(216,722,l),
(223,573,l),
(88,626,l),
(70,571,l)
);
}
);
width = 488;
},
{
layerId = "4BA93484-EEB5-4B02-B3A2-B396B531A6AD";
shapes = (
{
closed = 1;
nodes = (
(184,494,l),
(81,374,l),
(162,314,l),
(244,451,l),
(326,315,l),
(407,373,l),
(304,494,l),
(457,532,l),
(426,627,l),
(282,565,l),
(294,722,l),
(194,722,l),
(205,564,l),
(61,626,l),
(30,531,l)
);
}
);
width = 488;
}
);
unicode = 42;
userData = {
KernOnSpecialSpacing = {
L = quotes;
R = quotes;
};
};
},
{
color = 4;
glyphname = numbersign;
lastChange = "2024-09-11 12:47:21 +0000";
layers = (
{
layerId = "E307D395-0405-4E21-BEF1-246ADCA736E4";
shapes = (
{
closed = 1;
nodes = (
(193,0,l),
(313,690,l),
(258,690,l),
(138,0,l)
);
},
{
closed = 1;
nodes = (
(455,0,l),
(575,690,l),
(520,690,l),
(400,0,l)
);
},
{
closed = 1;
nodes = (
(658,438,l),
(658,489,l),
(92,489,l),
(92,438,l)
);
},
{
closed = 1;
nodes = (
(621,201,l),
(621,252,l),
(55,252,l),
(55,201,l)
);
}
);
width = 713;
},
{
layerId = "4BA93484-EEB5-4B02-B3A2-B396B531A6AD";
shapes = (
{
closed = 1;
nodes = (
(214,0,l),
(334,690,l),
(215,690,l),
(95,0,l)
);
},
{
closed = 1;
nodes = (
(498,0,l),
(618,690,l),
(499,690,l),
(379,0,l)
);
},
{
closed = 1;
nodes = (
(682,416,l),
(682,522,l),
(68,522,l),
(68,416,l)
);
},
{
closed = 1;
nodes = (
(645,168,l),
(645,274,l),
(31,274,l),
(31,168,l)
);
}
);
width = 713;
}
);
unicode = 35;
},
{
color = 4;
glyphname = slash;
lastChange = "2024-09-11 12:47:21 +0000";
layers = (
{
layerId = "E307D395-0405-4E21-BEF1-246ADCA736E4";
shapes = (
{
closed = 1;
nodes = (
(82,-124,l),
(392,814,l),
(328,814,l),
(18,-124,l)
);
}
);
width = 409;
},
{
layerId = "4BA93484-EEB5-4B02-B3A2-B396B531A6AD";
shapes = (
{
closed = 1;
nodes = (
(149,-124,l),
(392,814,l),
(260,814,l),
(18,-124,l)
);
}
);
width = 409;
}
);
unicode = 47;
userData = {
KernOnSpecialSpacing = {
L = slash;
R = slash;
};
};
},
{
color = 4;
glyphname = backslash;
lastChange = "2024-09-11 12:47:21 +0000";
layers = (
{
layerId = "E307D395-0405-4E21-BEF1-246ADCA736E4";
shapes = (
{
closed = 1;
nodes = (
(391,-124,l),
(81,814,l),
(17,814,l),
(327,-124,l)
);
}
);
width = 407;
},
{
layerId = "4BA93484-EEB5-4B02-B3A2-B396B531A6AD";
shapes = (
{
closed = 1;
nodes = (
(391,-124,l),
(148,814,l),
(17,814,l),
(259,-124,l)
);
}
);
width = 407;
}
);
unicode = 92;
userData = {
KernOnSpecialSpacing = {
L = "spaced-off";
R = "spaced-off";
};
};
},
{
color = 4;
glyphname = exclamdown.case;
lastChange = "2024-09-11 12:47:21 +0000";
layers = (
{
layerId = "E307D395-0405-4E21-BEF1-246ADCA736E4";
shapes = (
{
closed = 1;
nodes = (
(116,500,l),
(100,53,l),
(100,0,l),
(169,0,l),
(169,53,l),
(153,500,l)
);
},
{
closed = 1;
nodes = (
(93,690,l),
(93,610,l),
(176,610,l),
(176,690,l)
);
}
);
width = 270;
},
{
layerId = "4BA93484-EEB5-4B02-B3A2-B396B531A6AD";
shapes = (
{
closed = 1;
nodes = (
(95,469,l),
(60,103,l),
(60,0,l),
(210,0,l),
(210,103,l),
(175,469,l)
);
},
{
closed = 1;
nodes = (
(60,690,l),
(60,546,l),
(209,546,l),
(209,690,l)
);
}
);
width = 270;
}
);
userData = {
KernOnSpecialSpacing = {
R = "spaced-off";
};
};
},
{
color = 4;
glyphname = questiondown.case;
lastChange = "2024-09-11 12:47:21 +0000";
layers = (
{
layerId = "E307D395-0405-4E21-BEF1-246ADCA736E4";
shapes = (
{
closed = 1;
nodes = (
(283,500,l),
(280,452,ls),
(277,412,o),
(256,387,o),
(206,371,cs),
(95,336,o),
(50,278,o),
(50,187,cs),
(50,178,ls),
(50,60,o),
(135,-10,o),
(284,-10,cs),
(454,-10,o),
(527,84,o),
(527,305,c),
(545,196,l),
(453,196,l),
(453,194,ls),
(453,105,o),
(400,46,o),
(284,46,cs),
(178,46,o),
(113,92,o),
(113,176,cs),
(113,188,ls),
(113,249,o),
(146,290,o),
(233,318,cs),
(297,341,o),
(325,375,o),
(323,434,cs),
(320,500,l)
);
},
{
closed = 1;
nodes = (
(260,690,l),
(260,610,l),
(343,610,l),
(343,690,l)
);
}
);
width = 564;
},
{
layerId = "4BA93484-EEB5-4B02-B3A2-B396B531A6AD";
shapes = (
{
closed = 1;
nodes = (
(260,469,l),
(258,448,ls),
(256,428,o),
(242,414,o),
(204,400,cs),
(70,356,o),
(24,304,o),
(24,202,cs),
(24,194,ls),
(24,63,o),
(128,-10,o),
(287,-10,cs),
(466,-10,o),
(554,82,o),
(554,294,c),
(573,205,l),
(405,205,l),
(405,190,ls),
(405,139,o),
(365,100,o),
(285,100,cs),
(215,100,o),
(167,126,o),
(167,186,cs),
(167,203,ls),
(167,245,o),
(188,273,o),
(249,292,cs),
(330,321,o),
(357,361,o),
(345,433,cs),
(341,469,l)
);
},
{
closed = 1;
nodes = (
(226,690,l),
(226,546,l),
(375,546,l),
(375,690,l)
);
}
);
width = 564;
}
);
userData = {
KernOnSpecialSpacing = {
R = "spaced-off";
};
};
},
{
color = 4;
glyphname = periodcentered.loclCAT;
lastChange = "2024-09-11 12:47:21 +0000";
layers = (
{
layerId = "E307D395-0405-4E21-BEF1-246ADCA736E4";
shapes = (
{
closed = 1;
nodes = (
(108,336,l),
(108,412,l),
(28,412,l),
(28,336,l)
);
}
);
width = 133;
},
{
layerId = "4BA93484-EEB5-4B02-B3A2-B396B531A6AD";
shapes = (
{
closed = 1;
nodes = (
(139,306,l),
(139,442,l),
(-3,442,l),
(-3,306,l)
);
}
);
width = 133;
}
);
},
{
color = 4;
glyphname = hyphen;
kernLeft = hyphen;
kernRight = hyphen;
lastChange = "2025-02-11 17:54:15 +0000";
layers = (
{
layerId = "E307D395-0405-4E21-BEF1-246ADCA736E4";
shapes = (
{
closed = 1;
nodes = (
(329,258,l),
(329,310,l),
(61,310,l),
(61,258,l)
);
}
);
width = 391;
},
{
layerId = "4BA93484-EEB5-4B02-B3A2-B396B531A6AD";
shapes = (
{
closed = 1;
nodes = (
(333,234,l),
(333,334,l),
(58,334,l),
(58,234,l)
);
}
);
width = 391;
}
);
unicode = 45;
userData = {
KernOnName = hyphen;
KernOnSpecialSpacing = {
L = hyphen;
R = hyphen;
};
};
},
{
color = 4;
glyphname = endash;
kernLeft = hyphen;
kernRight = hyphen;
lastChange = "2025-02-11 17:54:12 +0000";
layers = (
{
layerId = "E307D395-0405-4E21-BEF1-246ADCA736E4";
shapes = (
{
closed = 1;
nodes = (
(537,258,l),
(537,310,l),
(61,310,l),
(61,258,l)
);
}
);
width = 599;
},
{
layerId = "4BA93484-EEB5-4B02-B3A2-B396B531A6AD";
shapes = (
{
closed = 1;
nodes = (
(541,234,l),
(541,334,l),
(58,334,l),
(58,234,l)
);
}
);
width = 599;
}
);
unicode = 8211;
userData = {
KernOnName = endash;
KernOnSpecialSpacing = {
L = dashes;
R = dashes;
};
};
},
{
color = 4;
glyphname = emdash;
kernLeft = hyphen;
kernRight = hyphen;
lastChange = "2025-02-11 17:54:11 +0000";
layers = (
{
layerId = "E307D395-0405-4E21-BEF1-246ADCA736E4";
shapes = (
{
closed = 1;
nodes = (
(765,258,l),
(765,310,l),
(61,310,l),
(61,258,l)
);
}
);
width = 827;
},
{
layerId = "4BA93484-EEB5-4B02-B3A2-B396B531A6AD";
shapes = (
{
closed = 1;
nodes = (
(769,234,l),
(769,334,l),
(58,334,l),
(58,234,l)
);
}
);
width = 827;
}
);
unicode = 8212;
userData = {
KernOnSpecialSpacing = {
L = dashes;
R = dashes;
};
};
},
{
color = 4;
glyphname = underscore;
lastChange = "2025-02-11 17:54:16 +0000";
layers = (
{
layerId = "E307D395-0405-4E21-BEF1-246ADCA736E4";
shapes = (
{
closed = 1;
nodes = (
(491,-91,l),
(491,-40,l),
(47,-40,l),
(47,-91,l)
);
}
);
width = 540;
},
{
layerId = "4BA93484-EEB5-4B02-B3A2-B396B531A6AD";
shapes = (
{
closed = 1;
nodes = (
(495,-126,l),
(495,-27,l),
(45,-27,l),
(45,-126,l)
);
}
);
width = 540;
}
);
unicode = 95;
userData = {
KernOnSpecialSpacing = {
L = underscore;
R = underscore;
};
};
},
{
color = 4;
glyphname = parenleft;
lastChange = "2024-09-11 12:47:21 +0000";
layers = (
{
layerId = "E307D395-0405-4E21-BEF1-246ADCA736E4";
shapes = (
{
closed = 1;
nodes = (
(309,-124,l),
(182,13,o),
(124,151,o),
(124,320,cs),
(124,370,ls),
(124,539,o),
(182,677,o),
(309,814,c),
(244,814,l),
(127,700,o),
(62,536,o),
(62,345,cs),
(62,154,o),
(127,-10,o),
(244,-124,c)
);
}
);
width = 330;
},
{
layerId = "4BA93484-EEB5-4B02-B3A2-B396B531A6AD";
shapes = (
{
closed = 1;
nodes = (
(324,-124,l),
(220,17,o),
(171,153,o),
(171,313,cs),
(171,377,ls),
(171,537,o),
(220,673,o),
(324,814,c),
(208,814,l),
(100,697,o),
(40,533,o),
(40,345,cs),
(40,157,o),
(100,-7,o),
(208,-124,c)
);
}
);
width = 330;
}
);
unicode = 40;
userData = {
KernOnSpecialSpacing = {
R = parenthesis;
};
};
},
{
color = 4;
glyphname = parenright;
lastChange = "2024-09-11 12:47:21 +0000";
layers = (
{
layerId = "E307D395-0405-4E21-BEF1-246ADCA736E4";
shapes = (
{
closed = 1;
nodes = (
(21,814,l),
(149,677,o),
(206,539,o),
(206,370,cs),
(206,320,ls),
(206,151,o),
(149,13,o),
(21,-124,c),
(86,-124,l),
(204,-10,o),
(268,154,o),
(268,345,cs),
(268,536,o),
(204,700,o),
(86,814,c)
);
}
);
width = 330;
},
{
layerId = "4BA93484-EEB5-4B02-B3A2-B396B531A6AD";
shapes = (
{
closed = 1;
nodes = (
(6,814,l),
(110,673,o),
(159,537,o),
(159,377,cs),
(159,313,ls),
(159,153,o),
(110,17,o),
(6,-124,c),
(122,-124,l),
(230,-7,o),
(290,157,o),
(290,345,cs),
(290,533,o),
(230,697,o),
(122,814,c)
);
}
);
width = 330;
}
);
unicode = 41;
userData = {
KernOnSpecialSpacing = {
L = parenthesis;
};
};
},
{
color = 4;
glyphname = braceleft;
lastChange = "2024-09-11 12:47:21 +0000";
layers = (
{
layerId = "E307D395-0405-4E21-BEF1-246ADCA736E4";
shapes = (
{
closed = 1;
nodes = (
(364,-124,l),
(364,-73,l),
(204,-73,ls),
(189,-73,o),
(181,-65,o),
(181,-50,cs),
(181,-12,o),
(234,213,o),
(234,275,cs),
(234,313,o),
(219,334,o),
(189,339,c),
(189,351,l),
(219,356,o),
(234,377,o),
(234,415,cs),
(234,477,o),
(181,702,o),
(181,740,cs),
(181,755,o),
(189,763,o),
(204,763,cs),
(364,763,l),
(364,814,l),
(185,814,ls),
(142,814,o),
(121,792,o),
(121,750,cs),
(121,687,o),
(176,470,o),
(176,413,cs),
(176,384,o),
(165,371,o),
(142,371,cs),
(30,371,l),
(30,319,l),
(142,319,ls),
(165,319,o),
(176,306,o),
(176,277,cs),
(176,220,o),
(121,3,o),
(121,-60,cs),
(121,-102,o),
(142,-124,o),
(185,-124,cs)
);
}
);
width = 402;
},
{
layerId = "4BA93484-EEB5-4B02-B3A2-B396B531A6AD";
shapes = (
{
closed = 1;
nodes = (
(369,-124,l),
(369,-28,l),
(258,-28,ls),
(240,-28,o),
(231,-19,o),
(231,-2,cs),
(231,33,o),
(271,186,o),
(271,245,cs),
(271,300,o),
(245,332,o),
(192,335,c),
(192,355,l),
(245,358,o),
(271,390,o),
(271,445,cs),
(271,504,o),
(231,657,o),
(231,692,cs),
(231,709,o),
(240,718,o),
(258,718,cs),
(369,718,l),
(369,814,l),
(193,814,ls),
(135,814,o),
(104,783,o),
(104,725,cs),
(104,663,o),
(147,489,o),
(147,438,cs),
(147,408,o),
(135,393,o),
(110,393,cs),
(28,393,l),
(28,297,l),
(110,297,ls),
(135,297,o),
(147,282,o),
(147,252,cs),
(147,201,o),
(104,27,o),
(104,-35,cs),
(104,-93,o),
(135,-124,o),
(193,-124,cs)
);
}
);
width = 402;
}
);
unicode = 123;
userData = {
KernOnSpecialSpacing = {
R = parenthesis;
};
};
},
